%TF.GenerationSoftware,KiCad,Pcbnew,7.0.10+dfsg-1*%
%TF.CreationDate,2024-02-25T05:42:05-05:00*%
%TF.ProjectId,BB816-MATX-minimal,42423831-362d-44d4-9154-582d6d696e69,rev?*%
%TF.SameCoordinates,Original*%
%TF.FileFunction,Drillmap*%
%TF.FilePolarity,Positive*%
%FSLAX45Y45*%
G04 Gerber Fmt 4.5, Leading zero omitted, Abs format (unit mm)*
G04 Created by KiCad (PCBNEW 7.0.10+dfsg-1) date 2024-02-25 05:42:05*
%MOMM*%
%LPD*%
G01*
G04 APERTURE LIST*
%ADD10C,0.150000*%
%ADD11C,0.200000*%
%ADD12C,0.240000*%
G04 APERTURE END LIST*
D10*
X3810000Y-25871000D02*
X3810000Y-16049000D01*
X3810000Y-16049000D02*
X23326000Y-16049000D01*
X23326000Y-25871000D02*
X23326000Y-16049000D01*
X3810000Y-25871000D02*
X23326000Y-25871000D01*
D11*
D12*
X9399920Y-18391520D02*
X9639920Y-18631520D01*
X9639920Y-18391520D02*
X9399920Y-18631520D01*
X9399920Y-20423520D02*
X9639920Y-20663520D01*
X9639920Y-20423520D02*
X9399920Y-20663520D01*
X9399920Y-22455520D02*
X9639920Y-22695520D01*
X9639920Y-22455520D02*
X9399920Y-22695520D01*
X9399920Y-24487520D02*
X9639920Y-24727520D01*
X9639920Y-24487520D02*
X9399920Y-24727520D01*
X16714920Y-18391520D02*
X16954920Y-18631520D01*
X16954920Y-18391520D02*
X16714920Y-18631520D01*
X16714920Y-20423520D02*
X16954920Y-20663520D01*
X16954920Y-20423520D02*
X16714920Y-20663520D01*
X16714920Y-22455520D02*
X16954920Y-22695520D01*
X16954920Y-22455520D02*
X16714920Y-22695520D01*
X16714920Y-24487520D02*
X16954920Y-24727520D01*
X16954920Y-24487520D02*
X16714920Y-24727520D01*
D11*
X4063277Y-26189984D02*
X4063277Y-25989984D01*
X4063277Y-25989984D02*
X4110896Y-25989984D01*
X4110896Y-25989984D02*
X4139467Y-25999508D01*
X4139467Y-25999508D02*
X4158515Y-26018555D01*
X4158515Y-26018555D02*
X4168039Y-26037603D01*
X4168039Y-26037603D02*
X4177562Y-26075698D01*
X4177562Y-26075698D02*
X4177562Y-26104269D01*
X4177562Y-26104269D02*
X4168039Y-26142365D01*
X4168039Y-26142365D02*
X4158515Y-26161412D01*
X4158515Y-26161412D02*
X4139467Y-26180460D01*
X4139467Y-26180460D02*
X4110896Y-26189984D01*
X4110896Y-26189984D02*
X4063277Y-26189984D01*
X4263277Y-26189984D02*
X4263277Y-26056650D01*
X4263277Y-26094746D02*
X4272801Y-26075698D01*
X4272801Y-26075698D02*
X4282324Y-26066174D01*
X4282324Y-26066174D02*
X4301372Y-26056650D01*
X4301372Y-26056650D02*
X4320420Y-26056650D01*
X4387086Y-26189984D02*
X4387086Y-26056650D01*
X4387086Y-25989984D02*
X4377563Y-25999508D01*
X4377563Y-25999508D02*
X4387086Y-26009031D01*
X4387086Y-26009031D02*
X4396610Y-25999508D01*
X4396610Y-25999508D02*
X4387086Y-25989984D01*
X4387086Y-25989984D02*
X4387086Y-26009031D01*
X4510896Y-26189984D02*
X4491848Y-26180460D01*
X4491848Y-26180460D02*
X4482324Y-26161412D01*
X4482324Y-26161412D02*
X4482324Y-25989984D01*
X4615658Y-26189984D02*
X4596610Y-26180460D01*
X4596610Y-26180460D02*
X4587086Y-26161412D01*
X4587086Y-26161412D02*
X4587086Y-25989984D01*
X4844229Y-26189984D02*
X4844229Y-25989984D01*
X4844229Y-25989984D02*
X4910896Y-26132841D01*
X4910896Y-26132841D02*
X4977563Y-25989984D01*
X4977563Y-25989984D02*
X4977563Y-26189984D01*
X5158515Y-26189984D02*
X5158515Y-26085222D01*
X5158515Y-26085222D02*
X5148991Y-26066174D01*
X5148991Y-26066174D02*
X5129944Y-26056650D01*
X5129944Y-26056650D02*
X5091848Y-26056650D01*
X5091848Y-26056650D02*
X5072801Y-26066174D01*
X5158515Y-26180460D02*
X5139467Y-26189984D01*
X5139467Y-26189984D02*
X5091848Y-26189984D01*
X5091848Y-26189984D02*
X5072801Y-26180460D01*
X5072801Y-26180460D02*
X5063277Y-26161412D01*
X5063277Y-26161412D02*
X5063277Y-26142365D01*
X5063277Y-26142365D02*
X5072801Y-26123317D01*
X5072801Y-26123317D02*
X5091848Y-26113793D01*
X5091848Y-26113793D02*
X5139467Y-26113793D01*
X5139467Y-26113793D02*
X5158515Y-26104269D01*
X5253753Y-26056650D02*
X5253753Y-26256650D01*
X5253753Y-26066174D02*
X5272801Y-26056650D01*
X5272801Y-26056650D02*
X5310896Y-26056650D01*
X5310896Y-26056650D02*
X5329944Y-26066174D01*
X5329944Y-26066174D02*
X5339467Y-26075698D01*
X5339467Y-26075698D02*
X5348991Y-26094746D01*
X5348991Y-26094746D02*
X5348991Y-26151888D01*
X5348991Y-26151888D02*
X5339467Y-26170936D01*
X5339467Y-26170936D02*
X5329944Y-26180460D01*
X5329944Y-26180460D02*
X5310896Y-26189984D01*
X5310896Y-26189984D02*
X5272801Y-26189984D01*
X5272801Y-26189984D02*
X5253753Y-26180460D01*
X5434705Y-26170936D02*
X5444229Y-26180460D01*
X5444229Y-26180460D02*
X5434705Y-26189984D01*
X5434705Y-26189984D02*
X5425182Y-26180460D01*
X5425182Y-26180460D02*
X5434705Y-26170936D01*
X5434705Y-26170936D02*
X5434705Y-26189984D01*
X5434705Y-26066174D02*
X5444229Y-26075698D01*
X5444229Y-26075698D02*
X5434705Y-26085222D01*
X5434705Y-26085222D02*
X5425182Y-26075698D01*
X5425182Y-26075698D02*
X5434705Y-26066174D01*
X5434705Y-26066174D02*
X5434705Y-26085222D01*
X3602500Y-26418500D02*
X3802500Y-26618500D01*
X3802500Y-26418500D02*
X3602500Y-26618500D01*
X4053753Y-26429031D02*
X4063277Y-26419508D01*
X4063277Y-26419508D02*
X4082324Y-26409984D01*
X4082324Y-26409984D02*
X4129943Y-26409984D01*
X4129943Y-26409984D02*
X4148991Y-26419508D01*
X4148991Y-26419508D02*
X4158515Y-26429031D01*
X4158515Y-26429031D02*
X4168039Y-26448079D01*
X4168039Y-26448079D02*
X4168039Y-26467127D01*
X4168039Y-26467127D02*
X4158515Y-26495698D01*
X4158515Y-26495698D02*
X4044229Y-26609984D01*
X4044229Y-26609984D02*
X4168039Y-26609984D01*
X4253753Y-26590936D02*
X4263277Y-26600460D01*
X4263277Y-26600460D02*
X4253753Y-26609984D01*
X4253753Y-26609984D02*
X4244229Y-26600460D01*
X4244229Y-26600460D02*
X4253753Y-26590936D01*
X4253753Y-26590936D02*
X4253753Y-26609984D01*
X4434705Y-26476650D02*
X4434705Y-26609984D01*
X4387086Y-26400460D02*
X4339467Y-26543317D01*
X4339467Y-26543317D02*
X4463277Y-26543317D01*
X4577563Y-26409984D02*
X4596610Y-26409984D01*
X4596610Y-26409984D02*
X4615658Y-26419508D01*
X4615658Y-26419508D02*
X4625182Y-26429031D01*
X4625182Y-26429031D02*
X4634705Y-26448079D01*
X4634705Y-26448079D02*
X4644229Y-26486174D01*
X4644229Y-26486174D02*
X4644229Y-26533793D01*
X4644229Y-26533793D02*
X4634705Y-26571888D01*
X4634705Y-26571888D02*
X4625182Y-26590936D01*
X4625182Y-26590936D02*
X4615658Y-26600460D01*
X4615658Y-26600460D02*
X4596610Y-26609984D01*
X4596610Y-26609984D02*
X4577563Y-26609984D01*
X4577563Y-26609984D02*
X4558515Y-26600460D01*
X4558515Y-26600460D02*
X4548991Y-26590936D01*
X4548991Y-26590936D02*
X4539467Y-26571888D01*
X4539467Y-26571888D02*
X4529944Y-26533793D01*
X4529944Y-26533793D02*
X4529944Y-26486174D01*
X4529944Y-26486174D02*
X4539467Y-26448079D01*
X4539467Y-26448079D02*
X4548991Y-26429031D01*
X4548991Y-26429031D02*
X4558515Y-26419508D01*
X4558515Y-26419508D02*
X4577563Y-26409984D01*
X4768039Y-26409984D02*
X4787086Y-26409984D01*
X4787086Y-26409984D02*
X4806134Y-26419508D01*
X4806134Y-26419508D02*
X4815658Y-26429031D01*
X4815658Y-26429031D02*
X4825182Y-26448079D01*
X4825182Y-26448079D02*
X4834705Y-26486174D01*
X4834705Y-26486174D02*
X4834705Y-26533793D01*
X4834705Y-26533793D02*
X4825182Y-26571888D01*
X4825182Y-26571888D02*
X4815658Y-26590936D01*
X4815658Y-26590936D02*
X4806134Y-26600460D01*
X4806134Y-26600460D02*
X4787086Y-26609984D01*
X4787086Y-26609984D02*
X4768039Y-26609984D01*
X4768039Y-26609984D02*
X4748991Y-26600460D01*
X4748991Y-26600460D02*
X4739467Y-26590936D01*
X4739467Y-26590936D02*
X4729944Y-26571888D01*
X4729944Y-26571888D02*
X4720420Y-26533793D01*
X4720420Y-26533793D02*
X4720420Y-26486174D01*
X4720420Y-26486174D02*
X4729944Y-26448079D01*
X4729944Y-26448079D02*
X4739467Y-26429031D01*
X4739467Y-26429031D02*
X4748991Y-26419508D01*
X4748991Y-26419508D02*
X4768039Y-26409984D01*
X4920420Y-26609984D02*
X4920420Y-26476650D01*
X4920420Y-26495698D02*
X4929944Y-26486174D01*
X4929944Y-26486174D02*
X4948991Y-26476650D01*
X4948991Y-26476650D02*
X4977563Y-26476650D01*
X4977563Y-26476650D02*
X4996610Y-26486174D01*
X4996610Y-26486174D02*
X5006134Y-26505222D01*
X5006134Y-26505222D02*
X5006134Y-26609984D01*
X5006134Y-26505222D02*
X5015658Y-26486174D01*
X5015658Y-26486174D02*
X5034705Y-26476650D01*
X5034705Y-26476650D02*
X5063277Y-26476650D01*
X5063277Y-26476650D02*
X5082325Y-26486174D01*
X5082325Y-26486174D02*
X5091848Y-26505222D01*
X5091848Y-26505222D02*
X5091848Y-26609984D01*
X5187086Y-26609984D02*
X5187086Y-26476650D01*
X5187086Y-26495698D02*
X5196610Y-26486174D01*
X5196610Y-26486174D02*
X5215658Y-26476650D01*
X5215658Y-26476650D02*
X5244229Y-26476650D01*
X5244229Y-26476650D02*
X5263277Y-26486174D01*
X5263277Y-26486174D02*
X5272801Y-26505222D01*
X5272801Y-26505222D02*
X5272801Y-26609984D01*
X5272801Y-26505222D02*
X5282325Y-26486174D01*
X5282325Y-26486174D02*
X5301372Y-26476650D01*
X5301372Y-26476650D02*
X5329944Y-26476650D01*
X5329944Y-26476650D02*
X5348991Y-26486174D01*
X5348991Y-26486174D02*
X5358515Y-26505222D01*
X5358515Y-26505222D02*
X5358515Y-26609984D01*
X5748991Y-26400460D02*
X5577563Y-26657603D01*
X6006134Y-26409984D02*
X6025182Y-26409984D01*
X6025182Y-26409984D02*
X6044229Y-26419508D01*
X6044229Y-26419508D02*
X6053753Y-26429031D01*
X6053753Y-26429031D02*
X6063277Y-26448079D01*
X6063277Y-26448079D02*
X6072801Y-26486174D01*
X6072801Y-26486174D02*
X6072801Y-26533793D01*
X6072801Y-26533793D02*
X6063277Y-26571888D01*
X6063277Y-26571888D02*
X6053753Y-26590936D01*
X6053753Y-26590936D02*
X6044229Y-26600460D01*
X6044229Y-26600460D02*
X6025182Y-26609984D01*
X6025182Y-26609984D02*
X6006134Y-26609984D01*
X6006134Y-26609984D02*
X5987086Y-26600460D01*
X5987086Y-26600460D02*
X5977563Y-26590936D01*
X5977563Y-26590936D02*
X5968039Y-26571888D01*
X5968039Y-26571888D02*
X5958515Y-26533793D01*
X5958515Y-26533793D02*
X5958515Y-26486174D01*
X5958515Y-26486174D02*
X5968039Y-26448079D01*
X5968039Y-26448079D02*
X5977563Y-26429031D01*
X5977563Y-26429031D02*
X5987086Y-26419508D01*
X5987086Y-26419508D02*
X6006134Y-26409984D01*
X6158515Y-26590936D02*
X6168039Y-26600460D01*
X6168039Y-26600460D02*
X6158515Y-26609984D01*
X6158515Y-26609984D02*
X6148991Y-26600460D01*
X6148991Y-26600460D02*
X6158515Y-26590936D01*
X6158515Y-26590936D02*
X6158515Y-26609984D01*
X6291848Y-26409984D02*
X6310896Y-26409984D01*
X6310896Y-26409984D02*
X6329944Y-26419508D01*
X6329944Y-26419508D02*
X6339467Y-26429031D01*
X6339467Y-26429031D02*
X6348991Y-26448079D01*
X6348991Y-26448079D02*
X6358515Y-26486174D01*
X6358515Y-26486174D02*
X6358515Y-26533793D01*
X6358515Y-26533793D02*
X6348991Y-26571888D01*
X6348991Y-26571888D02*
X6339467Y-26590936D01*
X6339467Y-26590936D02*
X6329944Y-26600460D01*
X6329944Y-26600460D02*
X6310896Y-26609984D01*
X6310896Y-26609984D02*
X6291848Y-26609984D01*
X6291848Y-26609984D02*
X6272801Y-26600460D01*
X6272801Y-26600460D02*
X6263277Y-26590936D01*
X6263277Y-26590936D02*
X6253753Y-26571888D01*
X6253753Y-26571888D02*
X6244229Y-26533793D01*
X6244229Y-26533793D02*
X6244229Y-26486174D01*
X6244229Y-26486174D02*
X6253753Y-26448079D01*
X6253753Y-26448079D02*
X6263277Y-26429031D01*
X6263277Y-26429031D02*
X6272801Y-26419508D01*
X6272801Y-26419508D02*
X6291848Y-26409984D01*
X6453753Y-26609984D02*
X6491848Y-26609984D01*
X6491848Y-26609984D02*
X6510896Y-26600460D01*
X6510896Y-26600460D02*
X6520420Y-26590936D01*
X6520420Y-26590936D02*
X6539467Y-26562365D01*
X6539467Y-26562365D02*
X6548991Y-26524269D01*
X6548991Y-26524269D02*
X6548991Y-26448079D01*
X6548991Y-26448079D02*
X6539467Y-26429031D01*
X6539467Y-26429031D02*
X6529944Y-26419508D01*
X6529944Y-26419508D02*
X6510896Y-26409984D01*
X6510896Y-26409984D02*
X6472801Y-26409984D01*
X6472801Y-26409984D02*
X6453753Y-26419508D01*
X6453753Y-26419508D02*
X6444229Y-26429031D01*
X6444229Y-26429031D02*
X6434706Y-26448079D01*
X6434706Y-26448079D02*
X6434706Y-26495698D01*
X6434706Y-26495698D02*
X6444229Y-26514746D01*
X6444229Y-26514746D02*
X6453753Y-26524269D01*
X6453753Y-26524269D02*
X6472801Y-26533793D01*
X6472801Y-26533793D02*
X6510896Y-26533793D01*
X6510896Y-26533793D02*
X6529944Y-26524269D01*
X6529944Y-26524269D02*
X6539467Y-26514746D01*
X6539467Y-26514746D02*
X6548991Y-26495698D01*
X6720420Y-26476650D02*
X6720420Y-26609984D01*
X6672801Y-26400460D02*
X6625182Y-26543317D01*
X6625182Y-26543317D02*
X6748991Y-26543317D01*
X6920420Y-26409984D02*
X6825182Y-26409984D01*
X6825182Y-26409984D02*
X6815658Y-26505222D01*
X6815658Y-26505222D02*
X6825182Y-26495698D01*
X6825182Y-26495698D02*
X6844229Y-26486174D01*
X6844229Y-26486174D02*
X6891848Y-26486174D01*
X6891848Y-26486174D02*
X6910896Y-26495698D01*
X6910896Y-26495698D02*
X6920420Y-26505222D01*
X6920420Y-26505222D02*
X6929944Y-26524269D01*
X6929944Y-26524269D02*
X6929944Y-26571888D01*
X6929944Y-26571888D02*
X6920420Y-26590936D01*
X6920420Y-26590936D02*
X6910896Y-26600460D01*
X6910896Y-26600460D02*
X6891848Y-26609984D01*
X6891848Y-26609984D02*
X6844229Y-26609984D01*
X6844229Y-26609984D02*
X6825182Y-26600460D01*
X6825182Y-26600460D02*
X6815658Y-26590936D01*
X7006134Y-26409984D02*
X7006134Y-26448079D01*
X7082325Y-26409984D02*
X7082325Y-26448079D01*
X7377563Y-26686174D02*
X7368039Y-26676650D01*
X7368039Y-26676650D02*
X7348991Y-26648079D01*
X7348991Y-26648079D02*
X7339468Y-26629031D01*
X7339468Y-26629031D02*
X7329944Y-26600460D01*
X7329944Y-26600460D02*
X7320420Y-26552841D01*
X7320420Y-26552841D02*
X7320420Y-26514746D01*
X7320420Y-26514746D02*
X7329944Y-26467127D01*
X7329944Y-26467127D02*
X7339468Y-26438555D01*
X7339468Y-26438555D02*
X7348991Y-26419508D01*
X7348991Y-26419508D02*
X7368039Y-26390936D01*
X7368039Y-26390936D02*
X7377563Y-26381412D01*
X7482325Y-26495698D02*
X7463277Y-26486174D01*
X7463277Y-26486174D02*
X7453753Y-26476650D01*
X7453753Y-26476650D02*
X7444229Y-26457603D01*
X7444229Y-26457603D02*
X7444229Y-26448079D01*
X7444229Y-26448079D02*
X7453753Y-26429031D01*
X7453753Y-26429031D02*
X7463277Y-26419508D01*
X7463277Y-26419508D02*
X7482325Y-26409984D01*
X7482325Y-26409984D02*
X7520420Y-26409984D01*
X7520420Y-26409984D02*
X7539468Y-26419508D01*
X7539468Y-26419508D02*
X7548991Y-26429031D01*
X7548991Y-26429031D02*
X7558515Y-26448079D01*
X7558515Y-26448079D02*
X7558515Y-26457603D01*
X7558515Y-26457603D02*
X7548991Y-26476650D01*
X7548991Y-26476650D02*
X7539468Y-26486174D01*
X7539468Y-26486174D02*
X7520420Y-26495698D01*
X7520420Y-26495698D02*
X7482325Y-26495698D01*
X7482325Y-26495698D02*
X7463277Y-26505222D01*
X7463277Y-26505222D02*
X7453753Y-26514746D01*
X7453753Y-26514746D02*
X7444229Y-26533793D01*
X7444229Y-26533793D02*
X7444229Y-26571888D01*
X7444229Y-26571888D02*
X7453753Y-26590936D01*
X7453753Y-26590936D02*
X7463277Y-26600460D01*
X7463277Y-26600460D02*
X7482325Y-26609984D01*
X7482325Y-26609984D02*
X7520420Y-26609984D01*
X7520420Y-26609984D02*
X7539468Y-26600460D01*
X7539468Y-26600460D02*
X7548991Y-26590936D01*
X7548991Y-26590936D02*
X7558515Y-26571888D01*
X7558515Y-26571888D02*
X7558515Y-26533793D01*
X7558515Y-26533793D02*
X7548991Y-26514746D01*
X7548991Y-26514746D02*
X7539468Y-26505222D01*
X7539468Y-26505222D02*
X7520420Y-26495698D01*
X7796610Y-26609984D02*
X7796610Y-26409984D01*
X7882325Y-26609984D02*
X7882325Y-26505222D01*
X7882325Y-26505222D02*
X7872801Y-26486174D01*
X7872801Y-26486174D02*
X7853753Y-26476650D01*
X7853753Y-26476650D02*
X7825182Y-26476650D01*
X7825182Y-26476650D02*
X7806134Y-26486174D01*
X7806134Y-26486174D02*
X7796610Y-26495698D01*
X8006134Y-26609984D02*
X7987087Y-26600460D01*
X7987087Y-26600460D02*
X7977563Y-26590936D01*
X7977563Y-26590936D02*
X7968039Y-26571888D01*
X7968039Y-26571888D02*
X7968039Y-26514746D01*
X7968039Y-26514746D02*
X7977563Y-26495698D01*
X7977563Y-26495698D02*
X7987087Y-26486174D01*
X7987087Y-26486174D02*
X8006134Y-26476650D01*
X8006134Y-26476650D02*
X8034706Y-26476650D01*
X8034706Y-26476650D02*
X8053753Y-26486174D01*
X8053753Y-26486174D02*
X8063277Y-26495698D01*
X8063277Y-26495698D02*
X8072801Y-26514746D01*
X8072801Y-26514746D02*
X8072801Y-26571888D01*
X8072801Y-26571888D02*
X8063277Y-26590936D01*
X8063277Y-26590936D02*
X8053753Y-26600460D01*
X8053753Y-26600460D02*
X8034706Y-26609984D01*
X8034706Y-26609984D02*
X8006134Y-26609984D01*
X8187087Y-26609984D02*
X8168039Y-26600460D01*
X8168039Y-26600460D02*
X8158515Y-26581412D01*
X8158515Y-26581412D02*
X8158515Y-26409984D01*
X8339468Y-26600460D02*
X8320420Y-26609984D01*
X8320420Y-26609984D02*
X8282325Y-26609984D01*
X8282325Y-26609984D02*
X8263277Y-26600460D01*
X8263277Y-26600460D02*
X8253753Y-26581412D01*
X8253753Y-26581412D02*
X8253753Y-26505222D01*
X8253753Y-26505222D02*
X8263277Y-26486174D01*
X8263277Y-26486174D02*
X8282325Y-26476650D01*
X8282325Y-26476650D02*
X8320420Y-26476650D01*
X8320420Y-26476650D02*
X8339468Y-26486174D01*
X8339468Y-26486174D02*
X8348991Y-26505222D01*
X8348991Y-26505222D02*
X8348991Y-26524269D01*
X8348991Y-26524269D02*
X8253753Y-26543317D01*
X8425182Y-26600460D02*
X8444230Y-26609984D01*
X8444230Y-26609984D02*
X8482325Y-26609984D01*
X8482325Y-26609984D02*
X8501373Y-26600460D01*
X8501373Y-26600460D02*
X8510896Y-26581412D01*
X8510896Y-26581412D02*
X8510896Y-26571888D01*
X8510896Y-26571888D02*
X8501373Y-26552841D01*
X8501373Y-26552841D02*
X8482325Y-26543317D01*
X8482325Y-26543317D02*
X8453753Y-26543317D01*
X8453753Y-26543317D02*
X8434706Y-26533793D01*
X8434706Y-26533793D02*
X8425182Y-26514746D01*
X8425182Y-26514746D02*
X8425182Y-26505222D01*
X8425182Y-26505222D02*
X8434706Y-26486174D01*
X8434706Y-26486174D02*
X8453753Y-26476650D01*
X8453753Y-26476650D02*
X8482325Y-26476650D01*
X8482325Y-26476650D02*
X8501373Y-26486174D01*
X8577563Y-26686174D02*
X8587087Y-26676650D01*
X8587087Y-26676650D02*
X8606134Y-26648079D01*
X8606134Y-26648079D02*
X8615658Y-26629031D01*
X8615658Y-26629031D02*
X8625182Y-26600460D01*
X8625182Y-26600460D02*
X8634706Y-26552841D01*
X8634706Y-26552841D02*
X8634706Y-26514746D01*
X8634706Y-26514746D02*
X8625182Y-26467127D01*
X8625182Y-26467127D02*
X8615658Y-26438555D01*
X8615658Y-26438555D02*
X8606134Y-26419508D01*
X8606134Y-26419508D02*
X8587087Y-26390936D01*
X8587087Y-26390936D02*
X8577563Y-26381412D01*
X8939468Y-26686174D02*
X8929944Y-26676650D01*
X8929944Y-26676650D02*
X8910896Y-26648079D01*
X8910896Y-26648079D02*
X8901373Y-26629031D01*
X8901373Y-26629031D02*
X8891849Y-26600460D01*
X8891849Y-26600460D02*
X8882325Y-26552841D01*
X8882325Y-26552841D02*
X8882325Y-26514746D01*
X8882325Y-26514746D02*
X8891849Y-26467127D01*
X8891849Y-26467127D02*
X8901373Y-26438555D01*
X8901373Y-26438555D02*
X8910896Y-26419508D01*
X8910896Y-26419508D02*
X8929944Y-26390936D01*
X8929944Y-26390936D02*
X8939468Y-26381412D01*
X9015658Y-26476650D02*
X9015658Y-26609984D01*
X9015658Y-26495698D02*
X9025182Y-26486174D01*
X9025182Y-26486174D02*
X9044230Y-26476650D01*
X9044230Y-26476650D02*
X9072801Y-26476650D01*
X9072801Y-26476650D02*
X9091849Y-26486174D01*
X9091849Y-26486174D02*
X9101373Y-26505222D01*
X9101373Y-26505222D02*
X9101373Y-26609984D01*
X9225182Y-26609984D02*
X9206134Y-26600460D01*
X9206134Y-26600460D02*
X9196611Y-26590936D01*
X9196611Y-26590936D02*
X9187087Y-26571888D01*
X9187087Y-26571888D02*
X9187087Y-26514746D01*
X9187087Y-26514746D02*
X9196611Y-26495698D01*
X9196611Y-26495698D02*
X9206134Y-26486174D01*
X9206134Y-26486174D02*
X9225182Y-26476650D01*
X9225182Y-26476650D02*
X9253754Y-26476650D01*
X9253754Y-26476650D02*
X9272801Y-26486174D01*
X9272801Y-26486174D02*
X9282325Y-26495698D01*
X9282325Y-26495698D02*
X9291849Y-26514746D01*
X9291849Y-26514746D02*
X9291849Y-26571888D01*
X9291849Y-26571888D02*
X9282325Y-26590936D01*
X9282325Y-26590936D02*
X9272801Y-26600460D01*
X9272801Y-26600460D02*
X9253754Y-26609984D01*
X9253754Y-26609984D02*
X9225182Y-26609984D01*
X9348992Y-26476650D02*
X9425182Y-26476650D01*
X9377563Y-26409984D02*
X9377563Y-26581412D01*
X9377563Y-26581412D02*
X9387087Y-26600460D01*
X9387087Y-26600460D02*
X9406134Y-26609984D01*
X9406134Y-26609984D02*
X9425182Y-26609984D01*
X9644230Y-26476650D02*
X9644230Y-26676650D01*
X9644230Y-26486174D02*
X9663277Y-26476650D01*
X9663277Y-26476650D02*
X9701373Y-26476650D01*
X9701373Y-26476650D02*
X9720420Y-26486174D01*
X9720420Y-26486174D02*
X9729944Y-26495698D01*
X9729944Y-26495698D02*
X9739468Y-26514746D01*
X9739468Y-26514746D02*
X9739468Y-26571888D01*
X9739468Y-26571888D02*
X9729944Y-26590936D01*
X9729944Y-26590936D02*
X9720420Y-26600460D01*
X9720420Y-26600460D02*
X9701373Y-26609984D01*
X9701373Y-26609984D02*
X9663277Y-26609984D01*
X9663277Y-26609984D02*
X9644230Y-26600460D01*
X9853754Y-26609984D02*
X9834706Y-26600460D01*
X9834706Y-26600460D02*
X9825182Y-26581412D01*
X9825182Y-26581412D02*
X9825182Y-26409984D01*
X10015658Y-26609984D02*
X10015658Y-26505222D01*
X10015658Y-26505222D02*
X10006135Y-26486174D01*
X10006135Y-26486174D02*
X9987087Y-26476650D01*
X9987087Y-26476650D02*
X9948992Y-26476650D01*
X9948992Y-26476650D02*
X9929944Y-26486174D01*
X10015658Y-26600460D02*
X9996611Y-26609984D01*
X9996611Y-26609984D02*
X9948992Y-26609984D01*
X9948992Y-26609984D02*
X9929944Y-26600460D01*
X9929944Y-26600460D02*
X9920420Y-26581412D01*
X9920420Y-26581412D02*
X9920420Y-26562365D01*
X9920420Y-26562365D02*
X9929944Y-26543317D01*
X9929944Y-26543317D02*
X9948992Y-26533793D01*
X9948992Y-26533793D02*
X9996611Y-26533793D01*
X9996611Y-26533793D02*
X10015658Y-26524269D01*
X10082325Y-26476650D02*
X10158515Y-26476650D01*
X10110896Y-26409984D02*
X10110896Y-26581412D01*
X10110896Y-26581412D02*
X10120420Y-26600460D01*
X10120420Y-26600460D02*
X10139468Y-26609984D01*
X10139468Y-26609984D02*
X10158515Y-26609984D01*
X10301373Y-26600460D02*
X10282325Y-26609984D01*
X10282325Y-26609984D02*
X10244230Y-26609984D01*
X10244230Y-26609984D02*
X10225182Y-26600460D01*
X10225182Y-26600460D02*
X10215658Y-26581412D01*
X10215658Y-26581412D02*
X10215658Y-26505222D01*
X10215658Y-26505222D02*
X10225182Y-26486174D01*
X10225182Y-26486174D02*
X10244230Y-26476650D01*
X10244230Y-26476650D02*
X10282325Y-26476650D01*
X10282325Y-26476650D02*
X10301373Y-26486174D01*
X10301373Y-26486174D02*
X10310896Y-26505222D01*
X10310896Y-26505222D02*
X10310896Y-26524269D01*
X10310896Y-26524269D02*
X10215658Y-26543317D01*
X10482325Y-26609984D02*
X10482325Y-26409984D01*
X10482325Y-26600460D02*
X10463277Y-26609984D01*
X10463277Y-26609984D02*
X10425182Y-26609984D01*
X10425182Y-26609984D02*
X10406135Y-26600460D01*
X10406135Y-26600460D02*
X10396611Y-26590936D01*
X10396611Y-26590936D02*
X10387087Y-26571888D01*
X10387087Y-26571888D02*
X10387087Y-26514746D01*
X10387087Y-26514746D02*
X10396611Y-26495698D01*
X10396611Y-26495698D02*
X10406135Y-26486174D01*
X10406135Y-26486174D02*
X10425182Y-26476650D01*
X10425182Y-26476650D02*
X10463277Y-26476650D01*
X10463277Y-26476650D02*
X10482325Y-26486174D01*
X10558516Y-26686174D02*
X10568039Y-26676650D01*
X10568039Y-26676650D02*
X10587087Y-26648079D01*
X10587087Y-26648079D02*
X10596611Y-26629031D01*
X10596611Y-26629031D02*
X10606135Y-26600460D01*
X10606135Y-26600460D02*
X10615658Y-26552841D01*
X10615658Y-26552841D02*
X10615658Y-26514746D01*
X10615658Y-26514746D02*
X10606135Y-26467127D01*
X10606135Y-26467127D02*
X10596611Y-26438555D01*
X10596611Y-26438555D02*
X10587087Y-26419508D01*
X10587087Y-26419508D02*
X10568039Y-26390936D01*
X10568039Y-26390936D02*
X10558516Y-26381412D01*
M02*
