M48
; DRILL file {KiCad 7.0.10+dfsg-1} date Sun 25 Feb 2024 05:42:06 AM EST
; FORMAT={-:-/ absolute / inch / decimal}
; #@! TF.CreationDate,2024-02-25T05:42:06-05:00
; #@! TF.GenerationSoftware,Kicad,Pcbnew,7.0.10+dfsg-1
; #@! TF.FileFunction,Plated,1,4,PTH
FMAT,2
INCH
; #@! TA.AperFunction,Plated,PTH,ComponentDrill
T1C0.0197
; #@! TA.AperFunction,Plated,PTH,ComponentDrill
T2C0.0307
; #@! TA.AperFunction,Plated,PTH,ComponentDrill
T3C0.0394
; #@! TA.AperFunction,Plated,PTH,ComponentDrill
T4C0.0571
; #@! TA.AperFunction,Plated,PTH,ComponentDrill
T5C0.1260
%
G90
G05
T1
X1.8055Y-7.35
X1.8055Y-9.15
X1.8332Y-7.2832
X1.8332Y-7.4168
X1.8332Y-9.0832
X1.8332Y-9.2168
X1.9Y-7.2555
X1.9Y-7.4445
X1.9Y-9.0555
X1.9Y-9.2445
X1.9668Y-7.2832
X1.9668Y-7.4168
X1.9668Y-9.0832
X1.9668Y-9.2168
X1.9945Y-7.35
X1.9945Y-9.15
X7.9055Y-7.35
X7.9055Y-9.15
X7.9055Y-9.95
X7.9332Y-7.2832
X7.9332Y-7.4168
X7.9332Y-9.0832
X7.9332Y-9.2168
X7.9332Y-9.8832
X7.9332Y-10.0168
X8.0Y-7.2555
X8.0Y-7.4445
X8.0Y-9.0555
X8.0Y-9.2445
X8.0Y-9.8555
X8.0Y-10.0445
X8.0668Y-7.2832
X8.0668Y-7.4168
X8.0668Y-9.0832
X8.0668Y-9.2168
X8.0668Y-9.8832
X8.0668Y-10.0168
X8.0945Y-7.35
X8.0945Y-9.15
X8.0945Y-9.95
T2
X3.2893Y-7.2388
X3.2893Y-7.3372
X3.2893Y-8.0388
X3.2893Y-8.1372
X3.2893Y-8.8388
X3.2893Y-8.9372
X3.2893Y-9.6388
X3.2893Y-9.7372
X3.3287Y-7.16
X3.3287Y-7.416
X3.3287Y-7.96
X3.3287Y-8.216
X3.3287Y-8.76
X3.3287Y-9.016
X3.3287Y-9.56
X3.3287Y-9.816
X3.3681Y-7.2388
X3.3681Y-7.3372
X3.3681Y-8.0388
X3.3681Y-8.1372
X3.3681Y-8.8388
X3.3681Y-8.9372
X3.3681Y-9.6388
X3.3681Y-9.7372
X3.4074Y-7.16
X3.4074Y-7.416
X3.4074Y-7.96
X3.4074Y-8.216
X3.4074Y-8.76
X3.4074Y-9.016
X3.4074Y-9.56
X3.4074Y-9.816
X3.4468Y-7.2388
X3.4468Y-7.3372
X3.4468Y-8.0388
X3.4468Y-8.1372
X3.4468Y-8.8388
X3.4468Y-8.9372
X3.4468Y-9.6388
X3.4468Y-9.7372
X3.4862Y-7.16
X3.4862Y-7.416
X3.4862Y-7.96
X3.4862Y-8.216
X3.4862Y-8.76
X3.4862Y-9.016
X3.4862Y-9.56
X3.4862Y-9.816
X3.5256Y-7.2388
X3.5256Y-7.3372
X3.5256Y-8.0388
X3.5256Y-8.1372
X3.5256Y-8.8388
X3.5256Y-8.9372
X3.5256Y-9.6388
X3.5256Y-9.7372
X3.5649Y-7.16
X3.5649Y-7.416
X3.5649Y-7.96
X3.5649Y-8.216
X3.5649Y-8.76
X3.5649Y-9.016
X3.5649Y-9.56
X3.5649Y-9.816
X3.6043Y-7.2388
X3.6043Y-7.3372
X3.6043Y-8.0388
X3.6043Y-8.1372
X3.6043Y-8.8388
X3.6043Y-8.9372
X3.6043Y-9.6388
X3.6043Y-9.7372
X3.6437Y-7.16
X3.6437Y-7.416
X3.6437Y-7.96
X3.6437Y-8.216
X3.6437Y-8.76
X3.6437Y-9.016
X3.6437Y-9.56
X3.6437Y-9.816
X3.683Y-7.2388
X3.683Y-7.3372
X3.683Y-8.0388
X3.683Y-8.1372
X3.683Y-8.8388
X3.683Y-8.9372
X3.683Y-9.6388
X3.683Y-9.7372
X3.8011Y-7.16
X3.8011Y-7.416
X3.8011Y-7.96
X3.8011Y-8.216
X3.8011Y-8.76
X3.8011Y-9.016
X3.8011Y-9.56
X3.8011Y-9.816
X3.8405Y-7.2388
X3.8405Y-7.3372
X3.8405Y-8.0388
X3.8405Y-8.1372
X3.8405Y-8.8388
X3.8405Y-8.9372
X3.8405Y-9.6388
X3.8405Y-9.7372
X3.8799Y-7.16
X3.8799Y-7.416
X3.8799Y-7.96
X3.8799Y-8.216
X3.8799Y-8.76
X3.8799Y-9.016
X3.8799Y-9.56
X3.8799Y-9.816
X3.9193Y-7.2388
X3.9193Y-7.3372
X3.9193Y-8.0388
X3.9193Y-8.1372
X3.9193Y-8.8388
X3.9193Y-8.9372
X3.9193Y-9.6388
X3.9193Y-9.7372
X3.9586Y-7.16
X3.9586Y-7.416
X3.9586Y-7.96
X3.9586Y-8.216
X3.9586Y-8.76
X3.9586Y-9.016
X3.9586Y-9.56
X3.9586Y-9.816
X3.998Y-7.2388
X3.998Y-7.3372
X3.998Y-8.0388
X3.998Y-8.1372
X3.998Y-8.8388
X3.998Y-8.9372
X3.998Y-9.6388
X3.998Y-9.7372
X4.0374Y-7.16
X4.0374Y-7.416
X4.0374Y-7.96
X4.0374Y-8.216
X4.0374Y-8.76
X4.0374Y-9.016
X4.0374Y-9.56
X4.0374Y-9.816
X4.0767Y-7.2388
X4.0767Y-7.3372
X4.0767Y-8.0388
X4.0767Y-8.1372
X4.0767Y-8.8388
X4.0767Y-8.9372
X4.0767Y-9.6388
X4.0767Y-9.7372
X4.1161Y-7.16
X4.1161Y-7.416
X4.1161Y-7.96
X4.1161Y-8.216
X4.1161Y-8.76
X4.1161Y-9.016
X4.1161Y-9.56
X4.1161Y-9.816
X4.1555Y-7.2388
X4.1555Y-7.3372
X4.1555Y-8.0388
X4.1555Y-8.1372
X4.1555Y-8.8388
X4.1555Y-8.9372
X4.1555Y-9.6388
X4.1555Y-9.7372
X4.1949Y-7.16
X4.1949Y-7.416
X4.1949Y-7.96
X4.1949Y-8.216
X4.1949Y-8.76
X4.1949Y-9.016
X4.1949Y-9.56
X4.1949Y-9.816
X4.2342Y-7.2388
X4.2342Y-7.3372
X4.2342Y-8.0388
X4.2342Y-8.1372
X4.2342Y-8.8388
X4.2342Y-8.9372
X4.2342Y-9.6388
X4.2342Y-9.7372
X4.2736Y-7.16
X4.2736Y-7.416
X4.2736Y-7.96
X4.2736Y-8.216
X4.2736Y-8.76
X4.2736Y-9.016
X4.2736Y-9.56
X4.2736Y-9.816
X4.313Y-7.2388
X4.313Y-7.3372
X4.313Y-8.0388
X4.313Y-8.1372
X4.313Y-8.8388
X4.313Y-8.9372
X4.313Y-9.6388
X4.313Y-9.7372
X4.3523Y-7.16
X4.3523Y-7.416
X4.3523Y-7.96
X4.3523Y-8.216
X4.3523Y-8.76
X4.3523Y-9.016
X4.3523Y-9.56
X4.3523Y-9.816
X4.3917Y-7.2388
X4.3917Y-7.3372
X4.3917Y-8.0388
X4.3917Y-8.1372
X4.3917Y-8.8388
X4.3917Y-8.9372
X4.3917Y-9.6388
X4.3917Y-9.7372
X4.4311Y-7.16
X4.4311Y-7.416
X4.4311Y-7.96
X4.4311Y-8.216
X4.4311Y-8.76
X4.4311Y-9.016
X4.4311Y-9.56
X4.4311Y-9.816
X4.4704Y-7.2388
X4.4704Y-7.3372
X4.4704Y-8.0388
X4.4704Y-8.1372
X4.4704Y-8.8388
X4.4704Y-8.9372
X4.4704Y-9.6388
X4.4704Y-9.7372
X4.5098Y-7.16
X4.5098Y-7.416
X4.5098Y-7.96
X4.5098Y-8.216
X4.5098Y-8.76
X4.5098Y-9.016
X4.5098Y-9.56
X4.5098Y-9.816
X4.5492Y-7.2388
X4.5492Y-7.3372
X4.5492Y-8.0388
X4.5492Y-8.1372
X4.5492Y-8.8388
X4.5492Y-8.9372
X4.5492Y-9.6388
X4.5492Y-9.7372
X4.5886Y-7.16
X4.5886Y-7.416
X4.5886Y-7.96
X4.5886Y-8.216
X4.5886Y-8.76
X4.5886Y-9.016
X4.5886Y-9.56
X4.5886Y-9.816
X4.6279Y-7.2388
X4.6279Y-7.3372
X4.6279Y-8.0388
X4.6279Y-8.1372
X4.6279Y-8.8388
X4.6279Y-8.9372
X4.6279Y-9.6388
X4.6279Y-9.7372
X4.6673Y-7.16
X4.6673Y-7.416
X4.6673Y-7.96
X4.6673Y-8.216
X4.6673Y-8.76
X4.6673Y-9.016
X4.6673Y-9.56
X4.6673Y-9.816
X4.7067Y-7.2388
X4.7067Y-7.3372
X4.7067Y-8.0388
X4.7067Y-8.1372
X4.7067Y-8.8388
X4.7067Y-8.9372
X4.7067Y-9.6388
X4.7067Y-9.7372
X4.746Y-7.16
X4.746Y-7.416
X4.746Y-7.96
X4.746Y-8.216
X4.746Y-8.76
X4.746Y-9.016
X4.746Y-9.56
X4.746Y-9.816
X4.7854Y-7.2388
X4.7854Y-7.3372
X4.7854Y-8.0388
X4.7854Y-8.1372
X4.7854Y-8.8388
X4.7854Y-8.9372
X4.7854Y-9.6388
X4.7854Y-9.7372
X4.8248Y-7.16
X4.8248Y-7.416
X4.8248Y-7.96
X4.8248Y-8.216
X4.8248Y-8.76
X4.8248Y-9.016
X4.8248Y-9.56
X4.8248Y-9.816
X4.8641Y-7.2388
X4.8641Y-7.3372
X4.8641Y-8.0388
X4.8641Y-8.1372
X4.8641Y-8.8388
X4.8641Y-8.9372
X4.8641Y-9.6388
X4.8641Y-9.7372
X4.9035Y-7.16
X4.9035Y-7.416
X4.9035Y-7.96
X4.9035Y-8.216
X4.9035Y-8.76
X4.9035Y-9.016
X4.9035Y-9.56
X4.9035Y-9.816
X4.9429Y-7.2388
X4.9429Y-7.3372
X4.9429Y-8.0388
X4.9429Y-8.1372
X4.9429Y-8.8388
X4.9429Y-8.9372
X4.9429Y-9.6388
X4.9429Y-9.7372
X4.9823Y-7.16
X4.9823Y-7.416
X4.9823Y-7.96
X4.9823Y-8.216
X4.9823Y-8.76
X4.9823Y-9.016
X4.9823Y-9.56
X4.9823Y-9.816
X5.0216Y-7.2388
X5.0216Y-7.3372
X5.0216Y-8.0388
X5.0216Y-8.1372
X5.0216Y-8.8388
X5.0216Y-8.9372
X5.0216Y-9.6388
X5.0216Y-9.7372
X5.061Y-7.16
X5.061Y-7.416
X5.061Y-7.96
X5.061Y-8.216
X5.061Y-8.76
X5.061Y-9.016
X5.061Y-9.56
X5.061Y-9.816
X5.1004Y-7.2388
X5.1004Y-7.3372
X5.1004Y-8.0388
X5.1004Y-8.1372
X5.1004Y-8.8388
X5.1004Y-8.9372
X5.1004Y-9.6388
X5.1004Y-9.7372
X5.1397Y-7.16
X5.1397Y-7.416
X5.1397Y-7.96
X5.1397Y-8.216
X5.1397Y-8.76
X5.1397Y-9.016
X5.1397Y-9.56
X5.1397Y-9.816
X5.1791Y-7.2388
X5.1791Y-7.3372
X5.1791Y-8.0388
X5.1791Y-8.1372
X5.1791Y-8.8388
X5.1791Y-8.9372
X5.1791Y-9.6388
X5.1791Y-9.7372
X5.2185Y-7.16
X5.2185Y-7.416
X5.2185Y-7.96
X5.2185Y-8.216
X5.2185Y-8.76
X5.2185Y-9.016
X5.2185Y-9.56
X5.2185Y-9.816
X5.2578Y-7.2388
X5.2578Y-7.3372
X5.2578Y-8.0388
X5.2578Y-8.1372
X5.2578Y-8.8388
X5.2578Y-8.9372
X5.2578Y-9.6388
X5.2578Y-9.7372
X5.2972Y-7.16
X5.2972Y-7.416
X5.2972Y-7.96
X5.2972Y-8.216
X5.2972Y-8.76
X5.2972Y-9.016
X5.2972Y-9.56
X5.2972Y-9.816
X5.3366Y-7.2388
X5.3366Y-7.3372
X5.3366Y-8.0388
X5.3366Y-8.1372
X5.3366Y-8.8388
X5.3366Y-8.9372
X5.3366Y-9.6388
X5.3366Y-9.7372
X5.376Y-7.16
X5.376Y-7.416
X5.376Y-7.96
X5.376Y-8.216
X5.376Y-8.76
X5.376Y-9.016
X5.376Y-9.56
X5.376Y-9.816
X5.4153Y-7.2388
X5.4153Y-7.3372
X5.4153Y-8.0388
X5.4153Y-8.1372
X5.4153Y-8.8388
X5.4153Y-8.9372
X5.4153Y-9.6388
X5.4153Y-9.7372
X5.4547Y-7.16
X5.4547Y-7.416
X5.4547Y-7.96
X5.4547Y-8.216
X5.4547Y-8.76
X5.4547Y-9.016
X5.4547Y-9.56
X5.4547Y-9.816
X5.4941Y-7.2388
X5.4941Y-7.3372
X5.4941Y-8.0388
X5.4941Y-8.1372
X5.4941Y-8.8388
X5.4941Y-8.9372
X5.4941Y-9.6388
X5.4941Y-9.7372
X5.5334Y-7.16
X5.5334Y-7.416
X5.5334Y-7.96
X5.5334Y-8.216
X5.5334Y-8.76
X5.5334Y-9.016
X5.5334Y-9.56
X5.5334Y-9.816
X5.5728Y-7.2388
X5.5728Y-7.3372
X5.5728Y-8.0388
X5.5728Y-8.1372
X5.5728Y-8.8388
X5.5728Y-8.9372
X5.5728Y-9.6388
X5.5728Y-9.7372
X5.6122Y-7.16
X5.6122Y-7.416
X5.6122Y-7.96
X5.6122Y-8.216
X5.6122Y-8.76
X5.6122Y-9.016
X5.6122Y-9.56
X5.6122Y-9.816
X5.6515Y-7.2388
X5.6515Y-7.3372
X5.6515Y-8.0388
X5.6515Y-8.1372
X5.6515Y-8.8388
X5.6515Y-8.9372
X5.6515Y-9.6388
X5.6515Y-9.7372
X5.6909Y-7.16
X5.6909Y-7.416
X5.6909Y-7.96
X5.6909Y-8.216
X5.6909Y-8.76
X5.6909Y-9.016
X5.6909Y-9.56
X5.6909Y-9.816
X5.7303Y-7.2388
X5.7303Y-7.3372
X5.7303Y-8.0388
X5.7303Y-8.1372
X5.7303Y-8.8388
X5.7303Y-8.9372
X5.7303Y-9.6388
X5.7303Y-9.7372
X5.7697Y-7.16
X5.7697Y-7.416
X5.7697Y-7.96
X5.7697Y-8.216
X5.7697Y-8.76
X5.7697Y-9.016
X5.7697Y-9.56
X5.7697Y-9.816
X5.809Y-7.2388
X5.809Y-7.3372
X5.809Y-8.0388
X5.809Y-8.1372
X5.809Y-8.8388
X5.809Y-8.9372
X5.809Y-9.6388
X5.809Y-9.7372
X5.8484Y-7.16
X5.8484Y-7.416
X5.8484Y-7.96
X5.8484Y-8.216
X5.8484Y-8.76
X5.8484Y-9.016
X5.8484Y-9.56
X5.8484Y-9.816
X5.8878Y-7.2388
X5.8878Y-7.3372
X5.8878Y-8.0388
X5.8878Y-8.1372
X5.8878Y-8.8388
X5.8878Y-8.9372
X5.8878Y-9.6388
X5.8878Y-9.7372
X5.9271Y-7.16
X5.9271Y-7.416
X5.9271Y-7.96
X5.9271Y-8.216
X5.9271Y-8.76
X5.9271Y-9.016
X5.9271Y-9.56
X5.9271Y-9.816
X5.9665Y-7.2388
X5.9665Y-7.3372
X5.9665Y-8.0388
X5.9665Y-8.1372
X5.9665Y-8.8388
X5.9665Y-8.9372
X5.9665Y-9.6388
X5.9665Y-9.7372
X6.0059Y-7.16
X6.0059Y-7.416
X6.0059Y-7.96
X6.0059Y-8.216
X6.0059Y-8.76
X6.0059Y-9.016
X6.0059Y-9.56
X6.0059Y-9.816
X6.0452Y-7.2388
X6.0452Y-7.3372
X6.0452Y-8.0388
X6.0452Y-8.1372
X6.0452Y-8.8388
X6.0452Y-8.9372
X6.0452Y-9.6388
X6.0452Y-9.7372
X6.0846Y-7.16
X6.0846Y-7.416
X6.0846Y-7.96
X6.0846Y-8.216
X6.0846Y-8.76
X6.0846Y-9.016
X6.0846Y-9.56
X6.0846Y-9.816
X6.124Y-7.2388
X6.124Y-7.3372
X6.124Y-8.0388
X6.124Y-8.1372
X6.124Y-8.8388
X6.124Y-8.9372
X6.124Y-9.6388
X6.124Y-9.7372
X6.1634Y-7.16
X6.1634Y-7.416
X6.1634Y-7.96
X6.1634Y-8.216
X6.1634Y-8.76
X6.1634Y-9.016
X6.1634Y-9.56
X6.1634Y-9.816
X6.2027Y-7.2388
X6.2027Y-7.3372
X6.2027Y-8.0388
X6.2027Y-8.1372
X6.2027Y-8.8388
X6.2027Y-8.9372
X6.2027Y-9.6388
X6.2027Y-9.7372
X6.2421Y-7.16
X6.2421Y-7.416
X6.2421Y-7.96
X6.2421Y-8.216
X6.2421Y-8.76
X6.2421Y-9.016
X6.2421Y-9.56
X6.2421Y-9.816
X6.2815Y-7.2388
X6.2815Y-7.3372
X6.2815Y-8.0388
X6.2815Y-8.1372
X6.2815Y-8.8388
X6.2815Y-8.9372
X6.2815Y-9.6388
X6.2815Y-9.7372
X6.3208Y-7.16
X6.3208Y-7.416
X6.3208Y-7.96
X6.3208Y-8.216
X6.3208Y-8.76
X6.3208Y-9.016
X6.3208Y-9.56
X6.3208Y-9.816
X6.3602Y-7.2388
X6.3602Y-7.3372
X6.3602Y-8.0388
X6.3602Y-8.1372
X6.3602Y-8.8388
X6.3602Y-8.9372
X6.3602Y-9.6388
X6.3602Y-9.7372
X6.3996Y-7.16
X6.3996Y-7.416
X6.3996Y-7.96
X6.3996Y-8.216
X6.3996Y-8.76
X6.3996Y-9.016
X6.3996Y-9.56
X6.3996Y-9.816
X6.4389Y-7.2388
X6.4389Y-7.3372
X6.4389Y-8.0388
X6.4389Y-8.1372
X6.4389Y-8.8388
X6.4389Y-8.9372
X6.4389Y-9.6388
X6.4389Y-9.7372
X6.4783Y-7.16
X6.4783Y-7.416
X6.4783Y-7.96
X6.4783Y-8.216
X6.4783Y-8.76
X6.4783Y-9.016
X6.4783Y-9.56
X6.4783Y-9.816
X6.5177Y-7.2388
X6.5177Y-7.3372
X6.5177Y-8.0388
X6.5177Y-8.1372
X6.5177Y-8.8388
X6.5177Y-8.9372
X6.5177Y-9.6388
X6.5177Y-9.7372
X6.5571Y-7.16
X6.5571Y-7.416
X6.5571Y-7.96
X6.5571Y-8.216
X6.5571Y-8.76
X6.5571Y-9.016
X6.5571Y-9.56
X6.5571Y-9.816
T3
X3.2024Y-6.3984
X3.2024Y-6.4984
X3.3024Y-6.3984
X3.3024Y-6.4984
X3.4024Y-6.3984
X3.4024Y-6.4984
X3.5024Y-6.3984
X3.5024Y-6.4984
X3.6024Y-6.3984
X3.6024Y-6.4984
X3.7024Y-6.3984
X3.7024Y-6.4984
X3.8024Y-6.3984
X3.8024Y-6.4984
X3.9024Y-6.3984
X3.9024Y-6.4984
X4.0024Y-6.3984
X4.0024Y-6.4984
X4.1024Y-6.3984
X4.1024Y-6.4984
X4.2024Y-6.3984
X4.2024Y-6.4984
X4.3024Y-6.3984
X4.3024Y-6.4984
X4.4024Y-6.3984
X4.4024Y-6.4984
X4.5024Y-6.3984
X4.5024Y-6.4984
X4.6024Y-6.3984
X4.6024Y-6.4984
X4.7024Y-6.3984
X4.7024Y-6.4984
X4.8024Y-6.3984
X4.8024Y-6.4984
X4.9024Y-6.3984
X4.9024Y-6.4984
X5.0024Y-6.3984
X5.0024Y-6.4984
X5.1024Y-6.3984
X5.1024Y-6.4984
X5.2024Y-6.3984
X5.2024Y-6.4984
X5.3024Y-6.3984
X5.3024Y-6.4984
X5.4024Y-6.3984
X5.4024Y-6.4984
X5.5024Y-6.3984
X5.5024Y-6.4984
X5.6024Y-6.3984
X5.6024Y-6.4984
X5.7024Y-6.3984
X5.7024Y-6.4984
X5.8024Y-6.3984
X5.8024Y-6.4984
X5.9024Y-6.3984
X5.9024Y-6.4984
X6.0024Y-6.3984
X6.0024Y-6.4984
X6.1024Y-6.3984
X6.1024Y-6.4984
X6.2024Y-6.3984
X6.2024Y-6.4984
X6.3024Y-6.3984
X6.3024Y-6.4984
X6.4024Y-6.3984
X6.4024Y-6.4984
X6.5024Y-6.3984
X6.5024Y-6.4984
X6.6024Y-6.3984
X6.6024Y-6.4984
X6.7024Y-6.3984
X6.7024Y-6.4984
X6.8024Y-6.3984
X6.8024Y-6.4984
X6.9024Y-6.3984
X6.9024Y-6.4984
X7.0024Y-6.3984
X7.0024Y-6.4984
X7.1024Y-6.3984
X7.1024Y-6.4984
X7.3024Y-6.3984
X7.3024Y-6.4984
X7.4024Y-6.3984
X7.4024Y-6.4984
X7.5024Y-6.3984
X7.5024Y-6.4984
X7.6024Y-6.3984
X7.6024Y-6.4984
X7.7024Y-6.3984
X7.7024Y-6.4984
X7.8024Y-6.3984
X7.8024Y-6.4984
X7.9024Y-6.3984
X7.9024Y-6.4984
X8.0024Y-6.3984
X8.0024Y-6.4984
X8.1024Y-6.3984
X8.1024Y-6.4984
X8.2024Y-6.3984
X8.2024Y-6.4984
X8.3024Y-6.3984
X8.3024Y-6.4984
X8.4024Y-6.3984
X8.4024Y-6.4984
X8.5024Y-6.3984
X8.5024Y-6.4984
X8.6024Y-6.3984
X8.6024Y-6.4984
X8.7024Y-6.3984
X8.7024Y-6.4984
X8.8024Y-6.3984
X8.8024Y-6.4984
X8.9024Y-6.3984
X8.9024Y-6.4984
X8.9024Y-7.2984
X9.0024Y-6.3984
X9.0024Y-6.4984
X9.0024Y-7.2984
T4
X8.7894Y-8.1831
X8.7894Y-8.3484
X8.7894Y-8.5138
X8.7894Y-8.6791
X8.7894Y-8.8445
X8.7894Y-9.0098
X8.7894Y-9.1752
X8.7894Y-9.3406
X8.7894Y-9.5059
X8.7894Y-9.6713
X8.7894Y-9.8366
X8.7894Y-10.002
X9.0059Y-8.1831
X9.0059Y-8.3484
X9.0059Y-8.5138
X9.0059Y-8.6791
X9.0059Y-8.8445
X9.0059Y-9.0098
X9.0059Y-9.1752
X9.0059Y-9.3406
X9.0059Y-9.5059
X9.0059Y-9.6713
X9.0059Y-9.8366
X9.0059Y-10.002
T5
X1.9Y-7.35
X1.9Y-9.15
X8.0Y-7.35
X8.0Y-9.15
X8.0Y-9.95
M30
