%TF.GenerationSoftware,KiCad,Pcbnew,7.0.10+dfsg-1*%
%TF.CreationDate,2024-02-25T05:42:20-05:00*%
%TF.ProjectId,BB816-MATX-minimal,42423831-362d-44d4-9154-582d6d696e69,rev?*%
%TF.SameCoordinates,Original*%
%TF.FileFunction,Legend,Top*%
%TF.FilePolarity,Positive*%
%FSLAX46Y46*%
G04 Gerber Fmt 4.6, Leading zero omitted, Abs format (unit mm)*
G04 Created by KiCad (PCBNEW 7.0.10+dfsg-1) date 2024-02-25 05:42:20*
%MOMM*%
%LPD*%
G01*
G04 APERTURE LIST*
%ADD10C,0.150000*%
%ADD11C,0.254000*%
%ADD12C,0.200000*%
%ADD13C,0.120000*%
G04 APERTURE END LIST*
D10*
X179085057Y-254177030D02*
X176085057Y-254177030D01*
X176085057Y-254177030D02*
X179085057Y-252462744D01*
X179085057Y-252462744D02*
X176085057Y-252462744D01*
X176085057Y-250462744D02*
X176085057Y-249891316D01*
X176085057Y-249891316D02*
X176227914Y-249605601D01*
X176227914Y-249605601D02*
X176513628Y-249319887D01*
X176513628Y-249319887D02*
X177085057Y-249177030D01*
X177085057Y-249177030D02*
X178085057Y-249177030D01*
X178085057Y-249177030D02*
X178656485Y-249319887D01*
X178656485Y-249319887D02*
X178942200Y-249605601D01*
X178942200Y-249605601D02*
X179085057Y-249891316D01*
X179085057Y-249891316D02*
X179085057Y-250462744D01*
X179085057Y-250462744D02*
X178942200Y-250748459D01*
X178942200Y-250748459D02*
X178656485Y-251034173D01*
X178656485Y-251034173D02*
X178085057Y-251177030D01*
X178085057Y-251177030D02*
X177085057Y-251177030D01*
X177085057Y-251177030D02*
X176513628Y-251034173D01*
X176513628Y-251034173D02*
X176227914Y-250748459D01*
X176227914Y-250748459D02*
X176085057Y-250462744D01*
X176085057Y-248319887D02*
X176085057Y-246605602D01*
X179085057Y-247462744D02*
X176085057Y-247462744D01*
X177513628Y-242319888D02*
X177513628Y-243319888D01*
X179085057Y-243319888D02*
X176085057Y-243319888D01*
X176085057Y-243319888D02*
X176085057Y-241891316D01*
X176085057Y-240177030D02*
X176085057Y-239605602D01*
X176085057Y-239605602D02*
X176227914Y-239319887D01*
X176227914Y-239319887D02*
X176513628Y-239034173D01*
X176513628Y-239034173D02*
X177085057Y-238891316D01*
X177085057Y-238891316D02*
X178085057Y-238891316D01*
X178085057Y-238891316D02*
X178656485Y-239034173D01*
X178656485Y-239034173D02*
X178942200Y-239319887D01*
X178942200Y-239319887D02*
X179085057Y-239605602D01*
X179085057Y-239605602D02*
X179085057Y-240177030D01*
X179085057Y-240177030D02*
X178942200Y-240462745D01*
X178942200Y-240462745D02*
X178656485Y-240748459D01*
X178656485Y-240748459D02*
X178085057Y-240891316D01*
X178085057Y-240891316D02*
X177085057Y-240891316D01*
X177085057Y-240891316D02*
X176513628Y-240748459D01*
X176513628Y-240748459D02*
X176227914Y-240462745D01*
X176227914Y-240462745D02*
X176085057Y-240177030D01*
X179085057Y-235891316D02*
X177656485Y-236891316D01*
X179085057Y-237605602D02*
X176085057Y-237605602D01*
X176085057Y-237605602D02*
X176085057Y-236462745D01*
X176085057Y-236462745D02*
X176227914Y-236177030D01*
X176227914Y-236177030D02*
X176370771Y-236034173D01*
X176370771Y-236034173D02*
X176656485Y-235891316D01*
X176656485Y-235891316D02*
X177085057Y-235891316D01*
X177085057Y-235891316D02*
X177370771Y-236034173D01*
X177370771Y-236034173D02*
X177513628Y-236177030D01*
X177513628Y-236177030D02*
X177656485Y-236462745D01*
X177656485Y-236462745D02*
X177656485Y-237605602D01*
X179085057Y-232319888D02*
X176085057Y-232319888D01*
X176085057Y-232319888D02*
X176085057Y-231177031D01*
X176085057Y-231177031D02*
X176227914Y-230891316D01*
X176227914Y-230891316D02*
X176370771Y-230748459D01*
X176370771Y-230748459D02*
X176656485Y-230605602D01*
X176656485Y-230605602D02*
X177085057Y-230605602D01*
X177085057Y-230605602D02*
X177370771Y-230748459D01*
X177370771Y-230748459D02*
X177513628Y-230891316D01*
X177513628Y-230891316D02*
X177656485Y-231177031D01*
X177656485Y-231177031D02*
X177656485Y-232319888D01*
X178799342Y-227605602D02*
X178942200Y-227748459D01*
X178942200Y-227748459D02*
X179085057Y-228177031D01*
X179085057Y-228177031D02*
X179085057Y-228462745D01*
X179085057Y-228462745D02*
X178942200Y-228891316D01*
X178942200Y-228891316D02*
X178656485Y-229177031D01*
X178656485Y-229177031D02*
X178370771Y-229319888D01*
X178370771Y-229319888D02*
X177799342Y-229462745D01*
X177799342Y-229462745D02*
X177370771Y-229462745D01*
X177370771Y-229462745D02*
X176799342Y-229319888D01*
X176799342Y-229319888D02*
X176513628Y-229177031D01*
X176513628Y-229177031D02*
X176227914Y-228891316D01*
X176227914Y-228891316D02*
X176085057Y-228462745D01*
X176085057Y-228462745D02*
X176085057Y-228177031D01*
X176085057Y-228177031D02*
X176227914Y-227748459D01*
X176227914Y-227748459D02*
X176370771Y-227605602D01*
X179085057Y-226319888D02*
X176085057Y-226319888D01*
X177513628Y-222605603D02*
X177513628Y-221605603D01*
X179085057Y-221177031D02*
X179085057Y-222605603D01*
X179085057Y-222605603D02*
X176085057Y-222605603D01*
X176085057Y-222605603D02*
X176085057Y-221177031D01*
X179085057Y-220177031D02*
X177085057Y-218605603D01*
X177085057Y-220177031D02*
X179085057Y-218605603D01*
X177085057Y-217462746D02*
X180085057Y-217462746D01*
X177227914Y-217462746D02*
X177085057Y-217177032D01*
X177085057Y-217177032D02*
X177085057Y-216605603D01*
X177085057Y-216605603D02*
X177227914Y-216319889D01*
X177227914Y-216319889D02*
X177370771Y-216177032D01*
X177370771Y-216177032D02*
X177656485Y-216034174D01*
X177656485Y-216034174D02*
X178513628Y-216034174D01*
X178513628Y-216034174D02*
X178799342Y-216177032D01*
X178799342Y-216177032D02*
X178942200Y-216319889D01*
X178942200Y-216319889D02*
X179085057Y-216605603D01*
X179085057Y-216605603D02*
X179085057Y-217177032D01*
X179085057Y-217177032D02*
X178942200Y-217462746D01*
X179085057Y-214748460D02*
X177085057Y-214748460D01*
X177656485Y-214748460D02*
X177370771Y-214605603D01*
X177370771Y-214605603D02*
X177227914Y-214462746D01*
X177227914Y-214462746D02*
X177085057Y-214177031D01*
X177085057Y-214177031D02*
X177085057Y-213891317D01*
X178942200Y-211748460D02*
X179085057Y-212034174D01*
X179085057Y-212034174D02*
X179085057Y-212605603D01*
X179085057Y-212605603D02*
X178942200Y-212891317D01*
X178942200Y-212891317D02*
X178656485Y-213034174D01*
X178656485Y-213034174D02*
X177513628Y-213034174D01*
X177513628Y-213034174D02*
X177227914Y-212891317D01*
X177227914Y-212891317D02*
X177085057Y-212605603D01*
X177085057Y-212605603D02*
X177085057Y-212034174D01*
X177085057Y-212034174D02*
X177227914Y-211748460D01*
X177227914Y-211748460D02*
X177513628Y-211605603D01*
X177513628Y-211605603D02*
X177799342Y-211605603D01*
X177799342Y-211605603D02*
X178085057Y-213034174D01*
X178942200Y-210462745D02*
X179085057Y-210177031D01*
X179085057Y-210177031D02*
X179085057Y-209605602D01*
X179085057Y-209605602D02*
X178942200Y-209319888D01*
X178942200Y-209319888D02*
X178656485Y-209177031D01*
X178656485Y-209177031D02*
X178513628Y-209177031D01*
X178513628Y-209177031D02*
X178227914Y-209319888D01*
X178227914Y-209319888D02*
X178085057Y-209605602D01*
X178085057Y-209605602D02*
X178085057Y-210034174D01*
X178085057Y-210034174D02*
X177942200Y-210319888D01*
X177942200Y-210319888D02*
X177656485Y-210462745D01*
X177656485Y-210462745D02*
X177513628Y-210462745D01*
X177513628Y-210462745D02*
X177227914Y-210319888D01*
X177227914Y-210319888D02*
X177085057Y-210034174D01*
X177085057Y-210034174D02*
X177085057Y-209605602D01*
X177085057Y-209605602D02*
X177227914Y-209319888D01*
X178942200Y-208034174D02*
X179085057Y-207748460D01*
X179085057Y-207748460D02*
X179085057Y-207177031D01*
X179085057Y-207177031D02*
X178942200Y-206891317D01*
X178942200Y-206891317D02*
X178656485Y-206748460D01*
X178656485Y-206748460D02*
X178513628Y-206748460D01*
X178513628Y-206748460D02*
X178227914Y-206891317D01*
X178227914Y-206891317D02*
X178085057Y-207177031D01*
X178085057Y-207177031D02*
X178085057Y-207605603D01*
X178085057Y-207605603D02*
X177942200Y-207891317D01*
X177942200Y-207891317D02*
X177656485Y-208034174D01*
X177656485Y-208034174D02*
X177513628Y-208034174D01*
X177513628Y-208034174D02*
X177227914Y-207891317D01*
X177227914Y-207891317D02*
X177085057Y-207605603D01*
X177085057Y-207605603D02*
X177085057Y-207177031D01*
X177085057Y-207177031D02*
X177227914Y-206891317D01*
X177513628Y-202177032D02*
X177656485Y-201748460D01*
X177656485Y-201748460D02*
X177799342Y-201605603D01*
X177799342Y-201605603D02*
X178085057Y-201462746D01*
X178085057Y-201462746D02*
X178513628Y-201462746D01*
X178513628Y-201462746D02*
X178799342Y-201605603D01*
X178799342Y-201605603D02*
X178942200Y-201748460D01*
X178942200Y-201748460D02*
X179085057Y-202034175D01*
X179085057Y-202034175D02*
X179085057Y-203177032D01*
X179085057Y-203177032D02*
X176085057Y-203177032D01*
X176085057Y-203177032D02*
X176085057Y-202177032D01*
X176085057Y-202177032D02*
X176227914Y-201891318D01*
X176227914Y-201891318D02*
X176370771Y-201748460D01*
X176370771Y-201748460D02*
X176656485Y-201605603D01*
X176656485Y-201605603D02*
X176942200Y-201605603D01*
X176942200Y-201605603D02*
X177227914Y-201748460D01*
X177227914Y-201748460D02*
X177370771Y-201891318D01*
X177370771Y-201891318D02*
X177513628Y-202177032D01*
X177513628Y-202177032D02*
X177513628Y-203177032D01*
X177085057Y-198891318D02*
X179085057Y-198891318D01*
X177085057Y-200177032D02*
X178656485Y-200177032D01*
X178656485Y-200177032D02*
X178942200Y-200034175D01*
X178942200Y-200034175D02*
X179085057Y-199748460D01*
X179085057Y-199748460D02*
X179085057Y-199319889D01*
X179085057Y-199319889D02*
X178942200Y-199034175D01*
X178942200Y-199034175D02*
X178799342Y-198891318D01*
X178942200Y-197605603D02*
X179085057Y-197319889D01*
X179085057Y-197319889D02*
X179085057Y-196748460D01*
X179085057Y-196748460D02*
X178942200Y-196462746D01*
X178942200Y-196462746D02*
X178656485Y-196319889D01*
X178656485Y-196319889D02*
X178513628Y-196319889D01*
X178513628Y-196319889D02*
X178227914Y-196462746D01*
X178227914Y-196462746D02*
X178085057Y-196748460D01*
X178085057Y-196748460D02*
X178085057Y-197177032D01*
X178085057Y-197177032D02*
X177942200Y-197462746D01*
X177942200Y-197462746D02*
X177656485Y-197605603D01*
X177656485Y-197605603D02*
X177513628Y-197605603D01*
X177513628Y-197605603D02*
X177227914Y-197462746D01*
X177227914Y-197462746D02*
X177085057Y-197177032D01*
X177085057Y-197177032D02*
X177085057Y-196748460D01*
X177085057Y-196748460D02*
X177227914Y-196462746D01*
X179085057Y-192748461D02*
X176085057Y-192748461D01*
X176085057Y-192748461D02*
X176085057Y-192034175D01*
X176085057Y-192034175D02*
X176227914Y-191605604D01*
X176227914Y-191605604D02*
X176513628Y-191319889D01*
X176513628Y-191319889D02*
X176799342Y-191177032D01*
X176799342Y-191177032D02*
X177370771Y-191034175D01*
X177370771Y-191034175D02*
X177799342Y-191034175D01*
X177799342Y-191034175D02*
X178370771Y-191177032D01*
X178370771Y-191177032D02*
X178656485Y-191319889D01*
X178656485Y-191319889D02*
X178942200Y-191605604D01*
X178942200Y-191605604D02*
X179085057Y-192034175D01*
X179085057Y-192034175D02*
X179085057Y-192748461D01*
X178942200Y-188605604D02*
X179085057Y-188891318D01*
X179085057Y-188891318D02*
X179085057Y-189462747D01*
X179085057Y-189462747D02*
X178942200Y-189748461D01*
X178942200Y-189748461D02*
X178656485Y-189891318D01*
X178656485Y-189891318D02*
X177513628Y-189891318D01*
X177513628Y-189891318D02*
X177227914Y-189748461D01*
X177227914Y-189748461D02*
X177085057Y-189462747D01*
X177085057Y-189462747D02*
X177085057Y-188891318D01*
X177085057Y-188891318D02*
X177227914Y-188605604D01*
X177227914Y-188605604D02*
X177513628Y-188462747D01*
X177513628Y-188462747D02*
X177799342Y-188462747D01*
X177799342Y-188462747D02*
X178085057Y-189891318D01*
X177085057Y-187462746D02*
X179085057Y-186748460D01*
X179085057Y-186748460D02*
X177085057Y-186034175D01*
X179085057Y-184891318D02*
X177085057Y-184891318D01*
X176085057Y-184891318D02*
X176227914Y-185034175D01*
X176227914Y-185034175D02*
X176370771Y-184891318D01*
X176370771Y-184891318D02*
X176227914Y-184748461D01*
X176227914Y-184748461D02*
X176085057Y-184891318D01*
X176085057Y-184891318D02*
X176370771Y-184891318D01*
X178942200Y-182177033D02*
X179085057Y-182462747D01*
X179085057Y-182462747D02*
X179085057Y-183034175D01*
X179085057Y-183034175D02*
X178942200Y-183319890D01*
X178942200Y-183319890D02*
X178799342Y-183462747D01*
X178799342Y-183462747D02*
X178513628Y-183605604D01*
X178513628Y-183605604D02*
X177656485Y-183605604D01*
X177656485Y-183605604D02*
X177370771Y-183462747D01*
X177370771Y-183462747D02*
X177227914Y-183319890D01*
X177227914Y-183319890D02*
X177085057Y-183034175D01*
X177085057Y-183034175D02*
X177085057Y-182462747D01*
X177085057Y-182462747D02*
X177227914Y-182177033D01*
X178942200Y-179748461D02*
X179085057Y-180034175D01*
X179085057Y-180034175D02*
X179085057Y-180605604D01*
X179085057Y-180605604D02*
X178942200Y-180891318D01*
X178942200Y-180891318D02*
X178656485Y-181034175D01*
X178656485Y-181034175D02*
X177513628Y-181034175D01*
X177513628Y-181034175D02*
X177227914Y-180891318D01*
X177227914Y-180891318D02*
X177085057Y-180605604D01*
X177085057Y-180605604D02*
X177085057Y-180034175D01*
X177085057Y-180034175D02*
X177227914Y-179748461D01*
X177227914Y-179748461D02*
X177513628Y-179605604D01*
X177513628Y-179605604D02*
X177799342Y-179605604D01*
X177799342Y-179605604D02*
X178085057Y-181034175D01*
X178942200Y-178462746D02*
X179085057Y-178177032D01*
X179085057Y-178177032D02*
X179085057Y-177605603D01*
X179085057Y-177605603D02*
X178942200Y-177319889D01*
X178942200Y-177319889D02*
X178656485Y-177177032D01*
X178656485Y-177177032D02*
X178513628Y-177177032D01*
X178513628Y-177177032D02*
X178227914Y-177319889D01*
X178227914Y-177319889D02*
X178085057Y-177605603D01*
X178085057Y-177605603D02*
X178085057Y-178034175D01*
X178085057Y-178034175D02*
X177942200Y-178319889D01*
X177942200Y-178319889D02*
X177656485Y-178462746D01*
X177656485Y-178462746D02*
X177513628Y-178462746D01*
X177513628Y-178462746D02*
X177227914Y-178319889D01*
X177227914Y-178319889D02*
X177085057Y-178034175D01*
X177085057Y-178034175D02*
X177085057Y-177605603D01*
X177085057Y-177605603D02*
X177227914Y-177319889D01*
D11*
X218892318Y-256121332D02*
X219799461Y-256121332D01*
X219799461Y-256121332D02*
X219980889Y-256181809D01*
X219980889Y-256181809D02*
X220101842Y-256302761D01*
X220101842Y-256302761D02*
X220162318Y-256484190D01*
X220162318Y-256484190D02*
X220162318Y-256605142D01*
X218892318Y-254911809D02*
X218892318Y-255516571D01*
X218892318Y-255516571D02*
X219497080Y-255577047D01*
X219497080Y-255577047D02*
X219436603Y-255516571D01*
X219436603Y-255516571D02*
X219376127Y-255395618D01*
X219376127Y-255395618D02*
X219376127Y-255093237D01*
X219376127Y-255093237D02*
X219436603Y-254972285D01*
X219436603Y-254972285D02*
X219497080Y-254911809D01*
X219497080Y-254911809D02*
X219618032Y-254851332D01*
X219618032Y-254851332D02*
X219920413Y-254851332D01*
X219920413Y-254851332D02*
X220041365Y-254911809D01*
X220041365Y-254911809D02*
X220101842Y-254972285D01*
X220101842Y-254972285D02*
X220162318Y-255093237D01*
X220162318Y-255093237D02*
X220162318Y-255395618D01*
X220162318Y-255395618D02*
X220101842Y-255516571D01*
X220101842Y-255516571D02*
X220041365Y-255577047D01*
D10*
X47498095Y-228664819D02*
X47498095Y-227664819D01*
X47498095Y-228141009D02*
X48069523Y-228141009D01*
X48069523Y-228664819D02*
X48069523Y-227664819D01*
X49069523Y-228664819D02*
X48498095Y-228664819D01*
X48783809Y-228664819D02*
X48783809Y-227664819D01*
X48783809Y-227664819D02*
X48688571Y-227807676D01*
X48688571Y-227807676D02*
X48593333Y-227902914D01*
X48593333Y-227902914D02*
X48498095Y-227950533D01*
X47498095Y-182944819D02*
X47498095Y-181944819D01*
X47498095Y-182421009D02*
X48069523Y-182421009D01*
X48069523Y-182944819D02*
X48069523Y-181944819D01*
X48498095Y-182040057D02*
X48545714Y-181992438D01*
X48545714Y-181992438D02*
X48640952Y-181944819D01*
X48640952Y-181944819D02*
X48879047Y-181944819D01*
X48879047Y-181944819D02*
X48974285Y-181992438D01*
X48974285Y-181992438D02*
X49021904Y-182040057D01*
X49021904Y-182040057D02*
X49069523Y-182135295D01*
X49069523Y-182135295D02*
X49069523Y-182230533D01*
X49069523Y-182230533D02*
X49021904Y-182373390D01*
X49021904Y-182373390D02*
X48450476Y-182944819D01*
X48450476Y-182944819D02*
X49069523Y-182944819D01*
X202438095Y-248984819D02*
X202438095Y-247984819D01*
X202438095Y-248461009D02*
X203009523Y-248461009D01*
X203009523Y-248984819D02*
X203009523Y-247984819D01*
X203914285Y-248318152D02*
X203914285Y-248984819D01*
X203676190Y-247937200D02*
X203438095Y-248651485D01*
X203438095Y-248651485D02*
X204057142Y-248651485D01*
X202438095Y-228664819D02*
X202438095Y-227664819D01*
X202438095Y-228141009D02*
X203009523Y-228141009D01*
X203009523Y-228664819D02*
X203009523Y-227664819D01*
X203961904Y-227664819D02*
X203485714Y-227664819D01*
X203485714Y-227664819D02*
X203438095Y-228141009D01*
X203438095Y-228141009D02*
X203485714Y-228093390D01*
X203485714Y-228093390D02*
X203580952Y-228045771D01*
X203580952Y-228045771D02*
X203819047Y-228045771D01*
X203819047Y-228045771D02*
X203914285Y-228093390D01*
X203914285Y-228093390D02*
X203961904Y-228141009D01*
X203961904Y-228141009D02*
X204009523Y-228236247D01*
X204009523Y-228236247D02*
X204009523Y-228474342D01*
X204009523Y-228474342D02*
X203961904Y-228569580D01*
X203961904Y-228569580D02*
X203914285Y-228617200D01*
X203914285Y-228617200D02*
X203819047Y-228664819D01*
X203819047Y-228664819D02*
X203580952Y-228664819D01*
X203580952Y-228664819D02*
X203485714Y-228617200D01*
X203485714Y-228617200D02*
X203438095Y-228569580D01*
X202438095Y-182944819D02*
X202438095Y-181944819D01*
X202438095Y-182421009D02*
X203009523Y-182421009D01*
X203009523Y-182944819D02*
X203009523Y-181944819D01*
X203914285Y-181944819D02*
X203723809Y-181944819D01*
X203723809Y-181944819D02*
X203628571Y-181992438D01*
X203628571Y-181992438D02*
X203580952Y-182040057D01*
X203580952Y-182040057D02*
X203485714Y-182182914D01*
X203485714Y-182182914D02*
X203438095Y-182373390D01*
X203438095Y-182373390D02*
X203438095Y-182754342D01*
X203438095Y-182754342D02*
X203485714Y-182849580D01*
X203485714Y-182849580D02*
X203533333Y-182897200D01*
X203533333Y-182897200D02*
X203628571Y-182944819D01*
X203628571Y-182944819D02*
X203819047Y-182944819D01*
X203819047Y-182944819D02*
X203914285Y-182897200D01*
X203914285Y-182897200D02*
X203961904Y-182849580D01*
X203961904Y-182849580D02*
X204009523Y-182754342D01*
X204009523Y-182754342D02*
X204009523Y-182516247D01*
X204009523Y-182516247D02*
X203961904Y-182421009D01*
X203961904Y-182421009D02*
X203914285Y-182373390D01*
X203914285Y-182373390D02*
X203819047Y-182325771D01*
X203819047Y-182325771D02*
X203628571Y-182325771D01*
X203628571Y-182325771D02*
X203533333Y-182373390D01*
X203533333Y-182373390D02*
X203485714Y-182421009D01*
X203485714Y-182421009D02*
X203438095Y-182516247D01*
D11*
X76796667Y-184414318D02*
X76796667Y-185321461D01*
X76796667Y-185321461D02*
X76736190Y-185502889D01*
X76736190Y-185502889D02*
X76615238Y-185623842D01*
X76615238Y-185623842D02*
X76433809Y-185684318D01*
X76433809Y-185684318D02*
X76312857Y-185684318D01*
X78066667Y-185684318D02*
X77340952Y-185684318D01*
X77703809Y-185684318D02*
X77703809Y-184414318D01*
X77703809Y-184414318D02*
X77582857Y-184595746D01*
X77582857Y-184595746D02*
X77461905Y-184716699D01*
X77461905Y-184716699D02*
X77340952Y-184777175D01*
X76456667Y-204964318D02*
X76456667Y-205871461D01*
X76456667Y-205871461D02*
X76396190Y-206052889D01*
X76396190Y-206052889D02*
X76275238Y-206173842D01*
X76275238Y-206173842D02*
X76093809Y-206234318D01*
X76093809Y-206234318D02*
X75972857Y-206234318D01*
X77000952Y-205085270D02*
X77061428Y-205024794D01*
X77061428Y-205024794D02*
X77182381Y-204964318D01*
X77182381Y-204964318D02*
X77484762Y-204964318D01*
X77484762Y-204964318D02*
X77605714Y-205024794D01*
X77605714Y-205024794D02*
X77666190Y-205085270D01*
X77666190Y-205085270D02*
X77726667Y-205206222D01*
X77726667Y-205206222D02*
X77726667Y-205327175D01*
X77726667Y-205327175D02*
X77666190Y-205508603D01*
X77666190Y-205508603D02*
X76940476Y-206234318D01*
X76940476Y-206234318D02*
X77726667Y-206234318D01*
X77136667Y-245754318D02*
X77136667Y-246661461D01*
X77136667Y-246661461D02*
X77076190Y-246842889D01*
X77076190Y-246842889D02*
X76955238Y-246963842D01*
X76955238Y-246963842D02*
X76773809Y-247024318D01*
X76773809Y-247024318D02*
X76652857Y-247024318D01*
X78285714Y-246177651D02*
X78285714Y-247024318D01*
X77983333Y-245693842D02*
X77680952Y-246600984D01*
X77680952Y-246600984D02*
X78467143Y-246600984D01*
D10*
X222804819Y-185713333D02*
X223519104Y-185713333D01*
X223519104Y-185713333D02*
X223661961Y-185760952D01*
X223661961Y-185760952D02*
X223757200Y-185856190D01*
X223757200Y-185856190D02*
X223804819Y-185999047D01*
X223804819Y-185999047D02*
X223804819Y-186094285D01*
X222804819Y-185332380D02*
X222804819Y-184665714D01*
X222804819Y-184665714D02*
X223804819Y-185094285D01*
D11*
X77006667Y-224924318D02*
X77006667Y-225831461D01*
X77006667Y-225831461D02*
X76946190Y-226012889D01*
X76946190Y-226012889D02*
X76825238Y-226133842D01*
X76825238Y-226133842D02*
X76643809Y-226194318D01*
X76643809Y-226194318D02*
X76522857Y-226194318D01*
X77490476Y-224924318D02*
X78276667Y-224924318D01*
X78276667Y-224924318D02*
X77853333Y-225408127D01*
X77853333Y-225408127D02*
X78034762Y-225408127D01*
X78034762Y-225408127D02*
X78155714Y-225468603D01*
X78155714Y-225468603D02*
X78216190Y-225529080D01*
X78216190Y-225529080D02*
X78276667Y-225650032D01*
X78276667Y-225650032D02*
X78276667Y-225952413D01*
X78276667Y-225952413D02*
X78216190Y-226073365D01*
X78216190Y-226073365D02*
X78155714Y-226133842D01*
X78155714Y-226133842D02*
X78034762Y-226194318D01*
X78034762Y-226194318D02*
X77671905Y-226194318D01*
X77671905Y-226194318D02*
X77550952Y-226133842D01*
X77550952Y-226133842D02*
X77490476Y-226073365D01*
D10*
X182164819Y-164123333D02*
X182879104Y-164123333D01*
X182879104Y-164123333D02*
X183021961Y-164170952D01*
X183021961Y-164170952D02*
X183117200Y-164266190D01*
X183117200Y-164266190D02*
X183164819Y-164409047D01*
X183164819Y-164409047D02*
X183164819Y-164504285D01*
X182593390Y-163504285D02*
X182545771Y-163599523D01*
X182545771Y-163599523D02*
X182498152Y-163647142D01*
X182498152Y-163647142D02*
X182402914Y-163694761D01*
X182402914Y-163694761D02*
X182355295Y-163694761D01*
X182355295Y-163694761D02*
X182260057Y-163647142D01*
X182260057Y-163647142D02*
X182212438Y-163599523D01*
X182212438Y-163599523D02*
X182164819Y-163504285D01*
X182164819Y-163504285D02*
X182164819Y-163313809D01*
X182164819Y-163313809D02*
X182212438Y-163218571D01*
X182212438Y-163218571D02*
X182260057Y-163170952D01*
X182260057Y-163170952D02*
X182355295Y-163123333D01*
X182355295Y-163123333D02*
X182402914Y-163123333D01*
X182402914Y-163123333D02*
X182498152Y-163170952D01*
X182498152Y-163170952D02*
X182545771Y-163218571D01*
X182545771Y-163218571D02*
X182593390Y-163313809D01*
X182593390Y-163313809D02*
X182593390Y-163504285D01*
X182593390Y-163504285D02*
X182641009Y-163599523D01*
X182641009Y-163599523D02*
X182688628Y-163647142D01*
X182688628Y-163647142D02*
X182783866Y-163694761D01*
X182783866Y-163694761D02*
X182974342Y-163694761D01*
X182974342Y-163694761D02*
X183069580Y-163647142D01*
X183069580Y-163647142D02*
X183117200Y-163599523D01*
X183117200Y-163599523D02*
X183164819Y-163504285D01*
X183164819Y-163504285D02*
X183164819Y-163313809D01*
X183164819Y-163313809D02*
X183117200Y-163218571D01*
X183117200Y-163218571D02*
X183069580Y-163170952D01*
X183069580Y-163170952D02*
X182974342Y-163123333D01*
X182974342Y-163123333D02*
X182783866Y-163123333D01*
X182783866Y-163123333D02*
X182688628Y-163170952D01*
X182688628Y-163170952D02*
X182641009Y-163218571D01*
X182641009Y-163218571D02*
X182593390Y-163313809D01*
X78024819Y-164123333D02*
X78739104Y-164123333D01*
X78739104Y-164123333D02*
X78881961Y-164170952D01*
X78881961Y-164170952D02*
X78977200Y-164266190D01*
X78977200Y-164266190D02*
X79024819Y-164409047D01*
X79024819Y-164409047D02*
X79024819Y-164504285D01*
X78024819Y-163218571D02*
X78024819Y-163409047D01*
X78024819Y-163409047D02*
X78072438Y-163504285D01*
X78072438Y-163504285D02*
X78120057Y-163551904D01*
X78120057Y-163551904D02*
X78262914Y-163647142D01*
X78262914Y-163647142D02*
X78453390Y-163694761D01*
X78453390Y-163694761D02*
X78834342Y-163694761D01*
X78834342Y-163694761D02*
X78929580Y-163647142D01*
X78929580Y-163647142D02*
X78977200Y-163599523D01*
X78977200Y-163599523D02*
X79024819Y-163504285D01*
X79024819Y-163504285D02*
X79024819Y-163313809D01*
X79024819Y-163313809D02*
X78977200Y-163218571D01*
X78977200Y-163218571D02*
X78929580Y-163170952D01*
X78929580Y-163170952D02*
X78834342Y-163123333D01*
X78834342Y-163123333D02*
X78596247Y-163123333D01*
X78596247Y-163123333D02*
X78501009Y-163170952D01*
X78501009Y-163170952D02*
X78453390Y-163218571D01*
X78453390Y-163218571D02*
X78405771Y-163313809D01*
X78405771Y-163313809D02*
X78405771Y-163504285D01*
X78405771Y-163504285D02*
X78453390Y-163599523D01*
X78453390Y-163599523D02*
X78501009Y-163647142D01*
X78501009Y-163647142D02*
X78596247Y-163694761D01*
D12*
%TO.C,J5*%
X231200000Y-256750000D02*
X223250000Y-256750000D01*
X221400000Y-254050000D02*
X221400000Y-204750000D01*
X221400000Y-204750000D02*
X231200000Y-204750000D01*
X231200000Y-204750000D02*
X231200000Y-256750000D01*
%TO.C,J1*%
X80699200Y-181415200D02*
X80699200Y-188815200D01*
X169699200Y-181415200D02*
X169699200Y-188815200D01*
X79761530Y-183755200D02*
G75*
G03*
X79440870Y-183755200I-160330J0D01*
G01*
X79440870Y-183755200D02*
G75*
G03*
X79761530Y-183755200I160330J0D01*
G01*
X79753260Y-183877200D02*
G75*
G03*
X79669140Y-183877200I-42060J0D01*
G01*
X79669140Y-183877200D02*
G75*
G03*
X79753260Y-183877200I42060J0D01*
G01*
%TO.C,J2*%
X80699200Y-201735200D02*
X80699200Y-209135200D01*
X169699200Y-201735200D02*
X169699200Y-209135200D01*
X79761530Y-204075200D02*
G75*
G03*
X79440870Y-204075200I-160330J0D01*
G01*
X79440870Y-204075200D02*
G75*
G03*
X79761530Y-204075200I160330J0D01*
G01*
X79753260Y-204197200D02*
G75*
G03*
X79669140Y-204197200I-42060J0D01*
G01*
X79669140Y-204197200D02*
G75*
G03*
X79753260Y-204197200I42060J0D01*
G01*
%TO.C,J4*%
X80699200Y-242375200D02*
X80699200Y-249775200D01*
X169699200Y-242375200D02*
X169699200Y-249775200D01*
X79761530Y-244715200D02*
G75*
G03*
X79440870Y-244715200I-160330J0D01*
G01*
X79440870Y-244715200D02*
G75*
G03*
X79761530Y-244715200I160330J0D01*
G01*
X79753260Y-244837200D02*
G75*
G03*
X79669140Y-244837200I-42060J0D01*
G01*
X79669140Y-244837200D02*
G75*
G03*
X79753260Y-244837200I42060J0D01*
G01*
D13*
%TO.C,J7*%
X227390000Y-186710000D02*
X229990000Y-186710000D01*
X227390000Y-186710000D02*
X227390000Y-184050000D01*
X229990000Y-186710000D02*
X229990000Y-184050000D01*
X224790000Y-185380000D02*
X224790000Y-184050000D01*
X224790000Y-184050000D02*
X226120000Y-184050000D01*
X227390000Y-184050000D02*
X229990000Y-184050000D01*
D12*
%TO.C,J3*%
X80699200Y-222055200D02*
X80699200Y-229455200D01*
X169699200Y-222055200D02*
X169699200Y-229455200D01*
X79761530Y-224395200D02*
G75*
G03*
X79440870Y-224395200I-160330J0D01*
G01*
X79440870Y-224395200D02*
G75*
G03*
X79761530Y-224395200I160330J0D01*
G01*
X79753260Y-224517200D02*
G75*
G03*
X79669140Y-224517200I-42060J0D01*
G01*
X79669140Y-224517200D02*
G75*
G03*
X79753260Y-224517200I42060J0D01*
G01*
D13*
%TO.C,J8*%
X229990000Y-161190000D02*
X229990000Y-166390000D01*
X184150000Y-161190000D02*
X229990000Y-161190000D01*
X184150000Y-161190000D02*
X184150000Y-163790000D01*
X186750000Y-163790000D02*
X186750000Y-166390000D01*
X184150000Y-163790000D02*
X186750000Y-163790000D01*
X184150000Y-165060000D02*
X184150000Y-166390000D01*
X186750000Y-166390000D02*
X229990000Y-166390000D01*
X184150000Y-166390000D02*
X185480000Y-166390000D01*
%TO.C,J6*%
X80010000Y-166390000D02*
X81340000Y-166390000D01*
X82610000Y-166390000D02*
X181730000Y-166390000D01*
X80010000Y-165060000D02*
X80010000Y-166390000D01*
X80010000Y-163790000D02*
X82610000Y-163790000D01*
X82610000Y-163790000D02*
X82610000Y-166390000D01*
X80010000Y-161190000D02*
X80010000Y-163790000D01*
X80010000Y-161190000D02*
X181730000Y-161190000D01*
X181730000Y-161190000D02*
X181730000Y-166390000D01*
%TD*%
M02*
