%TF.GenerationSoftware,KiCad,Pcbnew,7.0.10+dfsg-1*%
%TF.CreationDate,2024-02-25T05:42:05-05:00*%
%TF.ProjectId,BB816-MATX-minimal,42423831-362d-44d4-9154-582d6d696e69,rev?*%
%TF.SameCoordinates,Original*%
%TF.FileFunction,Drillmap*%
%TF.FilePolarity,Positive*%
%FSLAX45Y45*%
G04 Gerber Fmt 4.5, Leading zero omitted, Abs format (unit mm)*
G04 Created by KiCad (PCBNEW 7.0.10+dfsg-1) date 2024-02-25 05:42:05*
%MOMM*%
%LPD*%
G01*
G04 APERTURE LIST*
%ADD10C,0.150000*%
%ADD11C,0.200000*%
%ADD12C,0.100000*%
%ADD13C,0.145000*%
%ADD14C,0.320000*%
G04 APERTURE END LIST*
D10*
X3810000Y-25871000D02*
X3810000Y-16049000D01*
X3810000Y-16049000D02*
X23326000Y-16049000D01*
X23326000Y-25871000D02*
X23326000Y-16049000D01*
X3810000Y-25871000D02*
X23326000Y-25871000D01*
D11*
D12*
X4561000Y-18644000D02*
X4611000Y-18694000D01*
X4611000Y-18644000D02*
X4561000Y-18694000D01*
X4561000Y-23216000D02*
X4611000Y-23266000D01*
X4611000Y-23216000D02*
X4561000Y-23266000D01*
X4631294Y-18474294D02*
X4681294Y-18524294D01*
X4681294Y-18474294D02*
X4631294Y-18524294D01*
X4631294Y-18813706D02*
X4681294Y-18863706D01*
X4681294Y-18813706D02*
X4631294Y-18863706D01*
X4631294Y-23046294D02*
X4681294Y-23096294D01*
X4681294Y-23046294D02*
X4631294Y-23096294D01*
X4631294Y-23385706D02*
X4681294Y-23435706D01*
X4681294Y-23385706D02*
X4631294Y-23435706D01*
X4801000Y-18404000D02*
X4851000Y-18454000D01*
X4851000Y-18404000D02*
X4801000Y-18454000D01*
X4801000Y-18884000D02*
X4851000Y-18934000D01*
X4851000Y-18884000D02*
X4801000Y-18934000D01*
X4801000Y-22976000D02*
X4851000Y-23026000D01*
X4851000Y-22976000D02*
X4801000Y-23026000D01*
X4801000Y-23456000D02*
X4851000Y-23506000D01*
X4851000Y-23456000D02*
X4801000Y-23506000D01*
X4970706Y-18474294D02*
X5020706Y-18524294D01*
X5020706Y-18474294D02*
X4970706Y-18524294D01*
X4970706Y-18813706D02*
X5020706Y-18863706D01*
X5020706Y-18813706D02*
X4970706Y-18863706D01*
X4970706Y-23046294D02*
X5020706Y-23096294D01*
X5020706Y-23046294D02*
X4970706Y-23096294D01*
X4970706Y-23385706D02*
X5020706Y-23435706D01*
X5020706Y-23385706D02*
X4970706Y-23435706D01*
X5041000Y-18644000D02*
X5091000Y-18694000D01*
X5091000Y-18644000D02*
X5041000Y-18694000D01*
X5041000Y-23216000D02*
X5091000Y-23266000D01*
X5091000Y-23216000D02*
X5041000Y-23266000D01*
X20055000Y-18644000D02*
X20105000Y-18694000D01*
X20105000Y-18644000D02*
X20055000Y-18694000D01*
X20055000Y-23216000D02*
X20105000Y-23266000D01*
X20105000Y-23216000D02*
X20055000Y-23266000D01*
X20055000Y-25248000D02*
X20105000Y-25298000D01*
X20105000Y-25248000D02*
X20055000Y-25298000D01*
X20125294Y-18474294D02*
X20175294Y-18524294D01*
X20175294Y-18474294D02*
X20125294Y-18524294D01*
X20125294Y-18813706D02*
X20175294Y-18863706D01*
X20175294Y-18813706D02*
X20125294Y-18863706D01*
X20125294Y-23046294D02*
X20175294Y-23096294D01*
X20175294Y-23046294D02*
X20125294Y-23096294D01*
X20125294Y-23385706D02*
X20175294Y-23435706D01*
X20175294Y-23385706D02*
X20125294Y-23435706D01*
X20125294Y-25078294D02*
X20175294Y-25128294D01*
X20175294Y-25078294D02*
X20125294Y-25128294D01*
X20125294Y-25417706D02*
X20175294Y-25467706D01*
X20175294Y-25417706D02*
X20125294Y-25467706D01*
X20295000Y-18404000D02*
X20345000Y-18454000D01*
X20345000Y-18404000D02*
X20295000Y-18454000D01*
X20295000Y-18884000D02*
X20345000Y-18934000D01*
X20345000Y-18884000D02*
X20295000Y-18934000D01*
X20295000Y-22976000D02*
X20345000Y-23026000D01*
X20345000Y-22976000D02*
X20295000Y-23026000D01*
X20295000Y-23456000D02*
X20345000Y-23506000D01*
X20345000Y-23456000D02*
X20295000Y-23506000D01*
X20295000Y-25008000D02*
X20345000Y-25058000D01*
X20345000Y-25008000D02*
X20295000Y-25058000D01*
X20295000Y-25488000D02*
X20345000Y-25538000D01*
X20345000Y-25488000D02*
X20295000Y-25538000D01*
X20464706Y-18474294D02*
X20514706Y-18524294D01*
X20514706Y-18474294D02*
X20464706Y-18524294D01*
X20464706Y-18813706D02*
X20514706Y-18863706D01*
X20514706Y-18813706D02*
X20464706Y-18863706D01*
X20464706Y-23046294D02*
X20514706Y-23096294D01*
X20514706Y-23046294D02*
X20464706Y-23096294D01*
X20464706Y-23385706D02*
X20514706Y-23435706D01*
X20514706Y-23385706D02*
X20464706Y-23435706D01*
X20464706Y-25078294D02*
X20514706Y-25128294D01*
X20514706Y-25078294D02*
X20464706Y-25128294D01*
X20464706Y-25417706D02*
X20514706Y-25467706D01*
X20514706Y-25417706D02*
X20464706Y-25467706D01*
X20535000Y-18644000D02*
X20585000Y-18694000D01*
X20585000Y-18644000D02*
X20535000Y-18694000D01*
X20535000Y-23216000D02*
X20585000Y-23266000D01*
X20585000Y-23216000D02*
X20535000Y-23266000D01*
X20535000Y-25248000D02*
X20585000Y-25298000D01*
X20585000Y-25248000D02*
X20535000Y-25298000D01*
X8393920Y-18386520D02*
G75*
G03*
X8315920Y-18386520I-39000J0D01*
G01*
X8315920Y-18386520D02*
G75*
G03*
X8393920Y-18386520I39000J0D01*
G01*
X8393920Y-18636520D02*
G75*
G03*
X8315920Y-18636520I-39000J0D01*
G01*
X8315920Y-18636520D02*
G75*
G03*
X8393920Y-18636520I39000J0D01*
G01*
X8393920Y-20418520D02*
G75*
G03*
X8315920Y-20418520I-39000J0D01*
G01*
X8315920Y-20418520D02*
G75*
G03*
X8393920Y-20418520I39000J0D01*
G01*
X8393920Y-20668520D02*
G75*
G03*
X8315920Y-20668520I-39000J0D01*
G01*
X8315920Y-20668520D02*
G75*
G03*
X8393920Y-20668520I39000J0D01*
G01*
X8393920Y-22450520D02*
G75*
G03*
X8315920Y-22450520I-39000J0D01*
G01*
X8315920Y-22450520D02*
G75*
G03*
X8393920Y-22450520I39000J0D01*
G01*
X8393920Y-22700520D02*
G75*
G03*
X8315920Y-22700520I-39000J0D01*
G01*
X8315920Y-22700520D02*
G75*
G03*
X8393920Y-22700520I39000J0D01*
G01*
X8393920Y-24482520D02*
G75*
G03*
X8315920Y-24482520I-39000J0D01*
G01*
X8315920Y-24482520D02*
G75*
G03*
X8393920Y-24482520I39000J0D01*
G01*
X8393920Y-24732520D02*
G75*
G03*
X8315920Y-24732520I-39000J0D01*
G01*
X8315920Y-24732520D02*
G75*
G03*
X8393920Y-24732520I39000J0D01*
G01*
X8493920Y-18186520D02*
G75*
G03*
X8415920Y-18186520I-39000J0D01*
G01*
X8415920Y-18186520D02*
G75*
G03*
X8493920Y-18186520I39000J0D01*
G01*
X8493920Y-18836520D02*
G75*
G03*
X8415920Y-18836520I-39000J0D01*
G01*
X8415920Y-18836520D02*
G75*
G03*
X8493920Y-18836520I39000J0D01*
G01*
X8493920Y-20218520D02*
G75*
G03*
X8415920Y-20218520I-39000J0D01*
G01*
X8415920Y-20218520D02*
G75*
G03*
X8493920Y-20218520I39000J0D01*
G01*
X8493920Y-20868520D02*
G75*
G03*
X8415920Y-20868520I-39000J0D01*
G01*
X8415920Y-20868520D02*
G75*
G03*
X8493920Y-20868520I39000J0D01*
G01*
X8493920Y-22250520D02*
G75*
G03*
X8415920Y-22250520I-39000J0D01*
G01*
X8415920Y-22250520D02*
G75*
G03*
X8493920Y-22250520I39000J0D01*
G01*
X8493920Y-22900520D02*
G75*
G03*
X8415920Y-22900520I-39000J0D01*
G01*
X8415920Y-22900520D02*
G75*
G03*
X8493920Y-22900520I39000J0D01*
G01*
X8493920Y-24282520D02*
G75*
G03*
X8415920Y-24282520I-39000J0D01*
G01*
X8415920Y-24282520D02*
G75*
G03*
X8493920Y-24282520I39000J0D01*
G01*
X8493920Y-24932520D02*
G75*
G03*
X8415920Y-24932520I-39000J0D01*
G01*
X8415920Y-24932520D02*
G75*
G03*
X8493920Y-24932520I39000J0D01*
G01*
X8593920Y-18386520D02*
G75*
G03*
X8515920Y-18386520I-39000J0D01*
G01*
X8515920Y-18386520D02*
G75*
G03*
X8593920Y-18386520I39000J0D01*
G01*
X8593920Y-18636520D02*
G75*
G03*
X8515920Y-18636520I-39000J0D01*
G01*
X8515920Y-18636520D02*
G75*
G03*
X8593920Y-18636520I39000J0D01*
G01*
X8593920Y-20418520D02*
G75*
G03*
X8515920Y-20418520I-39000J0D01*
G01*
X8515920Y-20418520D02*
G75*
G03*
X8593920Y-20418520I39000J0D01*
G01*
X8593920Y-20668520D02*
G75*
G03*
X8515920Y-20668520I-39000J0D01*
G01*
X8515920Y-20668520D02*
G75*
G03*
X8593920Y-20668520I39000J0D01*
G01*
X8593920Y-22450520D02*
G75*
G03*
X8515920Y-22450520I-39000J0D01*
G01*
X8515920Y-22450520D02*
G75*
G03*
X8593920Y-22450520I39000J0D01*
G01*
X8593920Y-22700520D02*
G75*
G03*
X8515920Y-22700520I-39000J0D01*
G01*
X8515920Y-22700520D02*
G75*
G03*
X8593920Y-22700520I39000J0D01*
G01*
X8593920Y-24482520D02*
G75*
G03*
X8515920Y-24482520I-39000J0D01*
G01*
X8515920Y-24482520D02*
G75*
G03*
X8593920Y-24482520I39000J0D01*
G01*
X8593920Y-24732520D02*
G75*
G03*
X8515920Y-24732520I-39000J0D01*
G01*
X8515920Y-24732520D02*
G75*
G03*
X8593920Y-24732520I39000J0D01*
G01*
X8693920Y-18186520D02*
G75*
G03*
X8615920Y-18186520I-39000J0D01*
G01*
X8615920Y-18186520D02*
G75*
G03*
X8693920Y-18186520I39000J0D01*
G01*
X8693920Y-18836520D02*
G75*
G03*
X8615920Y-18836520I-39000J0D01*
G01*
X8615920Y-18836520D02*
G75*
G03*
X8693920Y-18836520I39000J0D01*
G01*
X8693920Y-20218520D02*
G75*
G03*
X8615920Y-20218520I-39000J0D01*
G01*
X8615920Y-20218520D02*
G75*
G03*
X8693920Y-20218520I39000J0D01*
G01*
X8693920Y-20868520D02*
G75*
G03*
X8615920Y-20868520I-39000J0D01*
G01*
X8615920Y-20868520D02*
G75*
G03*
X8693920Y-20868520I39000J0D01*
G01*
X8693920Y-22250520D02*
G75*
G03*
X8615920Y-22250520I-39000J0D01*
G01*
X8615920Y-22250520D02*
G75*
G03*
X8693920Y-22250520I39000J0D01*
G01*
X8693920Y-22900520D02*
G75*
G03*
X8615920Y-22900520I-39000J0D01*
G01*
X8615920Y-22900520D02*
G75*
G03*
X8693920Y-22900520I39000J0D01*
G01*
X8693920Y-24282520D02*
G75*
G03*
X8615920Y-24282520I-39000J0D01*
G01*
X8615920Y-24282520D02*
G75*
G03*
X8693920Y-24282520I39000J0D01*
G01*
X8693920Y-24932520D02*
G75*
G03*
X8615920Y-24932520I-39000J0D01*
G01*
X8615920Y-24932520D02*
G75*
G03*
X8693920Y-24932520I39000J0D01*
G01*
X8793920Y-18386520D02*
G75*
G03*
X8715920Y-18386520I-39000J0D01*
G01*
X8715920Y-18386520D02*
G75*
G03*
X8793920Y-18386520I39000J0D01*
G01*
X8793920Y-18636520D02*
G75*
G03*
X8715920Y-18636520I-39000J0D01*
G01*
X8715920Y-18636520D02*
G75*
G03*
X8793920Y-18636520I39000J0D01*
G01*
X8793920Y-20418520D02*
G75*
G03*
X8715920Y-20418520I-39000J0D01*
G01*
X8715920Y-20418520D02*
G75*
G03*
X8793920Y-20418520I39000J0D01*
G01*
X8793920Y-20668520D02*
G75*
G03*
X8715920Y-20668520I-39000J0D01*
G01*
X8715920Y-20668520D02*
G75*
G03*
X8793920Y-20668520I39000J0D01*
G01*
X8793920Y-22450520D02*
G75*
G03*
X8715920Y-22450520I-39000J0D01*
G01*
X8715920Y-22450520D02*
G75*
G03*
X8793920Y-22450520I39000J0D01*
G01*
X8793920Y-22700520D02*
G75*
G03*
X8715920Y-22700520I-39000J0D01*
G01*
X8715920Y-22700520D02*
G75*
G03*
X8793920Y-22700520I39000J0D01*
G01*
X8793920Y-24482520D02*
G75*
G03*
X8715920Y-24482520I-39000J0D01*
G01*
X8715920Y-24482520D02*
G75*
G03*
X8793920Y-24482520I39000J0D01*
G01*
X8793920Y-24732520D02*
G75*
G03*
X8715920Y-24732520I-39000J0D01*
G01*
X8715920Y-24732520D02*
G75*
G03*
X8793920Y-24732520I39000J0D01*
G01*
X8893920Y-18186520D02*
G75*
G03*
X8815920Y-18186520I-39000J0D01*
G01*
X8815920Y-18186520D02*
G75*
G03*
X8893920Y-18186520I39000J0D01*
G01*
X8893920Y-18836520D02*
G75*
G03*
X8815920Y-18836520I-39000J0D01*
G01*
X8815920Y-18836520D02*
G75*
G03*
X8893920Y-18836520I39000J0D01*
G01*
X8893920Y-20218520D02*
G75*
G03*
X8815920Y-20218520I-39000J0D01*
G01*
X8815920Y-20218520D02*
G75*
G03*
X8893920Y-20218520I39000J0D01*
G01*
X8893920Y-20868520D02*
G75*
G03*
X8815920Y-20868520I-39000J0D01*
G01*
X8815920Y-20868520D02*
G75*
G03*
X8893920Y-20868520I39000J0D01*
G01*
X8893920Y-22250520D02*
G75*
G03*
X8815920Y-22250520I-39000J0D01*
G01*
X8815920Y-22250520D02*
G75*
G03*
X8893920Y-22250520I39000J0D01*
G01*
X8893920Y-22900520D02*
G75*
G03*
X8815920Y-22900520I-39000J0D01*
G01*
X8815920Y-22900520D02*
G75*
G03*
X8893920Y-22900520I39000J0D01*
G01*
X8893920Y-24282520D02*
G75*
G03*
X8815920Y-24282520I-39000J0D01*
G01*
X8815920Y-24282520D02*
G75*
G03*
X8893920Y-24282520I39000J0D01*
G01*
X8893920Y-24932520D02*
G75*
G03*
X8815920Y-24932520I-39000J0D01*
G01*
X8815920Y-24932520D02*
G75*
G03*
X8893920Y-24932520I39000J0D01*
G01*
X8993920Y-18386520D02*
G75*
G03*
X8915920Y-18386520I-39000J0D01*
G01*
X8915920Y-18386520D02*
G75*
G03*
X8993920Y-18386520I39000J0D01*
G01*
X8993920Y-18636520D02*
G75*
G03*
X8915920Y-18636520I-39000J0D01*
G01*
X8915920Y-18636520D02*
G75*
G03*
X8993920Y-18636520I39000J0D01*
G01*
X8993920Y-20418520D02*
G75*
G03*
X8915920Y-20418520I-39000J0D01*
G01*
X8915920Y-20418520D02*
G75*
G03*
X8993920Y-20418520I39000J0D01*
G01*
X8993920Y-20668520D02*
G75*
G03*
X8915920Y-20668520I-39000J0D01*
G01*
X8915920Y-20668520D02*
G75*
G03*
X8993920Y-20668520I39000J0D01*
G01*
X8993920Y-22450520D02*
G75*
G03*
X8915920Y-22450520I-39000J0D01*
G01*
X8915920Y-22450520D02*
G75*
G03*
X8993920Y-22450520I39000J0D01*
G01*
X8993920Y-22700520D02*
G75*
G03*
X8915920Y-22700520I-39000J0D01*
G01*
X8915920Y-22700520D02*
G75*
G03*
X8993920Y-22700520I39000J0D01*
G01*
X8993920Y-24482520D02*
G75*
G03*
X8915920Y-24482520I-39000J0D01*
G01*
X8915920Y-24482520D02*
G75*
G03*
X8993920Y-24482520I39000J0D01*
G01*
X8993920Y-24732520D02*
G75*
G03*
X8915920Y-24732520I-39000J0D01*
G01*
X8915920Y-24732520D02*
G75*
G03*
X8993920Y-24732520I39000J0D01*
G01*
X9093920Y-18186520D02*
G75*
G03*
X9015920Y-18186520I-39000J0D01*
G01*
X9015920Y-18186520D02*
G75*
G03*
X9093920Y-18186520I39000J0D01*
G01*
X9093920Y-18836520D02*
G75*
G03*
X9015920Y-18836520I-39000J0D01*
G01*
X9015920Y-18836520D02*
G75*
G03*
X9093920Y-18836520I39000J0D01*
G01*
X9093920Y-20218520D02*
G75*
G03*
X9015920Y-20218520I-39000J0D01*
G01*
X9015920Y-20218520D02*
G75*
G03*
X9093920Y-20218520I39000J0D01*
G01*
X9093920Y-20868520D02*
G75*
G03*
X9015920Y-20868520I-39000J0D01*
G01*
X9015920Y-20868520D02*
G75*
G03*
X9093920Y-20868520I39000J0D01*
G01*
X9093920Y-22250520D02*
G75*
G03*
X9015920Y-22250520I-39000J0D01*
G01*
X9015920Y-22250520D02*
G75*
G03*
X9093920Y-22250520I39000J0D01*
G01*
X9093920Y-22900520D02*
G75*
G03*
X9015920Y-22900520I-39000J0D01*
G01*
X9015920Y-22900520D02*
G75*
G03*
X9093920Y-22900520I39000J0D01*
G01*
X9093920Y-24282520D02*
G75*
G03*
X9015920Y-24282520I-39000J0D01*
G01*
X9015920Y-24282520D02*
G75*
G03*
X9093920Y-24282520I39000J0D01*
G01*
X9093920Y-24932520D02*
G75*
G03*
X9015920Y-24932520I-39000J0D01*
G01*
X9015920Y-24932520D02*
G75*
G03*
X9093920Y-24932520I39000J0D01*
G01*
X9193920Y-18386520D02*
G75*
G03*
X9115920Y-18386520I-39000J0D01*
G01*
X9115920Y-18386520D02*
G75*
G03*
X9193920Y-18386520I39000J0D01*
G01*
X9193920Y-18636520D02*
G75*
G03*
X9115920Y-18636520I-39000J0D01*
G01*
X9115920Y-18636520D02*
G75*
G03*
X9193920Y-18636520I39000J0D01*
G01*
X9193920Y-20418520D02*
G75*
G03*
X9115920Y-20418520I-39000J0D01*
G01*
X9115920Y-20418520D02*
G75*
G03*
X9193920Y-20418520I39000J0D01*
G01*
X9193920Y-20668520D02*
G75*
G03*
X9115920Y-20668520I-39000J0D01*
G01*
X9115920Y-20668520D02*
G75*
G03*
X9193920Y-20668520I39000J0D01*
G01*
X9193920Y-22450520D02*
G75*
G03*
X9115920Y-22450520I-39000J0D01*
G01*
X9115920Y-22450520D02*
G75*
G03*
X9193920Y-22450520I39000J0D01*
G01*
X9193920Y-22700520D02*
G75*
G03*
X9115920Y-22700520I-39000J0D01*
G01*
X9115920Y-22700520D02*
G75*
G03*
X9193920Y-22700520I39000J0D01*
G01*
X9193920Y-24482520D02*
G75*
G03*
X9115920Y-24482520I-39000J0D01*
G01*
X9115920Y-24482520D02*
G75*
G03*
X9193920Y-24482520I39000J0D01*
G01*
X9193920Y-24732520D02*
G75*
G03*
X9115920Y-24732520I-39000J0D01*
G01*
X9115920Y-24732520D02*
G75*
G03*
X9193920Y-24732520I39000J0D01*
G01*
X9293920Y-18186520D02*
G75*
G03*
X9215920Y-18186520I-39000J0D01*
G01*
X9215920Y-18186520D02*
G75*
G03*
X9293920Y-18186520I39000J0D01*
G01*
X9293920Y-18836520D02*
G75*
G03*
X9215920Y-18836520I-39000J0D01*
G01*
X9215920Y-18836520D02*
G75*
G03*
X9293920Y-18836520I39000J0D01*
G01*
X9293920Y-20218520D02*
G75*
G03*
X9215920Y-20218520I-39000J0D01*
G01*
X9215920Y-20218520D02*
G75*
G03*
X9293920Y-20218520I39000J0D01*
G01*
X9293920Y-20868520D02*
G75*
G03*
X9215920Y-20868520I-39000J0D01*
G01*
X9215920Y-20868520D02*
G75*
G03*
X9293920Y-20868520I39000J0D01*
G01*
X9293920Y-22250520D02*
G75*
G03*
X9215920Y-22250520I-39000J0D01*
G01*
X9215920Y-22250520D02*
G75*
G03*
X9293920Y-22250520I39000J0D01*
G01*
X9293920Y-22900520D02*
G75*
G03*
X9215920Y-22900520I-39000J0D01*
G01*
X9215920Y-22900520D02*
G75*
G03*
X9293920Y-22900520I39000J0D01*
G01*
X9293920Y-24282520D02*
G75*
G03*
X9215920Y-24282520I-39000J0D01*
G01*
X9215920Y-24282520D02*
G75*
G03*
X9293920Y-24282520I39000J0D01*
G01*
X9293920Y-24932520D02*
G75*
G03*
X9215920Y-24932520I-39000J0D01*
G01*
X9215920Y-24932520D02*
G75*
G03*
X9293920Y-24932520I39000J0D01*
G01*
X9393920Y-18386520D02*
G75*
G03*
X9315920Y-18386520I-39000J0D01*
G01*
X9315920Y-18386520D02*
G75*
G03*
X9393920Y-18386520I39000J0D01*
G01*
X9393920Y-18636520D02*
G75*
G03*
X9315920Y-18636520I-39000J0D01*
G01*
X9315920Y-18636520D02*
G75*
G03*
X9393920Y-18636520I39000J0D01*
G01*
X9393920Y-20418520D02*
G75*
G03*
X9315920Y-20418520I-39000J0D01*
G01*
X9315920Y-20418520D02*
G75*
G03*
X9393920Y-20418520I39000J0D01*
G01*
X9393920Y-20668520D02*
G75*
G03*
X9315920Y-20668520I-39000J0D01*
G01*
X9315920Y-20668520D02*
G75*
G03*
X9393920Y-20668520I39000J0D01*
G01*
X9393920Y-22450520D02*
G75*
G03*
X9315920Y-22450520I-39000J0D01*
G01*
X9315920Y-22450520D02*
G75*
G03*
X9393920Y-22450520I39000J0D01*
G01*
X9393920Y-22700520D02*
G75*
G03*
X9315920Y-22700520I-39000J0D01*
G01*
X9315920Y-22700520D02*
G75*
G03*
X9393920Y-22700520I39000J0D01*
G01*
X9393920Y-24482520D02*
G75*
G03*
X9315920Y-24482520I-39000J0D01*
G01*
X9315920Y-24482520D02*
G75*
G03*
X9393920Y-24482520I39000J0D01*
G01*
X9393920Y-24732520D02*
G75*
G03*
X9315920Y-24732520I-39000J0D01*
G01*
X9315920Y-24732520D02*
G75*
G03*
X9393920Y-24732520I39000J0D01*
G01*
X9693920Y-18186520D02*
G75*
G03*
X9615920Y-18186520I-39000J0D01*
G01*
X9615920Y-18186520D02*
G75*
G03*
X9693920Y-18186520I39000J0D01*
G01*
X9693920Y-18836520D02*
G75*
G03*
X9615920Y-18836520I-39000J0D01*
G01*
X9615920Y-18836520D02*
G75*
G03*
X9693920Y-18836520I39000J0D01*
G01*
X9693920Y-20218520D02*
G75*
G03*
X9615920Y-20218520I-39000J0D01*
G01*
X9615920Y-20218520D02*
G75*
G03*
X9693920Y-20218520I39000J0D01*
G01*
X9693920Y-20868520D02*
G75*
G03*
X9615920Y-20868520I-39000J0D01*
G01*
X9615920Y-20868520D02*
G75*
G03*
X9693920Y-20868520I39000J0D01*
G01*
X9693920Y-22250520D02*
G75*
G03*
X9615920Y-22250520I-39000J0D01*
G01*
X9615920Y-22250520D02*
G75*
G03*
X9693920Y-22250520I39000J0D01*
G01*
X9693920Y-22900520D02*
G75*
G03*
X9615920Y-22900520I-39000J0D01*
G01*
X9615920Y-22900520D02*
G75*
G03*
X9693920Y-22900520I39000J0D01*
G01*
X9693920Y-24282520D02*
G75*
G03*
X9615920Y-24282520I-39000J0D01*
G01*
X9615920Y-24282520D02*
G75*
G03*
X9693920Y-24282520I39000J0D01*
G01*
X9693920Y-24932520D02*
G75*
G03*
X9615920Y-24932520I-39000J0D01*
G01*
X9615920Y-24932520D02*
G75*
G03*
X9693920Y-24932520I39000J0D01*
G01*
X9793920Y-18386520D02*
G75*
G03*
X9715920Y-18386520I-39000J0D01*
G01*
X9715920Y-18386520D02*
G75*
G03*
X9793920Y-18386520I39000J0D01*
G01*
X9793920Y-18636520D02*
G75*
G03*
X9715920Y-18636520I-39000J0D01*
G01*
X9715920Y-18636520D02*
G75*
G03*
X9793920Y-18636520I39000J0D01*
G01*
X9793920Y-20418520D02*
G75*
G03*
X9715920Y-20418520I-39000J0D01*
G01*
X9715920Y-20418520D02*
G75*
G03*
X9793920Y-20418520I39000J0D01*
G01*
X9793920Y-20668520D02*
G75*
G03*
X9715920Y-20668520I-39000J0D01*
G01*
X9715920Y-20668520D02*
G75*
G03*
X9793920Y-20668520I39000J0D01*
G01*
X9793920Y-22450520D02*
G75*
G03*
X9715920Y-22450520I-39000J0D01*
G01*
X9715920Y-22450520D02*
G75*
G03*
X9793920Y-22450520I39000J0D01*
G01*
X9793920Y-22700520D02*
G75*
G03*
X9715920Y-22700520I-39000J0D01*
G01*
X9715920Y-22700520D02*
G75*
G03*
X9793920Y-22700520I39000J0D01*
G01*
X9793920Y-24482520D02*
G75*
G03*
X9715920Y-24482520I-39000J0D01*
G01*
X9715920Y-24482520D02*
G75*
G03*
X9793920Y-24482520I39000J0D01*
G01*
X9793920Y-24732520D02*
G75*
G03*
X9715920Y-24732520I-39000J0D01*
G01*
X9715920Y-24732520D02*
G75*
G03*
X9793920Y-24732520I39000J0D01*
G01*
X9893920Y-18186520D02*
G75*
G03*
X9815920Y-18186520I-39000J0D01*
G01*
X9815920Y-18186520D02*
G75*
G03*
X9893920Y-18186520I39000J0D01*
G01*
X9893920Y-18836520D02*
G75*
G03*
X9815920Y-18836520I-39000J0D01*
G01*
X9815920Y-18836520D02*
G75*
G03*
X9893920Y-18836520I39000J0D01*
G01*
X9893920Y-20218520D02*
G75*
G03*
X9815920Y-20218520I-39000J0D01*
G01*
X9815920Y-20218520D02*
G75*
G03*
X9893920Y-20218520I39000J0D01*
G01*
X9893920Y-20868520D02*
G75*
G03*
X9815920Y-20868520I-39000J0D01*
G01*
X9815920Y-20868520D02*
G75*
G03*
X9893920Y-20868520I39000J0D01*
G01*
X9893920Y-22250520D02*
G75*
G03*
X9815920Y-22250520I-39000J0D01*
G01*
X9815920Y-22250520D02*
G75*
G03*
X9893920Y-22250520I39000J0D01*
G01*
X9893920Y-22900520D02*
G75*
G03*
X9815920Y-22900520I-39000J0D01*
G01*
X9815920Y-22900520D02*
G75*
G03*
X9893920Y-22900520I39000J0D01*
G01*
X9893920Y-24282520D02*
G75*
G03*
X9815920Y-24282520I-39000J0D01*
G01*
X9815920Y-24282520D02*
G75*
G03*
X9893920Y-24282520I39000J0D01*
G01*
X9893920Y-24932520D02*
G75*
G03*
X9815920Y-24932520I-39000J0D01*
G01*
X9815920Y-24932520D02*
G75*
G03*
X9893920Y-24932520I39000J0D01*
G01*
X9993920Y-18386520D02*
G75*
G03*
X9915920Y-18386520I-39000J0D01*
G01*
X9915920Y-18386520D02*
G75*
G03*
X9993920Y-18386520I39000J0D01*
G01*
X9993920Y-18636520D02*
G75*
G03*
X9915920Y-18636520I-39000J0D01*
G01*
X9915920Y-18636520D02*
G75*
G03*
X9993920Y-18636520I39000J0D01*
G01*
X9993920Y-20418520D02*
G75*
G03*
X9915920Y-20418520I-39000J0D01*
G01*
X9915920Y-20418520D02*
G75*
G03*
X9993920Y-20418520I39000J0D01*
G01*
X9993920Y-20668520D02*
G75*
G03*
X9915920Y-20668520I-39000J0D01*
G01*
X9915920Y-20668520D02*
G75*
G03*
X9993920Y-20668520I39000J0D01*
G01*
X9993920Y-22450520D02*
G75*
G03*
X9915920Y-22450520I-39000J0D01*
G01*
X9915920Y-22450520D02*
G75*
G03*
X9993920Y-22450520I39000J0D01*
G01*
X9993920Y-22700520D02*
G75*
G03*
X9915920Y-22700520I-39000J0D01*
G01*
X9915920Y-22700520D02*
G75*
G03*
X9993920Y-22700520I39000J0D01*
G01*
X9993920Y-24482520D02*
G75*
G03*
X9915920Y-24482520I-39000J0D01*
G01*
X9915920Y-24482520D02*
G75*
G03*
X9993920Y-24482520I39000J0D01*
G01*
X9993920Y-24732520D02*
G75*
G03*
X9915920Y-24732520I-39000J0D01*
G01*
X9915920Y-24732520D02*
G75*
G03*
X9993920Y-24732520I39000J0D01*
G01*
X10093920Y-18186520D02*
G75*
G03*
X10015920Y-18186520I-39000J0D01*
G01*
X10015920Y-18186520D02*
G75*
G03*
X10093920Y-18186520I39000J0D01*
G01*
X10093920Y-18836520D02*
G75*
G03*
X10015920Y-18836520I-39000J0D01*
G01*
X10015920Y-18836520D02*
G75*
G03*
X10093920Y-18836520I39000J0D01*
G01*
X10093920Y-20218520D02*
G75*
G03*
X10015920Y-20218520I-39000J0D01*
G01*
X10015920Y-20218520D02*
G75*
G03*
X10093920Y-20218520I39000J0D01*
G01*
X10093920Y-20868520D02*
G75*
G03*
X10015920Y-20868520I-39000J0D01*
G01*
X10015920Y-20868520D02*
G75*
G03*
X10093920Y-20868520I39000J0D01*
G01*
X10093920Y-22250520D02*
G75*
G03*
X10015920Y-22250520I-39000J0D01*
G01*
X10015920Y-22250520D02*
G75*
G03*
X10093920Y-22250520I39000J0D01*
G01*
X10093920Y-22900520D02*
G75*
G03*
X10015920Y-22900520I-39000J0D01*
G01*
X10015920Y-22900520D02*
G75*
G03*
X10093920Y-22900520I39000J0D01*
G01*
X10093920Y-24282520D02*
G75*
G03*
X10015920Y-24282520I-39000J0D01*
G01*
X10015920Y-24282520D02*
G75*
G03*
X10093920Y-24282520I39000J0D01*
G01*
X10093920Y-24932520D02*
G75*
G03*
X10015920Y-24932520I-39000J0D01*
G01*
X10015920Y-24932520D02*
G75*
G03*
X10093920Y-24932520I39000J0D01*
G01*
X10193920Y-18386520D02*
G75*
G03*
X10115920Y-18386520I-39000J0D01*
G01*
X10115920Y-18386520D02*
G75*
G03*
X10193920Y-18386520I39000J0D01*
G01*
X10193920Y-18636520D02*
G75*
G03*
X10115920Y-18636520I-39000J0D01*
G01*
X10115920Y-18636520D02*
G75*
G03*
X10193920Y-18636520I39000J0D01*
G01*
X10193920Y-20418520D02*
G75*
G03*
X10115920Y-20418520I-39000J0D01*
G01*
X10115920Y-20418520D02*
G75*
G03*
X10193920Y-20418520I39000J0D01*
G01*
X10193920Y-20668520D02*
G75*
G03*
X10115920Y-20668520I-39000J0D01*
G01*
X10115920Y-20668520D02*
G75*
G03*
X10193920Y-20668520I39000J0D01*
G01*
X10193920Y-22450520D02*
G75*
G03*
X10115920Y-22450520I-39000J0D01*
G01*
X10115920Y-22450520D02*
G75*
G03*
X10193920Y-22450520I39000J0D01*
G01*
X10193920Y-22700520D02*
G75*
G03*
X10115920Y-22700520I-39000J0D01*
G01*
X10115920Y-22700520D02*
G75*
G03*
X10193920Y-22700520I39000J0D01*
G01*
X10193920Y-24482520D02*
G75*
G03*
X10115920Y-24482520I-39000J0D01*
G01*
X10115920Y-24482520D02*
G75*
G03*
X10193920Y-24482520I39000J0D01*
G01*
X10193920Y-24732520D02*
G75*
G03*
X10115920Y-24732520I-39000J0D01*
G01*
X10115920Y-24732520D02*
G75*
G03*
X10193920Y-24732520I39000J0D01*
G01*
X10293920Y-18186520D02*
G75*
G03*
X10215920Y-18186520I-39000J0D01*
G01*
X10215920Y-18186520D02*
G75*
G03*
X10293920Y-18186520I39000J0D01*
G01*
X10293920Y-18836520D02*
G75*
G03*
X10215920Y-18836520I-39000J0D01*
G01*
X10215920Y-18836520D02*
G75*
G03*
X10293920Y-18836520I39000J0D01*
G01*
X10293920Y-20218520D02*
G75*
G03*
X10215920Y-20218520I-39000J0D01*
G01*
X10215920Y-20218520D02*
G75*
G03*
X10293920Y-20218520I39000J0D01*
G01*
X10293920Y-20868520D02*
G75*
G03*
X10215920Y-20868520I-39000J0D01*
G01*
X10215920Y-20868520D02*
G75*
G03*
X10293920Y-20868520I39000J0D01*
G01*
X10293920Y-22250520D02*
G75*
G03*
X10215920Y-22250520I-39000J0D01*
G01*
X10215920Y-22250520D02*
G75*
G03*
X10293920Y-22250520I39000J0D01*
G01*
X10293920Y-22900520D02*
G75*
G03*
X10215920Y-22900520I-39000J0D01*
G01*
X10215920Y-22900520D02*
G75*
G03*
X10293920Y-22900520I39000J0D01*
G01*
X10293920Y-24282520D02*
G75*
G03*
X10215920Y-24282520I-39000J0D01*
G01*
X10215920Y-24282520D02*
G75*
G03*
X10293920Y-24282520I39000J0D01*
G01*
X10293920Y-24932520D02*
G75*
G03*
X10215920Y-24932520I-39000J0D01*
G01*
X10215920Y-24932520D02*
G75*
G03*
X10293920Y-24932520I39000J0D01*
G01*
X10393920Y-18386520D02*
G75*
G03*
X10315920Y-18386520I-39000J0D01*
G01*
X10315920Y-18386520D02*
G75*
G03*
X10393920Y-18386520I39000J0D01*
G01*
X10393920Y-18636520D02*
G75*
G03*
X10315920Y-18636520I-39000J0D01*
G01*
X10315920Y-18636520D02*
G75*
G03*
X10393920Y-18636520I39000J0D01*
G01*
X10393920Y-20418520D02*
G75*
G03*
X10315920Y-20418520I-39000J0D01*
G01*
X10315920Y-20418520D02*
G75*
G03*
X10393920Y-20418520I39000J0D01*
G01*
X10393920Y-20668520D02*
G75*
G03*
X10315920Y-20668520I-39000J0D01*
G01*
X10315920Y-20668520D02*
G75*
G03*
X10393920Y-20668520I39000J0D01*
G01*
X10393920Y-22450520D02*
G75*
G03*
X10315920Y-22450520I-39000J0D01*
G01*
X10315920Y-22450520D02*
G75*
G03*
X10393920Y-22450520I39000J0D01*
G01*
X10393920Y-22700520D02*
G75*
G03*
X10315920Y-22700520I-39000J0D01*
G01*
X10315920Y-22700520D02*
G75*
G03*
X10393920Y-22700520I39000J0D01*
G01*
X10393920Y-24482520D02*
G75*
G03*
X10315920Y-24482520I-39000J0D01*
G01*
X10315920Y-24482520D02*
G75*
G03*
X10393920Y-24482520I39000J0D01*
G01*
X10393920Y-24732520D02*
G75*
G03*
X10315920Y-24732520I-39000J0D01*
G01*
X10315920Y-24732520D02*
G75*
G03*
X10393920Y-24732520I39000J0D01*
G01*
X10493920Y-18186520D02*
G75*
G03*
X10415920Y-18186520I-39000J0D01*
G01*
X10415920Y-18186520D02*
G75*
G03*
X10493920Y-18186520I39000J0D01*
G01*
X10493920Y-18836520D02*
G75*
G03*
X10415920Y-18836520I-39000J0D01*
G01*
X10415920Y-18836520D02*
G75*
G03*
X10493920Y-18836520I39000J0D01*
G01*
X10493920Y-20218520D02*
G75*
G03*
X10415920Y-20218520I-39000J0D01*
G01*
X10415920Y-20218520D02*
G75*
G03*
X10493920Y-20218520I39000J0D01*
G01*
X10493920Y-20868520D02*
G75*
G03*
X10415920Y-20868520I-39000J0D01*
G01*
X10415920Y-20868520D02*
G75*
G03*
X10493920Y-20868520I39000J0D01*
G01*
X10493920Y-22250520D02*
G75*
G03*
X10415920Y-22250520I-39000J0D01*
G01*
X10415920Y-22250520D02*
G75*
G03*
X10493920Y-22250520I39000J0D01*
G01*
X10493920Y-22900520D02*
G75*
G03*
X10415920Y-22900520I-39000J0D01*
G01*
X10415920Y-22900520D02*
G75*
G03*
X10493920Y-22900520I39000J0D01*
G01*
X10493920Y-24282520D02*
G75*
G03*
X10415920Y-24282520I-39000J0D01*
G01*
X10415920Y-24282520D02*
G75*
G03*
X10493920Y-24282520I39000J0D01*
G01*
X10493920Y-24932520D02*
G75*
G03*
X10415920Y-24932520I-39000J0D01*
G01*
X10415920Y-24932520D02*
G75*
G03*
X10493920Y-24932520I39000J0D01*
G01*
X10593920Y-18386520D02*
G75*
G03*
X10515920Y-18386520I-39000J0D01*
G01*
X10515920Y-18386520D02*
G75*
G03*
X10593920Y-18386520I39000J0D01*
G01*
X10593920Y-18636520D02*
G75*
G03*
X10515920Y-18636520I-39000J0D01*
G01*
X10515920Y-18636520D02*
G75*
G03*
X10593920Y-18636520I39000J0D01*
G01*
X10593920Y-20418520D02*
G75*
G03*
X10515920Y-20418520I-39000J0D01*
G01*
X10515920Y-20418520D02*
G75*
G03*
X10593920Y-20418520I39000J0D01*
G01*
X10593920Y-20668520D02*
G75*
G03*
X10515920Y-20668520I-39000J0D01*
G01*
X10515920Y-20668520D02*
G75*
G03*
X10593920Y-20668520I39000J0D01*
G01*
X10593920Y-22450520D02*
G75*
G03*
X10515920Y-22450520I-39000J0D01*
G01*
X10515920Y-22450520D02*
G75*
G03*
X10593920Y-22450520I39000J0D01*
G01*
X10593920Y-22700520D02*
G75*
G03*
X10515920Y-22700520I-39000J0D01*
G01*
X10515920Y-22700520D02*
G75*
G03*
X10593920Y-22700520I39000J0D01*
G01*
X10593920Y-24482520D02*
G75*
G03*
X10515920Y-24482520I-39000J0D01*
G01*
X10515920Y-24482520D02*
G75*
G03*
X10593920Y-24482520I39000J0D01*
G01*
X10593920Y-24732520D02*
G75*
G03*
X10515920Y-24732520I-39000J0D01*
G01*
X10515920Y-24732520D02*
G75*
G03*
X10593920Y-24732520I39000J0D01*
G01*
X10693920Y-18186520D02*
G75*
G03*
X10615920Y-18186520I-39000J0D01*
G01*
X10615920Y-18186520D02*
G75*
G03*
X10693920Y-18186520I39000J0D01*
G01*
X10693920Y-18836520D02*
G75*
G03*
X10615920Y-18836520I-39000J0D01*
G01*
X10615920Y-18836520D02*
G75*
G03*
X10693920Y-18836520I39000J0D01*
G01*
X10693920Y-20218520D02*
G75*
G03*
X10615920Y-20218520I-39000J0D01*
G01*
X10615920Y-20218520D02*
G75*
G03*
X10693920Y-20218520I39000J0D01*
G01*
X10693920Y-20868520D02*
G75*
G03*
X10615920Y-20868520I-39000J0D01*
G01*
X10615920Y-20868520D02*
G75*
G03*
X10693920Y-20868520I39000J0D01*
G01*
X10693920Y-22250520D02*
G75*
G03*
X10615920Y-22250520I-39000J0D01*
G01*
X10615920Y-22250520D02*
G75*
G03*
X10693920Y-22250520I39000J0D01*
G01*
X10693920Y-22900520D02*
G75*
G03*
X10615920Y-22900520I-39000J0D01*
G01*
X10615920Y-22900520D02*
G75*
G03*
X10693920Y-22900520I39000J0D01*
G01*
X10693920Y-24282520D02*
G75*
G03*
X10615920Y-24282520I-39000J0D01*
G01*
X10615920Y-24282520D02*
G75*
G03*
X10693920Y-24282520I39000J0D01*
G01*
X10693920Y-24932520D02*
G75*
G03*
X10615920Y-24932520I-39000J0D01*
G01*
X10615920Y-24932520D02*
G75*
G03*
X10693920Y-24932520I39000J0D01*
G01*
X10793920Y-18386520D02*
G75*
G03*
X10715920Y-18386520I-39000J0D01*
G01*
X10715920Y-18386520D02*
G75*
G03*
X10793920Y-18386520I39000J0D01*
G01*
X10793920Y-18636520D02*
G75*
G03*
X10715920Y-18636520I-39000J0D01*
G01*
X10715920Y-18636520D02*
G75*
G03*
X10793920Y-18636520I39000J0D01*
G01*
X10793920Y-20418520D02*
G75*
G03*
X10715920Y-20418520I-39000J0D01*
G01*
X10715920Y-20418520D02*
G75*
G03*
X10793920Y-20418520I39000J0D01*
G01*
X10793920Y-20668520D02*
G75*
G03*
X10715920Y-20668520I-39000J0D01*
G01*
X10715920Y-20668520D02*
G75*
G03*
X10793920Y-20668520I39000J0D01*
G01*
X10793920Y-22450520D02*
G75*
G03*
X10715920Y-22450520I-39000J0D01*
G01*
X10715920Y-22450520D02*
G75*
G03*
X10793920Y-22450520I39000J0D01*
G01*
X10793920Y-22700520D02*
G75*
G03*
X10715920Y-22700520I-39000J0D01*
G01*
X10715920Y-22700520D02*
G75*
G03*
X10793920Y-22700520I39000J0D01*
G01*
X10793920Y-24482520D02*
G75*
G03*
X10715920Y-24482520I-39000J0D01*
G01*
X10715920Y-24482520D02*
G75*
G03*
X10793920Y-24482520I39000J0D01*
G01*
X10793920Y-24732520D02*
G75*
G03*
X10715920Y-24732520I-39000J0D01*
G01*
X10715920Y-24732520D02*
G75*
G03*
X10793920Y-24732520I39000J0D01*
G01*
X10893920Y-18186520D02*
G75*
G03*
X10815920Y-18186520I-39000J0D01*
G01*
X10815920Y-18186520D02*
G75*
G03*
X10893920Y-18186520I39000J0D01*
G01*
X10893920Y-18836520D02*
G75*
G03*
X10815920Y-18836520I-39000J0D01*
G01*
X10815920Y-18836520D02*
G75*
G03*
X10893920Y-18836520I39000J0D01*
G01*
X10893920Y-20218520D02*
G75*
G03*
X10815920Y-20218520I-39000J0D01*
G01*
X10815920Y-20218520D02*
G75*
G03*
X10893920Y-20218520I39000J0D01*
G01*
X10893920Y-20868520D02*
G75*
G03*
X10815920Y-20868520I-39000J0D01*
G01*
X10815920Y-20868520D02*
G75*
G03*
X10893920Y-20868520I39000J0D01*
G01*
X10893920Y-22250520D02*
G75*
G03*
X10815920Y-22250520I-39000J0D01*
G01*
X10815920Y-22250520D02*
G75*
G03*
X10893920Y-22250520I39000J0D01*
G01*
X10893920Y-22900520D02*
G75*
G03*
X10815920Y-22900520I-39000J0D01*
G01*
X10815920Y-22900520D02*
G75*
G03*
X10893920Y-22900520I39000J0D01*
G01*
X10893920Y-24282520D02*
G75*
G03*
X10815920Y-24282520I-39000J0D01*
G01*
X10815920Y-24282520D02*
G75*
G03*
X10893920Y-24282520I39000J0D01*
G01*
X10893920Y-24932520D02*
G75*
G03*
X10815920Y-24932520I-39000J0D01*
G01*
X10815920Y-24932520D02*
G75*
G03*
X10893920Y-24932520I39000J0D01*
G01*
X10993920Y-18386520D02*
G75*
G03*
X10915920Y-18386520I-39000J0D01*
G01*
X10915920Y-18386520D02*
G75*
G03*
X10993920Y-18386520I39000J0D01*
G01*
X10993920Y-18636520D02*
G75*
G03*
X10915920Y-18636520I-39000J0D01*
G01*
X10915920Y-18636520D02*
G75*
G03*
X10993920Y-18636520I39000J0D01*
G01*
X10993920Y-20418520D02*
G75*
G03*
X10915920Y-20418520I-39000J0D01*
G01*
X10915920Y-20418520D02*
G75*
G03*
X10993920Y-20418520I39000J0D01*
G01*
X10993920Y-20668520D02*
G75*
G03*
X10915920Y-20668520I-39000J0D01*
G01*
X10915920Y-20668520D02*
G75*
G03*
X10993920Y-20668520I39000J0D01*
G01*
X10993920Y-22450520D02*
G75*
G03*
X10915920Y-22450520I-39000J0D01*
G01*
X10915920Y-22450520D02*
G75*
G03*
X10993920Y-22450520I39000J0D01*
G01*
X10993920Y-22700520D02*
G75*
G03*
X10915920Y-22700520I-39000J0D01*
G01*
X10915920Y-22700520D02*
G75*
G03*
X10993920Y-22700520I39000J0D01*
G01*
X10993920Y-24482520D02*
G75*
G03*
X10915920Y-24482520I-39000J0D01*
G01*
X10915920Y-24482520D02*
G75*
G03*
X10993920Y-24482520I39000J0D01*
G01*
X10993920Y-24732520D02*
G75*
G03*
X10915920Y-24732520I-39000J0D01*
G01*
X10915920Y-24732520D02*
G75*
G03*
X10993920Y-24732520I39000J0D01*
G01*
X11093920Y-18186520D02*
G75*
G03*
X11015920Y-18186520I-39000J0D01*
G01*
X11015920Y-18186520D02*
G75*
G03*
X11093920Y-18186520I39000J0D01*
G01*
X11093920Y-18836520D02*
G75*
G03*
X11015920Y-18836520I-39000J0D01*
G01*
X11015920Y-18836520D02*
G75*
G03*
X11093920Y-18836520I39000J0D01*
G01*
X11093920Y-20218520D02*
G75*
G03*
X11015920Y-20218520I-39000J0D01*
G01*
X11015920Y-20218520D02*
G75*
G03*
X11093920Y-20218520I39000J0D01*
G01*
X11093920Y-20868520D02*
G75*
G03*
X11015920Y-20868520I-39000J0D01*
G01*
X11015920Y-20868520D02*
G75*
G03*
X11093920Y-20868520I39000J0D01*
G01*
X11093920Y-22250520D02*
G75*
G03*
X11015920Y-22250520I-39000J0D01*
G01*
X11015920Y-22250520D02*
G75*
G03*
X11093920Y-22250520I39000J0D01*
G01*
X11093920Y-22900520D02*
G75*
G03*
X11015920Y-22900520I-39000J0D01*
G01*
X11015920Y-22900520D02*
G75*
G03*
X11093920Y-22900520I39000J0D01*
G01*
X11093920Y-24282520D02*
G75*
G03*
X11015920Y-24282520I-39000J0D01*
G01*
X11015920Y-24282520D02*
G75*
G03*
X11093920Y-24282520I39000J0D01*
G01*
X11093920Y-24932520D02*
G75*
G03*
X11015920Y-24932520I-39000J0D01*
G01*
X11015920Y-24932520D02*
G75*
G03*
X11093920Y-24932520I39000J0D01*
G01*
X11193920Y-18386520D02*
G75*
G03*
X11115920Y-18386520I-39000J0D01*
G01*
X11115920Y-18386520D02*
G75*
G03*
X11193920Y-18386520I39000J0D01*
G01*
X11193920Y-18636520D02*
G75*
G03*
X11115920Y-18636520I-39000J0D01*
G01*
X11115920Y-18636520D02*
G75*
G03*
X11193920Y-18636520I39000J0D01*
G01*
X11193920Y-20418520D02*
G75*
G03*
X11115920Y-20418520I-39000J0D01*
G01*
X11115920Y-20418520D02*
G75*
G03*
X11193920Y-20418520I39000J0D01*
G01*
X11193920Y-20668520D02*
G75*
G03*
X11115920Y-20668520I-39000J0D01*
G01*
X11115920Y-20668520D02*
G75*
G03*
X11193920Y-20668520I39000J0D01*
G01*
X11193920Y-22450520D02*
G75*
G03*
X11115920Y-22450520I-39000J0D01*
G01*
X11115920Y-22450520D02*
G75*
G03*
X11193920Y-22450520I39000J0D01*
G01*
X11193920Y-22700520D02*
G75*
G03*
X11115920Y-22700520I-39000J0D01*
G01*
X11115920Y-22700520D02*
G75*
G03*
X11193920Y-22700520I39000J0D01*
G01*
X11193920Y-24482520D02*
G75*
G03*
X11115920Y-24482520I-39000J0D01*
G01*
X11115920Y-24482520D02*
G75*
G03*
X11193920Y-24482520I39000J0D01*
G01*
X11193920Y-24732520D02*
G75*
G03*
X11115920Y-24732520I-39000J0D01*
G01*
X11115920Y-24732520D02*
G75*
G03*
X11193920Y-24732520I39000J0D01*
G01*
X11293920Y-18186520D02*
G75*
G03*
X11215920Y-18186520I-39000J0D01*
G01*
X11215920Y-18186520D02*
G75*
G03*
X11293920Y-18186520I39000J0D01*
G01*
X11293920Y-18836520D02*
G75*
G03*
X11215920Y-18836520I-39000J0D01*
G01*
X11215920Y-18836520D02*
G75*
G03*
X11293920Y-18836520I39000J0D01*
G01*
X11293920Y-20218520D02*
G75*
G03*
X11215920Y-20218520I-39000J0D01*
G01*
X11215920Y-20218520D02*
G75*
G03*
X11293920Y-20218520I39000J0D01*
G01*
X11293920Y-20868520D02*
G75*
G03*
X11215920Y-20868520I-39000J0D01*
G01*
X11215920Y-20868520D02*
G75*
G03*
X11293920Y-20868520I39000J0D01*
G01*
X11293920Y-22250520D02*
G75*
G03*
X11215920Y-22250520I-39000J0D01*
G01*
X11215920Y-22250520D02*
G75*
G03*
X11293920Y-22250520I39000J0D01*
G01*
X11293920Y-22900520D02*
G75*
G03*
X11215920Y-22900520I-39000J0D01*
G01*
X11215920Y-22900520D02*
G75*
G03*
X11293920Y-22900520I39000J0D01*
G01*
X11293920Y-24282520D02*
G75*
G03*
X11215920Y-24282520I-39000J0D01*
G01*
X11215920Y-24282520D02*
G75*
G03*
X11293920Y-24282520I39000J0D01*
G01*
X11293920Y-24932520D02*
G75*
G03*
X11215920Y-24932520I-39000J0D01*
G01*
X11215920Y-24932520D02*
G75*
G03*
X11293920Y-24932520I39000J0D01*
G01*
X11393920Y-18386520D02*
G75*
G03*
X11315920Y-18386520I-39000J0D01*
G01*
X11315920Y-18386520D02*
G75*
G03*
X11393920Y-18386520I39000J0D01*
G01*
X11393920Y-18636520D02*
G75*
G03*
X11315920Y-18636520I-39000J0D01*
G01*
X11315920Y-18636520D02*
G75*
G03*
X11393920Y-18636520I39000J0D01*
G01*
X11393920Y-20418520D02*
G75*
G03*
X11315920Y-20418520I-39000J0D01*
G01*
X11315920Y-20418520D02*
G75*
G03*
X11393920Y-20418520I39000J0D01*
G01*
X11393920Y-20668520D02*
G75*
G03*
X11315920Y-20668520I-39000J0D01*
G01*
X11315920Y-20668520D02*
G75*
G03*
X11393920Y-20668520I39000J0D01*
G01*
X11393920Y-22450520D02*
G75*
G03*
X11315920Y-22450520I-39000J0D01*
G01*
X11315920Y-22450520D02*
G75*
G03*
X11393920Y-22450520I39000J0D01*
G01*
X11393920Y-22700520D02*
G75*
G03*
X11315920Y-22700520I-39000J0D01*
G01*
X11315920Y-22700520D02*
G75*
G03*
X11393920Y-22700520I39000J0D01*
G01*
X11393920Y-24482520D02*
G75*
G03*
X11315920Y-24482520I-39000J0D01*
G01*
X11315920Y-24482520D02*
G75*
G03*
X11393920Y-24482520I39000J0D01*
G01*
X11393920Y-24732520D02*
G75*
G03*
X11315920Y-24732520I-39000J0D01*
G01*
X11315920Y-24732520D02*
G75*
G03*
X11393920Y-24732520I39000J0D01*
G01*
X11493920Y-18186520D02*
G75*
G03*
X11415920Y-18186520I-39000J0D01*
G01*
X11415920Y-18186520D02*
G75*
G03*
X11493920Y-18186520I39000J0D01*
G01*
X11493920Y-18836520D02*
G75*
G03*
X11415920Y-18836520I-39000J0D01*
G01*
X11415920Y-18836520D02*
G75*
G03*
X11493920Y-18836520I39000J0D01*
G01*
X11493920Y-20218520D02*
G75*
G03*
X11415920Y-20218520I-39000J0D01*
G01*
X11415920Y-20218520D02*
G75*
G03*
X11493920Y-20218520I39000J0D01*
G01*
X11493920Y-20868520D02*
G75*
G03*
X11415920Y-20868520I-39000J0D01*
G01*
X11415920Y-20868520D02*
G75*
G03*
X11493920Y-20868520I39000J0D01*
G01*
X11493920Y-22250520D02*
G75*
G03*
X11415920Y-22250520I-39000J0D01*
G01*
X11415920Y-22250520D02*
G75*
G03*
X11493920Y-22250520I39000J0D01*
G01*
X11493920Y-22900520D02*
G75*
G03*
X11415920Y-22900520I-39000J0D01*
G01*
X11415920Y-22900520D02*
G75*
G03*
X11493920Y-22900520I39000J0D01*
G01*
X11493920Y-24282520D02*
G75*
G03*
X11415920Y-24282520I-39000J0D01*
G01*
X11415920Y-24282520D02*
G75*
G03*
X11493920Y-24282520I39000J0D01*
G01*
X11493920Y-24932520D02*
G75*
G03*
X11415920Y-24932520I-39000J0D01*
G01*
X11415920Y-24932520D02*
G75*
G03*
X11493920Y-24932520I39000J0D01*
G01*
X11593920Y-18386520D02*
G75*
G03*
X11515920Y-18386520I-39000J0D01*
G01*
X11515920Y-18386520D02*
G75*
G03*
X11593920Y-18386520I39000J0D01*
G01*
X11593920Y-18636520D02*
G75*
G03*
X11515920Y-18636520I-39000J0D01*
G01*
X11515920Y-18636520D02*
G75*
G03*
X11593920Y-18636520I39000J0D01*
G01*
X11593920Y-20418520D02*
G75*
G03*
X11515920Y-20418520I-39000J0D01*
G01*
X11515920Y-20418520D02*
G75*
G03*
X11593920Y-20418520I39000J0D01*
G01*
X11593920Y-20668520D02*
G75*
G03*
X11515920Y-20668520I-39000J0D01*
G01*
X11515920Y-20668520D02*
G75*
G03*
X11593920Y-20668520I39000J0D01*
G01*
X11593920Y-22450520D02*
G75*
G03*
X11515920Y-22450520I-39000J0D01*
G01*
X11515920Y-22450520D02*
G75*
G03*
X11593920Y-22450520I39000J0D01*
G01*
X11593920Y-22700520D02*
G75*
G03*
X11515920Y-22700520I-39000J0D01*
G01*
X11515920Y-22700520D02*
G75*
G03*
X11593920Y-22700520I39000J0D01*
G01*
X11593920Y-24482520D02*
G75*
G03*
X11515920Y-24482520I-39000J0D01*
G01*
X11515920Y-24482520D02*
G75*
G03*
X11593920Y-24482520I39000J0D01*
G01*
X11593920Y-24732520D02*
G75*
G03*
X11515920Y-24732520I-39000J0D01*
G01*
X11515920Y-24732520D02*
G75*
G03*
X11593920Y-24732520I39000J0D01*
G01*
X11693920Y-18186520D02*
G75*
G03*
X11615920Y-18186520I-39000J0D01*
G01*
X11615920Y-18186520D02*
G75*
G03*
X11693920Y-18186520I39000J0D01*
G01*
X11693920Y-18836520D02*
G75*
G03*
X11615920Y-18836520I-39000J0D01*
G01*
X11615920Y-18836520D02*
G75*
G03*
X11693920Y-18836520I39000J0D01*
G01*
X11693920Y-20218520D02*
G75*
G03*
X11615920Y-20218520I-39000J0D01*
G01*
X11615920Y-20218520D02*
G75*
G03*
X11693920Y-20218520I39000J0D01*
G01*
X11693920Y-20868520D02*
G75*
G03*
X11615920Y-20868520I-39000J0D01*
G01*
X11615920Y-20868520D02*
G75*
G03*
X11693920Y-20868520I39000J0D01*
G01*
X11693920Y-22250520D02*
G75*
G03*
X11615920Y-22250520I-39000J0D01*
G01*
X11615920Y-22250520D02*
G75*
G03*
X11693920Y-22250520I39000J0D01*
G01*
X11693920Y-22900520D02*
G75*
G03*
X11615920Y-22900520I-39000J0D01*
G01*
X11615920Y-22900520D02*
G75*
G03*
X11693920Y-22900520I39000J0D01*
G01*
X11693920Y-24282520D02*
G75*
G03*
X11615920Y-24282520I-39000J0D01*
G01*
X11615920Y-24282520D02*
G75*
G03*
X11693920Y-24282520I39000J0D01*
G01*
X11693920Y-24932520D02*
G75*
G03*
X11615920Y-24932520I-39000J0D01*
G01*
X11615920Y-24932520D02*
G75*
G03*
X11693920Y-24932520I39000J0D01*
G01*
X11793920Y-18386520D02*
G75*
G03*
X11715920Y-18386520I-39000J0D01*
G01*
X11715920Y-18386520D02*
G75*
G03*
X11793920Y-18386520I39000J0D01*
G01*
X11793920Y-18636520D02*
G75*
G03*
X11715920Y-18636520I-39000J0D01*
G01*
X11715920Y-18636520D02*
G75*
G03*
X11793920Y-18636520I39000J0D01*
G01*
X11793920Y-20418520D02*
G75*
G03*
X11715920Y-20418520I-39000J0D01*
G01*
X11715920Y-20418520D02*
G75*
G03*
X11793920Y-20418520I39000J0D01*
G01*
X11793920Y-20668520D02*
G75*
G03*
X11715920Y-20668520I-39000J0D01*
G01*
X11715920Y-20668520D02*
G75*
G03*
X11793920Y-20668520I39000J0D01*
G01*
X11793920Y-22450520D02*
G75*
G03*
X11715920Y-22450520I-39000J0D01*
G01*
X11715920Y-22450520D02*
G75*
G03*
X11793920Y-22450520I39000J0D01*
G01*
X11793920Y-22700520D02*
G75*
G03*
X11715920Y-22700520I-39000J0D01*
G01*
X11715920Y-22700520D02*
G75*
G03*
X11793920Y-22700520I39000J0D01*
G01*
X11793920Y-24482520D02*
G75*
G03*
X11715920Y-24482520I-39000J0D01*
G01*
X11715920Y-24482520D02*
G75*
G03*
X11793920Y-24482520I39000J0D01*
G01*
X11793920Y-24732520D02*
G75*
G03*
X11715920Y-24732520I-39000J0D01*
G01*
X11715920Y-24732520D02*
G75*
G03*
X11793920Y-24732520I39000J0D01*
G01*
X11893920Y-18186520D02*
G75*
G03*
X11815920Y-18186520I-39000J0D01*
G01*
X11815920Y-18186520D02*
G75*
G03*
X11893920Y-18186520I39000J0D01*
G01*
X11893920Y-18836520D02*
G75*
G03*
X11815920Y-18836520I-39000J0D01*
G01*
X11815920Y-18836520D02*
G75*
G03*
X11893920Y-18836520I39000J0D01*
G01*
X11893920Y-20218520D02*
G75*
G03*
X11815920Y-20218520I-39000J0D01*
G01*
X11815920Y-20218520D02*
G75*
G03*
X11893920Y-20218520I39000J0D01*
G01*
X11893920Y-20868520D02*
G75*
G03*
X11815920Y-20868520I-39000J0D01*
G01*
X11815920Y-20868520D02*
G75*
G03*
X11893920Y-20868520I39000J0D01*
G01*
X11893920Y-22250520D02*
G75*
G03*
X11815920Y-22250520I-39000J0D01*
G01*
X11815920Y-22250520D02*
G75*
G03*
X11893920Y-22250520I39000J0D01*
G01*
X11893920Y-22900520D02*
G75*
G03*
X11815920Y-22900520I-39000J0D01*
G01*
X11815920Y-22900520D02*
G75*
G03*
X11893920Y-22900520I39000J0D01*
G01*
X11893920Y-24282520D02*
G75*
G03*
X11815920Y-24282520I-39000J0D01*
G01*
X11815920Y-24282520D02*
G75*
G03*
X11893920Y-24282520I39000J0D01*
G01*
X11893920Y-24932520D02*
G75*
G03*
X11815920Y-24932520I-39000J0D01*
G01*
X11815920Y-24932520D02*
G75*
G03*
X11893920Y-24932520I39000J0D01*
G01*
X11993920Y-18386520D02*
G75*
G03*
X11915920Y-18386520I-39000J0D01*
G01*
X11915920Y-18386520D02*
G75*
G03*
X11993920Y-18386520I39000J0D01*
G01*
X11993920Y-18636520D02*
G75*
G03*
X11915920Y-18636520I-39000J0D01*
G01*
X11915920Y-18636520D02*
G75*
G03*
X11993920Y-18636520I39000J0D01*
G01*
X11993920Y-20418520D02*
G75*
G03*
X11915920Y-20418520I-39000J0D01*
G01*
X11915920Y-20418520D02*
G75*
G03*
X11993920Y-20418520I39000J0D01*
G01*
X11993920Y-20668520D02*
G75*
G03*
X11915920Y-20668520I-39000J0D01*
G01*
X11915920Y-20668520D02*
G75*
G03*
X11993920Y-20668520I39000J0D01*
G01*
X11993920Y-22450520D02*
G75*
G03*
X11915920Y-22450520I-39000J0D01*
G01*
X11915920Y-22450520D02*
G75*
G03*
X11993920Y-22450520I39000J0D01*
G01*
X11993920Y-22700520D02*
G75*
G03*
X11915920Y-22700520I-39000J0D01*
G01*
X11915920Y-22700520D02*
G75*
G03*
X11993920Y-22700520I39000J0D01*
G01*
X11993920Y-24482520D02*
G75*
G03*
X11915920Y-24482520I-39000J0D01*
G01*
X11915920Y-24482520D02*
G75*
G03*
X11993920Y-24482520I39000J0D01*
G01*
X11993920Y-24732520D02*
G75*
G03*
X11915920Y-24732520I-39000J0D01*
G01*
X11915920Y-24732520D02*
G75*
G03*
X11993920Y-24732520I39000J0D01*
G01*
X12093920Y-18186520D02*
G75*
G03*
X12015920Y-18186520I-39000J0D01*
G01*
X12015920Y-18186520D02*
G75*
G03*
X12093920Y-18186520I39000J0D01*
G01*
X12093920Y-18836520D02*
G75*
G03*
X12015920Y-18836520I-39000J0D01*
G01*
X12015920Y-18836520D02*
G75*
G03*
X12093920Y-18836520I39000J0D01*
G01*
X12093920Y-20218520D02*
G75*
G03*
X12015920Y-20218520I-39000J0D01*
G01*
X12015920Y-20218520D02*
G75*
G03*
X12093920Y-20218520I39000J0D01*
G01*
X12093920Y-20868520D02*
G75*
G03*
X12015920Y-20868520I-39000J0D01*
G01*
X12015920Y-20868520D02*
G75*
G03*
X12093920Y-20868520I39000J0D01*
G01*
X12093920Y-22250520D02*
G75*
G03*
X12015920Y-22250520I-39000J0D01*
G01*
X12015920Y-22250520D02*
G75*
G03*
X12093920Y-22250520I39000J0D01*
G01*
X12093920Y-22900520D02*
G75*
G03*
X12015920Y-22900520I-39000J0D01*
G01*
X12015920Y-22900520D02*
G75*
G03*
X12093920Y-22900520I39000J0D01*
G01*
X12093920Y-24282520D02*
G75*
G03*
X12015920Y-24282520I-39000J0D01*
G01*
X12015920Y-24282520D02*
G75*
G03*
X12093920Y-24282520I39000J0D01*
G01*
X12093920Y-24932520D02*
G75*
G03*
X12015920Y-24932520I-39000J0D01*
G01*
X12015920Y-24932520D02*
G75*
G03*
X12093920Y-24932520I39000J0D01*
G01*
X12193920Y-18386520D02*
G75*
G03*
X12115920Y-18386520I-39000J0D01*
G01*
X12115920Y-18386520D02*
G75*
G03*
X12193920Y-18386520I39000J0D01*
G01*
X12193920Y-18636520D02*
G75*
G03*
X12115920Y-18636520I-39000J0D01*
G01*
X12115920Y-18636520D02*
G75*
G03*
X12193920Y-18636520I39000J0D01*
G01*
X12193920Y-20418520D02*
G75*
G03*
X12115920Y-20418520I-39000J0D01*
G01*
X12115920Y-20418520D02*
G75*
G03*
X12193920Y-20418520I39000J0D01*
G01*
X12193920Y-20668520D02*
G75*
G03*
X12115920Y-20668520I-39000J0D01*
G01*
X12115920Y-20668520D02*
G75*
G03*
X12193920Y-20668520I39000J0D01*
G01*
X12193920Y-22450520D02*
G75*
G03*
X12115920Y-22450520I-39000J0D01*
G01*
X12115920Y-22450520D02*
G75*
G03*
X12193920Y-22450520I39000J0D01*
G01*
X12193920Y-22700520D02*
G75*
G03*
X12115920Y-22700520I-39000J0D01*
G01*
X12115920Y-22700520D02*
G75*
G03*
X12193920Y-22700520I39000J0D01*
G01*
X12193920Y-24482520D02*
G75*
G03*
X12115920Y-24482520I-39000J0D01*
G01*
X12115920Y-24482520D02*
G75*
G03*
X12193920Y-24482520I39000J0D01*
G01*
X12193920Y-24732520D02*
G75*
G03*
X12115920Y-24732520I-39000J0D01*
G01*
X12115920Y-24732520D02*
G75*
G03*
X12193920Y-24732520I39000J0D01*
G01*
X12293920Y-18186520D02*
G75*
G03*
X12215920Y-18186520I-39000J0D01*
G01*
X12215920Y-18186520D02*
G75*
G03*
X12293920Y-18186520I39000J0D01*
G01*
X12293920Y-18836520D02*
G75*
G03*
X12215920Y-18836520I-39000J0D01*
G01*
X12215920Y-18836520D02*
G75*
G03*
X12293920Y-18836520I39000J0D01*
G01*
X12293920Y-20218520D02*
G75*
G03*
X12215920Y-20218520I-39000J0D01*
G01*
X12215920Y-20218520D02*
G75*
G03*
X12293920Y-20218520I39000J0D01*
G01*
X12293920Y-20868520D02*
G75*
G03*
X12215920Y-20868520I-39000J0D01*
G01*
X12215920Y-20868520D02*
G75*
G03*
X12293920Y-20868520I39000J0D01*
G01*
X12293920Y-22250520D02*
G75*
G03*
X12215920Y-22250520I-39000J0D01*
G01*
X12215920Y-22250520D02*
G75*
G03*
X12293920Y-22250520I39000J0D01*
G01*
X12293920Y-22900520D02*
G75*
G03*
X12215920Y-22900520I-39000J0D01*
G01*
X12215920Y-22900520D02*
G75*
G03*
X12293920Y-22900520I39000J0D01*
G01*
X12293920Y-24282520D02*
G75*
G03*
X12215920Y-24282520I-39000J0D01*
G01*
X12215920Y-24282520D02*
G75*
G03*
X12293920Y-24282520I39000J0D01*
G01*
X12293920Y-24932520D02*
G75*
G03*
X12215920Y-24932520I-39000J0D01*
G01*
X12215920Y-24932520D02*
G75*
G03*
X12293920Y-24932520I39000J0D01*
G01*
X12393920Y-18386520D02*
G75*
G03*
X12315920Y-18386520I-39000J0D01*
G01*
X12315920Y-18386520D02*
G75*
G03*
X12393920Y-18386520I39000J0D01*
G01*
X12393920Y-18636520D02*
G75*
G03*
X12315920Y-18636520I-39000J0D01*
G01*
X12315920Y-18636520D02*
G75*
G03*
X12393920Y-18636520I39000J0D01*
G01*
X12393920Y-20418520D02*
G75*
G03*
X12315920Y-20418520I-39000J0D01*
G01*
X12315920Y-20418520D02*
G75*
G03*
X12393920Y-20418520I39000J0D01*
G01*
X12393920Y-20668520D02*
G75*
G03*
X12315920Y-20668520I-39000J0D01*
G01*
X12315920Y-20668520D02*
G75*
G03*
X12393920Y-20668520I39000J0D01*
G01*
X12393920Y-22450520D02*
G75*
G03*
X12315920Y-22450520I-39000J0D01*
G01*
X12315920Y-22450520D02*
G75*
G03*
X12393920Y-22450520I39000J0D01*
G01*
X12393920Y-22700520D02*
G75*
G03*
X12315920Y-22700520I-39000J0D01*
G01*
X12315920Y-22700520D02*
G75*
G03*
X12393920Y-22700520I39000J0D01*
G01*
X12393920Y-24482520D02*
G75*
G03*
X12315920Y-24482520I-39000J0D01*
G01*
X12315920Y-24482520D02*
G75*
G03*
X12393920Y-24482520I39000J0D01*
G01*
X12393920Y-24732520D02*
G75*
G03*
X12315920Y-24732520I-39000J0D01*
G01*
X12315920Y-24732520D02*
G75*
G03*
X12393920Y-24732520I39000J0D01*
G01*
X12493920Y-18186520D02*
G75*
G03*
X12415920Y-18186520I-39000J0D01*
G01*
X12415920Y-18186520D02*
G75*
G03*
X12493920Y-18186520I39000J0D01*
G01*
X12493920Y-18836520D02*
G75*
G03*
X12415920Y-18836520I-39000J0D01*
G01*
X12415920Y-18836520D02*
G75*
G03*
X12493920Y-18836520I39000J0D01*
G01*
X12493920Y-20218520D02*
G75*
G03*
X12415920Y-20218520I-39000J0D01*
G01*
X12415920Y-20218520D02*
G75*
G03*
X12493920Y-20218520I39000J0D01*
G01*
X12493920Y-20868520D02*
G75*
G03*
X12415920Y-20868520I-39000J0D01*
G01*
X12415920Y-20868520D02*
G75*
G03*
X12493920Y-20868520I39000J0D01*
G01*
X12493920Y-22250520D02*
G75*
G03*
X12415920Y-22250520I-39000J0D01*
G01*
X12415920Y-22250520D02*
G75*
G03*
X12493920Y-22250520I39000J0D01*
G01*
X12493920Y-22900520D02*
G75*
G03*
X12415920Y-22900520I-39000J0D01*
G01*
X12415920Y-22900520D02*
G75*
G03*
X12493920Y-22900520I39000J0D01*
G01*
X12493920Y-24282520D02*
G75*
G03*
X12415920Y-24282520I-39000J0D01*
G01*
X12415920Y-24282520D02*
G75*
G03*
X12493920Y-24282520I39000J0D01*
G01*
X12493920Y-24932520D02*
G75*
G03*
X12415920Y-24932520I-39000J0D01*
G01*
X12415920Y-24932520D02*
G75*
G03*
X12493920Y-24932520I39000J0D01*
G01*
X12593920Y-18386520D02*
G75*
G03*
X12515920Y-18386520I-39000J0D01*
G01*
X12515920Y-18386520D02*
G75*
G03*
X12593920Y-18386520I39000J0D01*
G01*
X12593920Y-18636520D02*
G75*
G03*
X12515920Y-18636520I-39000J0D01*
G01*
X12515920Y-18636520D02*
G75*
G03*
X12593920Y-18636520I39000J0D01*
G01*
X12593920Y-20418520D02*
G75*
G03*
X12515920Y-20418520I-39000J0D01*
G01*
X12515920Y-20418520D02*
G75*
G03*
X12593920Y-20418520I39000J0D01*
G01*
X12593920Y-20668520D02*
G75*
G03*
X12515920Y-20668520I-39000J0D01*
G01*
X12515920Y-20668520D02*
G75*
G03*
X12593920Y-20668520I39000J0D01*
G01*
X12593920Y-22450520D02*
G75*
G03*
X12515920Y-22450520I-39000J0D01*
G01*
X12515920Y-22450520D02*
G75*
G03*
X12593920Y-22450520I39000J0D01*
G01*
X12593920Y-22700520D02*
G75*
G03*
X12515920Y-22700520I-39000J0D01*
G01*
X12515920Y-22700520D02*
G75*
G03*
X12593920Y-22700520I39000J0D01*
G01*
X12593920Y-24482520D02*
G75*
G03*
X12515920Y-24482520I-39000J0D01*
G01*
X12515920Y-24482520D02*
G75*
G03*
X12593920Y-24482520I39000J0D01*
G01*
X12593920Y-24732520D02*
G75*
G03*
X12515920Y-24732520I-39000J0D01*
G01*
X12515920Y-24732520D02*
G75*
G03*
X12593920Y-24732520I39000J0D01*
G01*
X12693920Y-18186520D02*
G75*
G03*
X12615920Y-18186520I-39000J0D01*
G01*
X12615920Y-18186520D02*
G75*
G03*
X12693920Y-18186520I39000J0D01*
G01*
X12693920Y-18836520D02*
G75*
G03*
X12615920Y-18836520I-39000J0D01*
G01*
X12615920Y-18836520D02*
G75*
G03*
X12693920Y-18836520I39000J0D01*
G01*
X12693920Y-20218520D02*
G75*
G03*
X12615920Y-20218520I-39000J0D01*
G01*
X12615920Y-20218520D02*
G75*
G03*
X12693920Y-20218520I39000J0D01*
G01*
X12693920Y-20868520D02*
G75*
G03*
X12615920Y-20868520I-39000J0D01*
G01*
X12615920Y-20868520D02*
G75*
G03*
X12693920Y-20868520I39000J0D01*
G01*
X12693920Y-22250520D02*
G75*
G03*
X12615920Y-22250520I-39000J0D01*
G01*
X12615920Y-22250520D02*
G75*
G03*
X12693920Y-22250520I39000J0D01*
G01*
X12693920Y-22900520D02*
G75*
G03*
X12615920Y-22900520I-39000J0D01*
G01*
X12615920Y-22900520D02*
G75*
G03*
X12693920Y-22900520I39000J0D01*
G01*
X12693920Y-24282520D02*
G75*
G03*
X12615920Y-24282520I-39000J0D01*
G01*
X12615920Y-24282520D02*
G75*
G03*
X12693920Y-24282520I39000J0D01*
G01*
X12693920Y-24932520D02*
G75*
G03*
X12615920Y-24932520I-39000J0D01*
G01*
X12615920Y-24932520D02*
G75*
G03*
X12693920Y-24932520I39000J0D01*
G01*
X12793920Y-18386520D02*
G75*
G03*
X12715920Y-18386520I-39000J0D01*
G01*
X12715920Y-18386520D02*
G75*
G03*
X12793920Y-18386520I39000J0D01*
G01*
X12793920Y-18636520D02*
G75*
G03*
X12715920Y-18636520I-39000J0D01*
G01*
X12715920Y-18636520D02*
G75*
G03*
X12793920Y-18636520I39000J0D01*
G01*
X12793920Y-20418520D02*
G75*
G03*
X12715920Y-20418520I-39000J0D01*
G01*
X12715920Y-20418520D02*
G75*
G03*
X12793920Y-20418520I39000J0D01*
G01*
X12793920Y-20668520D02*
G75*
G03*
X12715920Y-20668520I-39000J0D01*
G01*
X12715920Y-20668520D02*
G75*
G03*
X12793920Y-20668520I39000J0D01*
G01*
X12793920Y-22450520D02*
G75*
G03*
X12715920Y-22450520I-39000J0D01*
G01*
X12715920Y-22450520D02*
G75*
G03*
X12793920Y-22450520I39000J0D01*
G01*
X12793920Y-22700520D02*
G75*
G03*
X12715920Y-22700520I-39000J0D01*
G01*
X12715920Y-22700520D02*
G75*
G03*
X12793920Y-22700520I39000J0D01*
G01*
X12793920Y-24482520D02*
G75*
G03*
X12715920Y-24482520I-39000J0D01*
G01*
X12715920Y-24482520D02*
G75*
G03*
X12793920Y-24482520I39000J0D01*
G01*
X12793920Y-24732520D02*
G75*
G03*
X12715920Y-24732520I-39000J0D01*
G01*
X12715920Y-24732520D02*
G75*
G03*
X12793920Y-24732520I39000J0D01*
G01*
X12893920Y-18186520D02*
G75*
G03*
X12815920Y-18186520I-39000J0D01*
G01*
X12815920Y-18186520D02*
G75*
G03*
X12893920Y-18186520I39000J0D01*
G01*
X12893920Y-18836520D02*
G75*
G03*
X12815920Y-18836520I-39000J0D01*
G01*
X12815920Y-18836520D02*
G75*
G03*
X12893920Y-18836520I39000J0D01*
G01*
X12893920Y-20218520D02*
G75*
G03*
X12815920Y-20218520I-39000J0D01*
G01*
X12815920Y-20218520D02*
G75*
G03*
X12893920Y-20218520I39000J0D01*
G01*
X12893920Y-20868520D02*
G75*
G03*
X12815920Y-20868520I-39000J0D01*
G01*
X12815920Y-20868520D02*
G75*
G03*
X12893920Y-20868520I39000J0D01*
G01*
X12893920Y-22250520D02*
G75*
G03*
X12815920Y-22250520I-39000J0D01*
G01*
X12815920Y-22250520D02*
G75*
G03*
X12893920Y-22250520I39000J0D01*
G01*
X12893920Y-22900520D02*
G75*
G03*
X12815920Y-22900520I-39000J0D01*
G01*
X12815920Y-22900520D02*
G75*
G03*
X12893920Y-22900520I39000J0D01*
G01*
X12893920Y-24282520D02*
G75*
G03*
X12815920Y-24282520I-39000J0D01*
G01*
X12815920Y-24282520D02*
G75*
G03*
X12893920Y-24282520I39000J0D01*
G01*
X12893920Y-24932520D02*
G75*
G03*
X12815920Y-24932520I-39000J0D01*
G01*
X12815920Y-24932520D02*
G75*
G03*
X12893920Y-24932520I39000J0D01*
G01*
X12993920Y-18386520D02*
G75*
G03*
X12915920Y-18386520I-39000J0D01*
G01*
X12915920Y-18386520D02*
G75*
G03*
X12993920Y-18386520I39000J0D01*
G01*
X12993920Y-18636520D02*
G75*
G03*
X12915920Y-18636520I-39000J0D01*
G01*
X12915920Y-18636520D02*
G75*
G03*
X12993920Y-18636520I39000J0D01*
G01*
X12993920Y-20418520D02*
G75*
G03*
X12915920Y-20418520I-39000J0D01*
G01*
X12915920Y-20418520D02*
G75*
G03*
X12993920Y-20418520I39000J0D01*
G01*
X12993920Y-20668520D02*
G75*
G03*
X12915920Y-20668520I-39000J0D01*
G01*
X12915920Y-20668520D02*
G75*
G03*
X12993920Y-20668520I39000J0D01*
G01*
X12993920Y-22450520D02*
G75*
G03*
X12915920Y-22450520I-39000J0D01*
G01*
X12915920Y-22450520D02*
G75*
G03*
X12993920Y-22450520I39000J0D01*
G01*
X12993920Y-22700520D02*
G75*
G03*
X12915920Y-22700520I-39000J0D01*
G01*
X12915920Y-22700520D02*
G75*
G03*
X12993920Y-22700520I39000J0D01*
G01*
X12993920Y-24482520D02*
G75*
G03*
X12915920Y-24482520I-39000J0D01*
G01*
X12915920Y-24482520D02*
G75*
G03*
X12993920Y-24482520I39000J0D01*
G01*
X12993920Y-24732520D02*
G75*
G03*
X12915920Y-24732520I-39000J0D01*
G01*
X12915920Y-24732520D02*
G75*
G03*
X12993920Y-24732520I39000J0D01*
G01*
X13093920Y-18186520D02*
G75*
G03*
X13015920Y-18186520I-39000J0D01*
G01*
X13015920Y-18186520D02*
G75*
G03*
X13093920Y-18186520I39000J0D01*
G01*
X13093920Y-18836520D02*
G75*
G03*
X13015920Y-18836520I-39000J0D01*
G01*
X13015920Y-18836520D02*
G75*
G03*
X13093920Y-18836520I39000J0D01*
G01*
X13093920Y-20218520D02*
G75*
G03*
X13015920Y-20218520I-39000J0D01*
G01*
X13015920Y-20218520D02*
G75*
G03*
X13093920Y-20218520I39000J0D01*
G01*
X13093920Y-20868520D02*
G75*
G03*
X13015920Y-20868520I-39000J0D01*
G01*
X13015920Y-20868520D02*
G75*
G03*
X13093920Y-20868520I39000J0D01*
G01*
X13093920Y-22250520D02*
G75*
G03*
X13015920Y-22250520I-39000J0D01*
G01*
X13015920Y-22250520D02*
G75*
G03*
X13093920Y-22250520I39000J0D01*
G01*
X13093920Y-22900520D02*
G75*
G03*
X13015920Y-22900520I-39000J0D01*
G01*
X13015920Y-22900520D02*
G75*
G03*
X13093920Y-22900520I39000J0D01*
G01*
X13093920Y-24282520D02*
G75*
G03*
X13015920Y-24282520I-39000J0D01*
G01*
X13015920Y-24282520D02*
G75*
G03*
X13093920Y-24282520I39000J0D01*
G01*
X13093920Y-24932520D02*
G75*
G03*
X13015920Y-24932520I-39000J0D01*
G01*
X13015920Y-24932520D02*
G75*
G03*
X13093920Y-24932520I39000J0D01*
G01*
X13193920Y-18386520D02*
G75*
G03*
X13115920Y-18386520I-39000J0D01*
G01*
X13115920Y-18386520D02*
G75*
G03*
X13193920Y-18386520I39000J0D01*
G01*
X13193920Y-18636520D02*
G75*
G03*
X13115920Y-18636520I-39000J0D01*
G01*
X13115920Y-18636520D02*
G75*
G03*
X13193920Y-18636520I39000J0D01*
G01*
X13193920Y-20418520D02*
G75*
G03*
X13115920Y-20418520I-39000J0D01*
G01*
X13115920Y-20418520D02*
G75*
G03*
X13193920Y-20418520I39000J0D01*
G01*
X13193920Y-20668520D02*
G75*
G03*
X13115920Y-20668520I-39000J0D01*
G01*
X13115920Y-20668520D02*
G75*
G03*
X13193920Y-20668520I39000J0D01*
G01*
X13193920Y-22450520D02*
G75*
G03*
X13115920Y-22450520I-39000J0D01*
G01*
X13115920Y-22450520D02*
G75*
G03*
X13193920Y-22450520I39000J0D01*
G01*
X13193920Y-22700520D02*
G75*
G03*
X13115920Y-22700520I-39000J0D01*
G01*
X13115920Y-22700520D02*
G75*
G03*
X13193920Y-22700520I39000J0D01*
G01*
X13193920Y-24482520D02*
G75*
G03*
X13115920Y-24482520I-39000J0D01*
G01*
X13115920Y-24482520D02*
G75*
G03*
X13193920Y-24482520I39000J0D01*
G01*
X13193920Y-24732520D02*
G75*
G03*
X13115920Y-24732520I-39000J0D01*
G01*
X13115920Y-24732520D02*
G75*
G03*
X13193920Y-24732520I39000J0D01*
G01*
X13293920Y-18186520D02*
G75*
G03*
X13215920Y-18186520I-39000J0D01*
G01*
X13215920Y-18186520D02*
G75*
G03*
X13293920Y-18186520I39000J0D01*
G01*
X13293920Y-18836520D02*
G75*
G03*
X13215920Y-18836520I-39000J0D01*
G01*
X13215920Y-18836520D02*
G75*
G03*
X13293920Y-18836520I39000J0D01*
G01*
X13293920Y-20218520D02*
G75*
G03*
X13215920Y-20218520I-39000J0D01*
G01*
X13215920Y-20218520D02*
G75*
G03*
X13293920Y-20218520I39000J0D01*
G01*
X13293920Y-20868520D02*
G75*
G03*
X13215920Y-20868520I-39000J0D01*
G01*
X13215920Y-20868520D02*
G75*
G03*
X13293920Y-20868520I39000J0D01*
G01*
X13293920Y-22250520D02*
G75*
G03*
X13215920Y-22250520I-39000J0D01*
G01*
X13215920Y-22250520D02*
G75*
G03*
X13293920Y-22250520I39000J0D01*
G01*
X13293920Y-22900520D02*
G75*
G03*
X13215920Y-22900520I-39000J0D01*
G01*
X13215920Y-22900520D02*
G75*
G03*
X13293920Y-22900520I39000J0D01*
G01*
X13293920Y-24282520D02*
G75*
G03*
X13215920Y-24282520I-39000J0D01*
G01*
X13215920Y-24282520D02*
G75*
G03*
X13293920Y-24282520I39000J0D01*
G01*
X13293920Y-24932520D02*
G75*
G03*
X13215920Y-24932520I-39000J0D01*
G01*
X13215920Y-24932520D02*
G75*
G03*
X13293920Y-24932520I39000J0D01*
G01*
X13393920Y-18386520D02*
G75*
G03*
X13315920Y-18386520I-39000J0D01*
G01*
X13315920Y-18386520D02*
G75*
G03*
X13393920Y-18386520I39000J0D01*
G01*
X13393920Y-18636520D02*
G75*
G03*
X13315920Y-18636520I-39000J0D01*
G01*
X13315920Y-18636520D02*
G75*
G03*
X13393920Y-18636520I39000J0D01*
G01*
X13393920Y-20418520D02*
G75*
G03*
X13315920Y-20418520I-39000J0D01*
G01*
X13315920Y-20418520D02*
G75*
G03*
X13393920Y-20418520I39000J0D01*
G01*
X13393920Y-20668520D02*
G75*
G03*
X13315920Y-20668520I-39000J0D01*
G01*
X13315920Y-20668520D02*
G75*
G03*
X13393920Y-20668520I39000J0D01*
G01*
X13393920Y-22450520D02*
G75*
G03*
X13315920Y-22450520I-39000J0D01*
G01*
X13315920Y-22450520D02*
G75*
G03*
X13393920Y-22450520I39000J0D01*
G01*
X13393920Y-22700520D02*
G75*
G03*
X13315920Y-22700520I-39000J0D01*
G01*
X13315920Y-22700520D02*
G75*
G03*
X13393920Y-22700520I39000J0D01*
G01*
X13393920Y-24482520D02*
G75*
G03*
X13315920Y-24482520I-39000J0D01*
G01*
X13315920Y-24482520D02*
G75*
G03*
X13393920Y-24482520I39000J0D01*
G01*
X13393920Y-24732520D02*
G75*
G03*
X13315920Y-24732520I-39000J0D01*
G01*
X13315920Y-24732520D02*
G75*
G03*
X13393920Y-24732520I39000J0D01*
G01*
X13493920Y-18186520D02*
G75*
G03*
X13415920Y-18186520I-39000J0D01*
G01*
X13415920Y-18186520D02*
G75*
G03*
X13493920Y-18186520I39000J0D01*
G01*
X13493920Y-18836520D02*
G75*
G03*
X13415920Y-18836520I-39000J0D01*
G01*
X13415920Y-18836520D02*
G75*
G03*
X13493920Y-18836520I39000J0D01*
G01*
X13493920Y-20218520D02*
G75*
G03*
X13415920Y-20218520I-39000J0D01*
G01*
X13415920Y-20218520D02*
G75*
G03*
X13493920Y-20218520I39000J0D01*
G01*
X13493920Y-20868520D02*
G75*
G03*
X13415920Y-20868520I-39000J0D01*
G01*
X13415920Y-20868520D02*
G75*
G03*
X13493920Y-20868520I39000J0D01*
G01*
X13493920Y-22250520D02*
G75*
G03*
X13415920Y-22250520I-39000J0D01*
G01*
X13415920Y-22250520D02*
G75*
G03*
X13493920Y-22250520I39000J0D01*
G01*
X13493920Y-22900520D02*
G75*
G03*
X13415920Y-22900520I-39000J0D01*
G01*
X13415920Y-22900520D02*
G75*
G03*
X13493920Y-22900520I39000J0D01*
G01*
X13493920Y-24282520D02*
G75*
G03*
X13415920Y-24282520I-39000J0D01*
G01*
X13415920Y-24282520D02*
G75*
G03*
X13493920Y-24282520I39000J0D01*
G01*
X13493920Y-24932520D02*
G75*
G03*
X13415920Y-24932520I-39000J0D01*
G01*
X13415920Y-24932520D02*
G75*
G03*
X13493920Y-24932520I39000J0D01*
G01*
X13593920Y-18386520D02*
G75*
G03*
X13515920Y-18386520I-39000J0D01*
G01*
X13515920Y-18386520D02*
G75*
G03*
X13593920Y-18386520I39000J0D01*
G01*
X13593920Y-18636520D02*
G75*
G03*
X13515920Y-18636520I-39000J0D01*
G01*
X13515920Y-18636520D02*
G75*
G03*
X13593920Y-18636520I39000J0D01*
G01*
X13593920Y-20418520D02*
G75*
G03*
X13515920Y-20418520I-39000J0D01*
G01*
X13515920Y-20418520D02*
G75*
G03*
X13593920Y-20418520I39000J0D01*
G01*
X13593920Y-20668520D02*
G75*
G03*
X13515920Y-20668520I-39000J0D01*
G01*
X13515920Y-20668520D02*
G75*
G03*
X13593920Y-20668520I39000J0D01*
G01*
X13593920Y-22450520D02*
G75*
G03*
X13515920Y-22450520I-39000J0D01*
G01*
X13515920Y-22450520D02*
G75*
G03*
X13593920Y-22450520I39000J0D01*
G01*
X13593920Y-22700520D02*
G75*
G03*
X13515920Y-22700520I-39000J0D01*
G01*
X13515920Y-22700520D02*
G75*
G03*
X13593920Y-22700520I39000J0D01*
G01*
X13593920Y-24482520D02*
G75*
G03*
X13515920Y-24482520I-39000J0D01*
G01*
X13515920Y-24482520D02*
G75*
G03*
X13593920Y-24482520I39000J0D01*
G01*
X13593920Y-24732520D02*
G75*
G03*
X13515920Y-24732520I-39000J0D01*
G01*
X13515920Y-24732520D02*
G75*
G03*
X13593920Y-24732520I39000J0D01*
G01*
X13693920Y-18186520D02*
G75*
G03*
X13615920Y-18186520I-39000J0D01*
G01*
X13615920Y-18186520D02*
G75*
G03*
X13693920Y-18186520I39000J0D01*
G01*
X13693920Y-18836520D02*
G75*
G03*
X13615920Y-18836520I-39000J0D01*
G01*
X13615920Y-18836520D02*
G75*
G03*
X13693920Y-18836520I39000J0D01*
G01*
X13693920Y-20218520D02*
G75*
G03*
X13615920Y-20218520I-39000J0D01*
G01*
X13615920Y-20218520D02*
G75*
G03*
X13693920Y-20218520I39000J0D01*
G01*
X13693920Y-20868520D02*
G75*
G03*
X13615920Y-20868520I-39000J0D01*
G01*
X13615920Y-20868520D02*
G75*
G03*
X13693920Y-20868520I39000J0D01*
G01*
X13693920Y-22250520D02*
G75*
G03*
X13615920Y-22250520I-39000J0D01*
G01*
X13615920Y-22250520D02*
G75*
G03*
X13693920Y-22250520I39000J0D01*
G01*
X13693920Y-22900520D02*
G75*
G03*
X13615920Y-22900520I-39000J0D01*
G01*
X13615920Y-22900520D02*
G75*
G03*
X13693920Y-22900520I39000J0D01*
G01*
X13693920Y-24282520D02*
G75*
G03*
X13615920Y-24282520I-39000J0D01*
G01*
X13615920Y-24282520D02*
G75*
G03*
X13693920Y-24282520I39000J0D01*
G01*
X13693920Y-24932520D02*
G75*
G03*
X13615920Y-24932520I-39000J0D01*
G01*
X13615920Y-24932520D02*
G75*
G03*
X13693920Y-24932520I39000J0D01*
G01*
X13793920Y-18386520D02*
G75*
G03*
X13715920Y-18386520I-39000J0D01*
G01*
X13715920Y-18386520D02*
G75*
G03*
X13793920Y-18386520I39000J0D01*
G01*
X13793920Y-18636520D02*
G75*
G03*
X13715920Y-18636520I-39000J0D01*
G01*
X13715920Y-18636520D02*
G75*
G03*
X13793920Y-18636520I39000J0D01*
G01*
X13793920Y-20418520D02*
G75*
G03*
X13715920Y-20418520I-39000J0D01*
G01*
X13715920Y-20418520D02*
G75*
G03*
X13793920Y-20418520I39000J0D01*
G01*
X13793920Y-20668520D02*
G75*
G03*
X13715920Y-20668520I-39000J0D01*
G01*
X13715920Y-20668520D02*
G75*
G03*
X13793920Y-20668520I39000J0D01*
G01*
X13793920Y-22450520D02*
G75*
G03*
X13715920Y-22450520I-39000J0D01*
G01*
X13715920Y-22450520D02*
G75*
G03*
X13793920Y-22450520I39000J0D01*
G01*
X13793920Y-22700520D02*
G75*
G03*
X13715920Y-22700520I-39000J0D01*
G01*
X13715920Y-22700520D02*
G75*
G03*
X13793920Y-22700520I39000J0D01*
G01*
X13793920Y-24482520D02*
G75*
G03*
X13715920Y-24482520I-39000J0D01*
G01*
X13715920Y-24482520D02*
G75*
G03*
X13793920Y-24482520I39000J0D01*
G01*
X13793920Y-24732520D02*
G75*
G03*
X13715920Y-24732520I-39000J0D01*
G01*
X13715920Y-24732520D02*
G75*
G03*
X13793920Y-24732520I39000J0D01*
G01*
X13893920Y-18186520D02*
G75*
G03*
X13815920Y-18186520I-39000J0D01*
G01*
X13815920Y-18186520D02*
G75*
G03*
X13893920Y-18186520I39000J0D01*
G01*
X13893920Y-18836520D02*
G75*
G03*
X13815920Y-18836520I-39000J0D01*
G01*
X13815920Y-18836520D02*
G75*
G03*
X13893920Y-18836520I39000J0D01*
G01*
X13893920Y-20218520D02*
G75*
G03*
X13815920Y-20218520I-39000J0D01*
G01*
X13815920Y-20218520D02*
G75*
G03*
X13893920Y-20218520I39000J0D01*
G01*
X13893920Y-20868520D02*
G75*
G03*
X13815920Y-20868520I-39000J0D01*
G01*
X13815920Y-20868520D02*
G75*
G03*
X13893920Y-20868520I39000J0D01*
G01*
X13893920Y-22250520D02*
G75*
G03*
X13815920Y-22250520I-39000J0D01*
G01*
X13815920Y-22250520D02*
G75*
G03*
X13893920Y-22250520I39000J0D01*
G01*
X13893920Y-22900520D02*
G75*
G03*
X13815920Y-22900520I-39000J0D01*
G01*
X13815920Y-22900520D02*
G75*
G03*
X13893920Y-22900520I39000J0D01*
G01*
X13893920Y-24282520D02*
G75*
G03*
X13815920Y-24282520I-39000J0D01*
G01*
X13815920Y-24282520D02*
G75*
G03*
X13893920Y-24282520I39000J0D01*
G01*
X13893920Y-24932520D02*
G75*
G03*
X13815920Y-24932520I-39000J0D01*
G01*
X13815920Y-24932520D02*
G75*
G03*
X13893920Y-24932520I39000J0D01*
G01*
X13993920Y-18386520D02*
G75*
G03*
X13915920Y-18386520I-39000J0D01*
G01*
X13915920Y-18386520D02*
G75*
G03*
X13993920Y-18386520I39000J0D01*
G01*
X13993920Y-18636520D02*
G75*
G03*
X13915920Y-18636520I-39000J0D01*
G01*
X13915920Y-18636520D02*
G75*
G03*
X13993920Y-18636520I39000J0D01*
G01*
X13993920Y-20418520D02*
G75*
G03*
X13915920Y-20418520I-39000J0D01*
G01*
X13915920Y-20418520D02*
G75*
G03*
X13993920Y-20418520I39000J0D01*
G01*
X13993920Y-20668520D02*
G75*
G03*
X13915920Y-20668520I-39000J0D01*
G01*
X13915920Y-20668520D02*
G75*
G03*
X13993920Y-20668520I39000J0D01*
G01*
X13993920Y-22450520D02*
G75*
G03*
X13915920Y-22450520I-39000J0D01*
G01*
X13915920Y-22450520D02*
G75*
G03*
X13993920Y-22450520I39000J0D01*
G01*
X13993920Y-22700520D02*
G75*
G03*
X13915920Y-22700520I-39000J0D01*
G01*
X13915920Y-22700520D02*
G75*
G03*
X13993920Y-22700520I39000J0D01*
G01*
X13993920Y-24482520D02*
G75*
G03*
X13915920Y-24482520I-39000J0D01*
G01*
X13915920Y-24482520D02*
G75*
G03*
X13993920Y-24482520I39000J0D01*
G01*
X13993920Y-24732520D02*
G75*
G03*
X13915920Y-24732520I-39000J0D01*
G01*
X13915920Y-24732520D02*
G75*
G03*
X13993920Y-24732520I39000J0D01*
G01*
X14093920Y-18186520D02*
G75*
G03*
X14015920Y-18186520I-39000J0D01*
G01*
X14015920Y-18186520D02*
G75*
G03*
X14093920Y-18186520I39000J0D01*
G01*
X14093920Y-18836520D02*
G75*
G03*
X14015920Y-18836520I-39000J0D01*
G01*
X14015920Y-18836520D02*
G75*
G03*
X14093920Y-18836520I39000J0D01*
G01*
X14093920Y-20218520D02*
G75*
G03*
X14015920Y-20218520I-39000J0D01*
G01*
X14015920Y-20218520D02*
G75*
G03*
X14093920Y-20218520I39000J0D01*
G01*
X14093920Y-20868520D02*
G75*
G03*
X14015920Y-20868520I-39000J0D01*
G01*
X14015920Y-20868520D02*
G75*
G03*
X14093920Y-20868520I39000J0D01*
G01*
X14093920Y-22250520D02*
G75*
G03*
X14015920Y-22250520I-39000J0D01*
G01*
X14015920Y-22250520D02*
G75*
G03*
X14093920Y-22250520I39000J0D01*
G01*
X14093920Y-22900520D02*
G75*
G03*
X14015920Y-22900520I-39000J0D01*
G01*
X14015920Y-22900520D02*
G75*
G03*
X14093920Y-22900520I39000J0D01*
G01*
X14093920Y-24282520D02*
G75*
G03*
X14015920Y-24282520I-39000J0D01*
G01*
X14015920Y-24282520D02*
G75*
G03*
X14093920Y-24282520I39000J0D01*
G01*
X14093920Y-24932520D02*
G75*
G03*
X14015920Y-24932520I-39000J0D01*
G01*
X14015920Y-24932520D02*
G75*
G03*
X14093920Y-24932520I39000J0D01*
G01*
X14193920Y-18386520D02*
G75*
G03*
X14115920Y-18386520I-39000J0D01*
G01*
X14115920Y-18386520D02*
G75*
G03*
X14193920Y-18386520I39000J0D01*
G01*
X14193920Y-18636520D02*
G75*
G03*
X14115920Y-18636520I-39000J0D01*
G01*
X14115920Y-18636520D02*
G75*
G03*
X14193920Y-18636520I39000J0D01*
G01*
X14193920Y-20418520D02*
G75*
G03*
X14115920Y-20418520I-39000J0D01*
G01*
X14115920Y-20418520D02*
G75*
G03*
X14193920Y-20418520I39000J0D01*
G01*
X14193920Y-20668520D02*
G75*
G03*
X14115920Y-20668520I-39000J0D01*
G01*
X14115920Y-20668520D02*
G75*
G03*
X14193920Y-20668520I39000J0D01*
G01*
X14193920Y-22450520D02*
G75*
G03*
X14115920Y-22450520I-39000J0D01*
G01*
X14115920Y-22450520D02*
G75*
G03*
X14193920Y-22450520I39000J0D01*
G01*
X14193920Y-22700520D02*
G75*
G03*
X14115920Y-22700520I-39000J0D01*
G01*
X14115920Y-22700520D02*
G75*
G03*
X14193920Y-22700520I39000J0D01*
G01*
X14193920Y-24482520D02*
G75*
G03*
X14115920Y-24482520I-39000J0D01*
G01*
X14115920Y-24482520D02*
G75*
G03*
X14193920Y-24482520I39000J0D01*
G01*
X14193920Y-24732520D02*
G75*
G03*
X14115920Y-24732520I-39000J0D01*
G01*
X14115920Y-24732520D02*
G75*
G03*
X14193920Y-24732520I39000J0D01*
G01*
X14293920Y-18186520D02*
G75*
G03*
X14215920Y-18186520I-39000J0D01*
G01*
X14215920Y-18186520D02*
G75*
G03*
X14293920Y-18186520I39000J0D01*
G01*
X14293920Y-18836520D02*
G75*
G03*
X14215920Y-18836520I-39000J0D01*
G01*
X14215920Y-18836520D02*
G75*
G03*
X14293920Y-18836520I39000J0D01*
G01*
X14293920Y-20218520D02*
G75*
G03*
X14215920Y-20218520I-39000J0D01*
G01*
X14215920Y-20218520D02*
G75*
G03*
X14293920Y-20218520I39000J0D01*
G01*
X14293920Y-20868520D02*
G75*
G03*
X14215920Y-20868520I-39000J0D01*
G01*
X14215920Y-20868520D02*
G75*
G03*
X14293920Y-20868520I39000J0D01*
G01*
X14293920Y-22250520D02*
G75*
G03*
X14215920Y-22250520I-39000J0D01*
G01*
X14215920Y-22250520D02*
G75*
G03*
X14293920Y-22250520I39000J0D01*
G01*
X14293920Y-22900520D02*
G75*
G03*
X14215920Y-22900520I-39000J0D01*
G01*
X14215920Y-22900520D02*
G75*
G03*
X14293920Y-22900520I39000J0D01*
G01*
X14293920Y-24282520D02*
G75*
G03*
X14215920Y-24282520I-39000J0D01*
G01*
X14215920Y-24282520D02*
G75*
G03*
X14293920Y-24282520I39000J0D01*
G01*
X14293920Y-24932520D02*
G75*
G03*
X14215920Y-24932520I-39000J0D01*
G01*
X14215920Y-24932520D02*
G75*
G03*
X14293920Y-24932520I39000J0D01*
G01*
X14393920Y-18386520D02*
G75*
G03*
X14315920Y-18386520I-39000J0D01*
G01*
X14315920Y-18386520D02*
G75*
G03*
X14393920Y-18386520I39000J0D01*
G01*
X14393920Y-18636520D02*
G75*
G03*
X14315920Y-18636520I-39000J0D01*
G01*
X14315920Y-18636520D02*
G75*
G03*
X14393920Y-18636520I39000J0D01*
G01*
X14393920Y-20418520D02*
G75*
G03*
X14315920Y-20418520I-39000J0D01*
G01*
X14315920Y-20418520D02*
G75*
G03*
X14393920Y-20418520I39000J0D01*
G01*
X14393920Y-20668520D02*
G75*
G03*
X14315920Y-20668520I-39000J0D01*
G01*
X14315920Y-20668520D02*
G75*
G03*
X14393920Y-20668520I39000J0D01*
G01*
X14393920Y-22450520D02*
G75*
G03*
X14315920Y-22450520I-39000J0D01*
G01*
X14315920Y-22450520D02*
G75*
G03*
X14393920Y-22450520I39000J0D01*
G01*
X14393920Y-22700520D02*
G75*
G03*
X14315920Y-22700520I-39000J0D01*
G01*
X14315920Y-22700520D02*
G75*
G03*
X14393920Y-22700520I39000J0D01*
G01*
X14393920Y-24482520D02*
G75*
G03*
X14315920Y-24482520I-39000J0D01*
G01*
X14315920Y-24482520D02*
G75*
G03*
X14393920Y-24482520I39000J0D01*
G01*
X14393920Y-24732520D02*
G75*
G03*
X14315920Y-24732520I-39000J0D01*
G01*
X14315920Y-24732520D02*
G75*
G03*
X14393920Y-24732520I39000J0D01*
G01*
X14493920Y-18186520D02*
G75*
G03*
X14415920Y-18186520I-39000J0D01*
G01*
X14415920Y-18186520D02*
G75*
G03*
X14493920Y-18186520I39000J0D01*
G01*
X14493920Y-18836520D02*
G75*
G03*
X14415920Y-18836520I-39000J0D01*
G01*
X14415920Y-18836520D02*
G75*
G03*
X14493920Y-18836520I39000J0D01*
G01*
X14493920Y-20218520D02*
G75*
G03*
X14415920Y-20218520I-39000J0D01*
G01*
X14415920Y-20218520D02*
G75*
G03*
X14493920Y-20218520I39000J0D01*
G01*
X14493920Y-20868520D02*
G75*
G03*
X14415920Y-20868520I-39000J0D01*
G01*
X14415920Y-20868520D02*
G75*
G03*
X14493920Y-20868520I39000J0D01*
G01*
X14493920Y-22250520D02*
G75*
G03*
X14415920Y-22250520I-39000J0D01*
G01*
X14415920Y-22250520D02*
G75*
G03*
X14493920Y-22250520I39000J0D01*
G01*
X14493920Y-22900520D02*
G75*
G03*
X14415920Y-22900520I-39000J0D01*
G01*
X14415920Y-22900520D02*
G75*
G03*
X14493920Y-22900520I39000J0D01*
G01*
X14493920Y-24282520D02*
G75*
G03*
X14415920Y-24282520I-39000J0D01*
G01*
X14415920Y-24282520D02*
G75*
G03*
X14493920Y-24282520I39000J0D01*
G01*
X14493920Y-24932520D02*
G75*
G03*
X14415920Y-24932520I-39000J0D01*
G01*
X14415920Y-24932520D02*
G75*
G03*
X14493920Y-24932520I39000J0D01*
G01*
X14593920Y-18386520D02*
G75*
G03*
X14515920Y-18386520I-39000J0D01*
G01*
X14515920Y-18386520D02*
G75*
G03*
X14593920Y-18386520I39000J0D01*
G01*
X14593920Y-18636520D02*
G75*
G03*
X14515920Y-18636520I-39000J0D01*
G01*
X14515920Y-18636520D02*
G75*
G03*
X14593920Y-18636520I39000J0D01*
G01*
X14593920Y-20418520D02*
G75*
G03*
X14515920Y-20418520I-39000J0D01*
G01*
X14515920Y-20418520D02*
G75*
G03*
X14593920Y-20418520I39000J0D01*
G01*
X14593920Y-20668520D02*
G75*
G03*
X14515920Y-20668520I-39000J0D01*
G01*
X14515920Y-20668520D02*
G75*
G03*
X14593920Y-20668520I39000J0D01*
G01*
X14593920Y-22450520D02*
G75*
G03*
X14515920Y-22450520I-39000J0D01*
G01*
X14515920Y-22450520D02*
G75*
G03*
X14593920Y-22450520I39000J0D01*
G01*
X14593920Y-22700520D02*
G75*
G03*
X14515920Y-22700520I-39000J0D01*
G01*
X14515920Y-22700520D02*
G75*
G03*
X14593920Y-22700520I39000J0D01*
G01*
X14593920Y-24482520D02*
G75*
G03*
X14515920Y-24482520I-39000J0D01*
G01*
X14515920Y-24482520D02*
G75*
G03*
X14593920Y-24482520I39000J0D01*
G01*
X14593920Y-24732520D02*
G75*
G03*
X14515920Y-24732520I-39000J0D01*
G01*
X14515920Y-24732520D02*
G75*
G03*
X14593920Y-24732520I39000J0D01*
G01*
X14693920Y-18186520D02*
G75*
G03*
X14615920Y-18186520I-39000J0D01*
G01*
X14615920Y-18186520D02*
G75*
G03*
X14693920Y-18186520I39000J0D01*
G01*
X14693920Y-18836520D02*
G75*
G03*
X14615920Y-18836520I-39000J0D01*
G01*
X14615920Y-18836520D02*
G75*
G03*
X14693920Y-18836520I39000J0D01*
G01*
X14693920Y-20218520D02*
G75*
G03*
X14615920Y-20218520I-39000J0D01*
G01*
X14615920Y-20218520D02*
G75*
G03*
X14693920Y-20218520I39000J0D01*
G01*
X14693920Y-20868520D02*
G75*
G03*
X14615920Y-20868520I-39000J0D01*
G01*
X14615920Y-20868520D02*
G75*
G03*
X14693920Y-20868520I39000J0D01*
G01*
X14693920Y-22250520D02*
G75*
G03*
X14615920Y-22250520I-39000J0D01*
G01*
X14615920Y-22250520D02*
G75*
G03*
X14693920Y-22250520I39000J0D01*
G01*
X14693920Y-22900520D02*
G75*
G03*
X14615920Y-22900520I-39000J0D01*
G01*
X14615920Y-22900520D02*
G75*
G03*
X14693920Y-22900520I39000J0D01*
G01*
X14693920Y-24282520D02*
G75*
G03*
X14615920Y-24282520I-39000J0D01*
G01*
X14615920Y-24282520D02*
G75*
G03*
X14693920Y-24282520I39000J0D01*
G01*
X14693920Y-24932520D02*
G75*
G03*
X14615920Y-24932520I-39000J0D01*
G01*
X14615920Y-24932520D02*
G75*
G03*
X14693920Y-24932520I39000J0D01*
G01*
X14793920Y-18386520D02*
G75*
G03*
X14715920Y-18386520I-39000J0D01*
G01*
X14715920Y-18386520D02*
G75*
G03*
X14793920Y-18386520I39000J0D01*
G01*
X14793920Y-18636520D02*
G75*
G03*
X14715920Y-18636520I-39000J0D01*
G01*
X14715920Y-18636520D02*
G75*
G03*
X14793920Y-18636520I39000J0D01*
G01*
X14793920Y-20418520D02*
G75*
G03*
X14715920Y-20418520I-39000J0D01*
G01*
X14715920Y-20418520D02*
G75*
G03*
X14793920Y-20418520I39000J0D01*
G01*
X14793920Y-20668520D02*
G75*
G03*
X14715920Y-20668520I-39000J0D01*
G01*
X14715920Y-20668520D02*
G75*
G03*
X14793920Y-20668520I39000J0D01*
G01*
X14793920Y-22450520D02*
G75*
G03*
X14715920Y-22450520I-39000J0D01*
G01*
X14715920Y-22450520D02*
G75*
G03*
X14793920Y-22450520I39000J0D01*
G01*
X14793920Y-22700520D02*
G75*
G03*
X14715920Y-22700520I-39000J0D01*
G01*
X14715920Y-22700520D02*
G75*
G03*
X14793920Y-22700520I39000J0D01*
G01*
X14793920Y-24482520D02*
G75*
G03*
X14715920Y-24482520I-39000J0D01*
G01*
X14715920Y-24482520D02*
G75*
G03*
X14793920Y-24482520I39000J0D01*
G01*
X14793920Y-24732520D02*
G75*
G03*
X14715920Y-24732520I-39000J0D01*
G01*
X14715920Y-24732520D02*
G75*
G03*
X14793920Y-24732520I39000J0D01*
G01*
X14893920Y-18186520D02*
G75*
G03*
X14815920Y-18186520I-39000J0D01*
G01*
X14815920Y-18186520D02*
G75*
G03*
X14893920Y-18186520I39000J0D01*
G01*
X14893920Y-18836520D02*
G75*
G03*
X14815920Y-18836520I-39000J0D01*
G01*
X14815920Y-18836520D02*
G75*
G03*
X14893920Y-18836520I39000J0D01*
G01*
X14893920Y-20218520D02*
G75*
G03*
X14815920Y-20218520I-39000J0D01*
G01*
X14815920Y-20218520D02*
G75*
G03*
X14893920Y-20218520I39000J0D01*
G01*
X14893920Y-20868520D02*
G75*
G03*
X14815920Y-20868520I-39000J0D01*
G01*
X14815920Y-20868520D02*
G75*
G03*
X14893920Y-20868520I39000J0D01*
G01*
X14893920Y-22250520D02*
G75*
G03*
X14815920Y-22250520I-39000J0D01*
G01*
X14815920Y-22250520D02*
G75*
G03*
X14893920Y-22250520I39000J0D01*
G01*
X14893920Y-22900520D02*
G75*
G03*
X14815920Y-22900520I-39000J0D01*
G01*
X14815920Y-22900520D02*
G75*
G03*
X14893920Y-22900520I39000J0D01*
G01*
X14893920Y-24282520D02*
G75*
G03*
X14815920Y-24282520I-39000J0D01*
G01*
X14815920Y-24282520D02*
G75*
G03*
X14893920Y-24282520I39000J0D01*
G01*
X14893920Y-24932520D02*
G75*
G03*
X14815920Y-24932520I-39000J0D01*
G01*
X14815920Y-24932520D02*
G75*
G03*
X14893920Y-24932520I39000J0D01*
G01*
X14993920Y-18386520D02*
G75*
G03*
X14915920Y-18386520I-39000J0D01*
G01*
X14915920Y-18386520D02*
G75*
G03*
X14993920Y-18386520I39000J0D01*
G01*
X14993920Y-18636520D02*
G75*
G03*
X14915920Y-18636520I-39000J0D01*
G01*
X14915920Y-18636520D02*
G75*
G03*
X14993920Y-18636520I39000J0D01*
G01*
X14993920Y-20418520D02*
G75*
G03*
X14915920Y-20418520I-39000J0D01*
G01*
X14915920Y-20418520D02*
G75*
G03*
X14993920Y-20418520I39000J0D01*
G01*
X14993920Y-20668520D02*
G75*
G03*
X14915920Y-20668520I-39000J0D01*
G01*
X14915920Y-20668520D02*
G75*
G03*
X14993920Y-20668520I39000J0D01*
G01*
X14993920Y-22450520D02*
G75*
G03*
X14915920Y-22450520I-39000J0D01*
G01*
X14915920Y-22450520D02*
G75*
G03*
X14993920Y-22450520I39000J0D01*
G01*
X14993920Y-22700520D02*
G75*
G03*
X14915920Y-22700520I-39000J0D01*
G01*
X14915920Y-22700520D02*
G75*
G03*
X14993920Y-22700520I39000J0D01*
G01*
X14993920Y-24482520D02*
G75*
G03*
X14915920Y-24482520I-39000J0D01*
G01*
X14915920Y-24482520D02*
G75*
G03*
X14993920Y-24482520I39000J0D01*
G01*
X14993920Y-24732520D02*
G75*
G03*
X14915920Y-24732520I-39000J0D01*
G01*
X14915920Y-24732520D02*
G75*
G03*
X14993920Y-24732520I39000J0D01*
G01*
X15093920Y-18186520D02*
G75*
G03*
X15015920Y-18186520I-39000J0D01*
G01*
X15015920Y-18186520D02*
G75*
G03*
X15093920Y-18186520I39000J0D01*
G01*
X15093920Y-18836520D02*
G75*
G03*
X15015920Y-18836520I-39000J0D01*
G01*
X15015920Y-18836520D02*
G75*
G03*
X15093920Y-18836520I39000J0D01*
G01*
X15093920Y-20218520D02*
G75*
G03*
X15015920Y-20218520I-39000J0D01*
G01*
X15015920Y-20218520D02*
G75*
G03*
X15093920Y-20218520I39000J0D01*
G01*
X15093920Y-20868520D02*
G75*
G03*
X15015920Y-20868520I-39000J0D01*
G01*
X15015920Y-20868520D02*
G75*
G03*
X15093920Y-20868520I39000J0D01*
G01*
X15093920Y-22250520D02*
G75*
G03*
X15015920Y-22250520I-39000J0D01*
G01*
X15015920Y-22250520D02*
G75*
G03*
X15093920Y-22250520I39000J0D01*
G01*
X15093920Y-22900520D02*
G75*
G03*
X15015920Y-22900520I-39000J0D01*
G01*
X15015920Y-22900520D02*
G75*
G03*
X15093920Y-22900520I39000J0D01*
G01*
X15093920Y-24282520D02*
G75*
G03*
X15015920Y-24282520I-39000J0D01*
G01*
X15015920Y-24282520D02*
G75*
G03*
X15093920Y-24282520I39000J0D01*
G01*
X15093920Y-24932520D02*
G75*
G03*
X15015920Y-24932520I-39000J0D01*
G01*
X15015920Y-24932520D02*
G75*
G03*
X15093920Y-24932520I39000J0D01*
G01*
X15193920Y-18386520D02*
G75*
G03*
X15115920Y-18386520I-39000J0D01*
G01*
X15115920Y-18386520D02*
G75*
G03*
X15193920Y-18386520I39000J0D01*
G01*
X15193920Y-18636520D02*
G75*
G03*
X15115920Y-18636520I-39000J0D01*
G01*
X15115920Y-18636520D02*
G75*
G03*
X15193920Y-18636520I39000J0D01*
G01*
X15193920Y-20418520D02*
G75*
G03*
X15115920Y-20418520I-39000J0D01*
G01*
X15115920Y-20418520D02*
G75*
G03*
X15193920Y-20418520I39000J0D01*
G01*
X15193920Y-20668520D02*
G75*
G03*
X15115920Y-20668520I-39000J0D01*
G01*
X15115920Y-20668520D02*
G75*
G03*
X15193920Y-20668520I39000J0D01*
G01*
X15193920Y-22450520D02*
G75*
G03*
X15115920Y-22450520I-39000J0D01*
G01*
X15115920Y-22450520D02*
G75*
G03*
X15193920Y-22450520I39000J0D01*
G01*
X15193920Y-22700520D02*
G75*
G03*
X15115920Y-22700520I-39000J0D01*
G01*
X15115920Y-22700520D02*
G75*
G03*
X15193920Y-22700520I39000J0D01*
G01*
X15193920Y-24482520D02*
G75*
G03*
X15115920Y-24482520I-39000J0D01*
G01*
X15115920Y-24482520D02*
G75*
G03*
X15193920Y-24482520I39000J0D01*
G01*
X15193920Y-24732520D02*
G75*
G03*
X15115920Y-24732520I-39000J0D01*
G01*
X15115920Y-24732520D02*
G75*
G03*
X15193920Y-24732520I39000J0D01*
G01*
X15293920Y-18186520D02*
G75*
G03*
X15215920Y-18186520I-39000J0D01*
G01*
X15215920Y-18186520D02*
G75*
G03*
X15293920Y-18186520I39000J0D01*
G01*
X15293920Y-18836520D02*
G75*
G03*
X15215920Y-18836520I-39000J0D01*
G01*
X15215920Y-18836520D02*
G75*
G03*
X15293920Y-18836520I39000J0D01*
G01*
X15293920Y-20218520D02*
G75*
G03*
X15215920Y-20218520I-39000J0D01*
G01*
X15215920Y-20218520D02*
G75*
G03*
X15293920Y-20218520I39000J0D01*
G01*
X15293920Y-20868520D02*
G75*
G03*
X15215920Y-20868520I-39000J0D01*
G01*
X15215920Y-20868520D02*
G75*
G03*
X15293920Y-20868520I39000J0D01*
G01*
X15293920Y-22250520D02*
G75*
G03*
X15215920Y-22250520I-39000J0D01*
G01*
X15215920Y-22250520D02*
G75*
G03*
X15293920Y-22250520I39000J0D01*
G01*
X15293920Y-22900520D02*
G75*
G03*
X15215920Y-22900520I-39000J0D01*
G01*
X15215920Y-22900520D02*
G75*
G03*
X15293920Y-22900520I39000J0D01*
G01*
X15293920Y-24282520D02*
G75*
G03*
X15215920Y-24282520I-39000J0D01*
G01*
X15215920Y-24282520D02*
G75*
G03*
X15293920Y-24282520I39000J0D01*
G01*
X15293920Y-24932520D02*
G75*
G03*
X15215920Y-24932520I-39000J0D01*
G01*
X15215920Y-24932520D02*
G75*
G03*
X15293920Y-24932520I39000J0D01*
G01*
X15393920Y-18386520D02*
G75*
G03*
X15315920Y-18386520I-39000J0D01*
G01*
X15315920Y-18386520D02*
G75*
G03*
X15393920Y-18386520I39000J0D01*
G01*
X15393920Y-18636520D02*
G75*
G03*
X15315920Y-18636520I-39000J0D01*
G01*
X15315920Y-18636520D02*
G75*
G03*
X15393920Y-18636520I39000J0D01*
G01*
X15393920Y-20418520D02*
G75*
G03*
X15315920Y-20418520I-39000J0D01*
G01*
X15315920Y-20418520D02*
G75*
G03*
X15393920Y-20418520I39000J0D01*
G01*
X15393920Y-20668520D02*
G75*
G03*
X15315920Y-20668520I-39000J0D01*
G01*
X15315920Y-20668520D02*
G75*
G03*
X15393920Y-20668520I39000J0D01*
G01*
X15393920Y-22450520D02*
G75*
G03*
X15315920Y-22450520I-39000J0D01*
G01*
X15315920Y-22450520D02*
G75*
G03*
X15393920Y-22450520I39000J0D01*
G01*
X15393920Y-22700520D02*
G75*
G03*
X15315920Y-22700520I-39000J0D01*
G01*
X15315920Y-22700520D02*
G75*
G03*
X15393920Y-22700520I39000J0D01*
G01*
X15393920Y-24482520D02*
G75*
G03*
X15315920Y-24482520I-39000J0D01*
G01*
X15315920Y-24482520D02*
G75*
G03*
X15393920Y-24482520I39000J0D01*
G01*
X15393920Y-24732520D02*
G75*
G03*
X15315920Y-24732520I-39000J0D01*
G01*
X15315920Y-24732520D02*
G75*
G03*
X15393920Y-24732520I39000J0D01*
G01*
X15493920Y-18186520D02*
G75*
G03*
X15415920Y-18186520I-39000J0D01*
G01*
X15415920Y-18186520D02*
G75*
G03*
X15493920Y-18186520I39000J0D01*
G01*
X15493920Y-18836520D02*
G75*
G03*
X15415920Y-18836520I-39000J0D01*
G01*
X15415920Y-18836520D02*
G75*
G03*
X15493920Y-18836520I39000J0D01*
G01*
X15493920Y-20218520D02*
G75*
G03*
X15415920Y-20218520I-39000J0D01*
G01*
X15415920Y-20218520D02*
G75*
G03*
X15493920Y-20218520I39000J0D01*
G01*
X15493920Y-20868520D02*
G75*
G03*
X15415920Y-20868520I-39000J0D01*
G01*
X15415920Y-20868520D02*
G75*
G03*
X15493920Y-20868520I39000J0D01*
G01*
X15493920Y-22250520D02*
G75*
G03*
X15415920Y-22250520I-39000J0D01*
G01*
X15415920Y-22250520D02*
G75*
G03*
X15493920Y-22250520I39000J0D01*
G01*
X15493920Y-22900520D02*
G75*
G03*
X15415920Y-22900520I-39000J0D01*
G01*
X15415920Y-22900520D02*
G75*
G03*
X15493920Y-22900520I39000J0D01*
G01*
X15493920Y-24282520D02*
G75*
G03*
X15415920Y-24282520I-39000J0D01*
G01*
X15415920Y-24282520D02*
G75*
G03*
X15493920Y-24282520I39000J0D01*
G01*
X15493920Y-24932520D02*
G75*
G03*
X15415920Y-24932520I-39000J0D01*
G01*
X15415920Y-24932520D02*
G75*
G03*
X15493920Y-24932520I39000J0D01*
G01*
X15593920Y-18386520D02*
G75*
G03*
X15515920Y-18386520I-39000J0D01*
G01*
X15515920Y-18386520D02*
G75*
G03*
X15593920Y-18386520I39000J0D01*
G01*
X15593920Y-18636520D02*
G75*
G03*
X15515920Y-18636520I-39000J0D01*
G01*
X15515920Y-18636520D02*
G75*
G03*
X15593920Y-18636520I39000J0D01*
G01*
X15593920Y-20418520D02*
G75*
G03*
X15515920Y-20418520I-39000J0D01*
G01*
X15515920Y-20418520D02*
G75*
G03*
X15593920Y-20418520I39000J0D01*
G01*
X15593920Y-20668520D02*
G75*
G03*
X15515920Y-20668520I-39000J0D01*
G01*
X15515920Y-20668520D02*
G75*
G03*
X15593920Y-20668520I39000J0D01*
G01*
X15593920Y-22450520D02*
G75*
G03*
X15515920Y-22450520I-39000J0D01*
G01*
X15515920Y-22450520D02*
G75*
G03*
X15593920Y-22450520I39000J0D01*
G01*
X15593920Y-22700520D02*
G75*
G03*
X15515920Y-22700520I-39000J0D01*
G01*
X15515920Y-22700520D02*
G75*
G03*
X15593920Y-22700520I39000J0D01*
G01*
X15593920Y-24482520D02*
G75*
G03*
X15515920Y-24482520I-39000J0D01*
G01*
X15515920Y-24482520D02*
G75*
G03*
X15593920Y-24482520I39000J0D01*
G01*
X15593920Y-24732520D02*
G75*
G03*
X15515920Y-24732520I-39000J0D01*
G01*
X15515920Y-24732520D02*
G75*
G03*
X15593920Y-24732520I39000J0D01*
G01*
X15693920Y-18186520D02*
G75*
G03*
X15615920Y-18186520I-39000J0D01*
G01*
X15615920Y-18186520D02*
G75*
G03*
X15693920Y-18186520I39000J0D01*
G01*
X15693920Y-18836520D02*
G75*
G03*
X15615920Y-18836520I-39000J0D01*
G01*
X15615920Y-18836520D02*
G75*
G03*
X15693920Y-18836520I39000J0D01*
G01*
X15693920Y-20218520D02*
G75*
G03*
X15615920Y-20218520I-39000J0D01*
G01*
X15615920Y-20218520D02*
G75*
G03*
X15693920Y-20218520I39000J0D01*
G01*
X15693920Y-20868520D02*
G75*
G03*
X15615920Y-20868520I-39000J0D01*
G01*
X15615920Y-20868520D02*
G75*
G03*
X15693920Y-20868520I39000J0D01*
G01*
X15693920Y-22250520D02*
G75*
G03*
X15615920Y-22250520I-39000J0D01*
G01*
X15615920Y-22250520D02*
G75*
G03*
X15693920Y-22250520I39000J0D01*
G01*
X15693920Y-22900520D02*
G75*
G03*
X15615920Y-22900520I-39000J0D01*
G01*
X15615920Y-22900520D02*
G75*
G03*
X15693920Y-22900520I39000J0D01*
G01*
X15693920Y-24282520D02*
G75*
G03*
X15615920Y-24282520I-39000J0D01*
G01*
X15615920Y-24282520D02*
G75*
G03*
X15693920Y-24282520I39000J0D01*
G01*
X15693920Y-24932520D02*
G75*
G03*
X15615920Y-24932520I-39000J0D01*
G01*
X15615920Y-24932520D02*
G75*
G03*
X15693920Y-24932520I39000J0D01*
G01*
X15793920Y-18386520D02*
G75*
G03*
X15715920Y-18386520I-39000J0D01*
G01*
X15715920Y-18386520D02*
G75*
G03*
X15793920Y-18386520I39000J0D01*
G01*
X15793920Y-18636520D02*
G75*
G03*
X15715920Y-18636520I-39000J0D01*
G01*
X15715920Y-18636520D02*
G75*
G03*
X15793920Y-18636520I39000J0D01*
G01*
X15793920Y-20418520D02*
G75*
G03*
X15715920Y-20418520I-39000J0D01*
G01*
X15715920Y-20418520D02*
G75*
G03*
X15793920Y-20418520I39000J0D01*
G01*
X15793920Y-20668520D02*
G75*
G03*
X15715920Y-20668520I-39000J0D01*
G01*
X15715920Y-20668520D02*
G75*
G03*
X15793920Y-20668520I39000J0D01*
G01*
X15793920Y-22450520D02*
G75*
G03*
X15715920Y-22450520I-39000J0D01*
G01*
X15715920Y-22450520D02*
G75*
G03*
X15793920Y-22450520I39000J0D01*
G01*
X15793920Y-22700520D02*
G75*
G03*
X15715920Y-22700520I-39000J0D01*
G01*
X15715920Y-22700520D02*
G75*
G03*
X15793920Y-22700520I39000J0D01*
G01*
X15793920Y-24482520D02*
G75*
G03*
X15715920Y-24482520I-39000J0D01*
G01*
X15715920Y-24482520D02*
G75*
G03*
X15793920Y-24482520I39000J0D01*
G01*
X15793920Y-24732520D02*
G75*
G03*
X15715920Y-24732520I-39000J0D01*
G01*
X15715920Y-24732520D02*
G75*
G03*
X15793920Y-24732520I39000J0D01*
G01*
X15893920Y-18186520D02*
G75*
G03*
X15815920Y-18186520I-39000J0D01*
G01*
X15815920Y-18186520D02*
G75*
G03*
X15893920Y-18186520I39000J0D01*
G01*
X15893920Y-18836520D02*
G75*
G03*
X15815920Y-18836520I-39000J0D01*
G01*
X15815920Y-18836520D02*
G75*
G03*
X15893920Y-18836520I39000J0D01*
G01*
X15893920Y-20218520D02*
G75*
G03*
X15815920Y-20218520I-39000J0D01*
G01*
X15815920Y-20218520D02*
G75*
G03*
X15893920Y-20218520I39000J0D01*
G01*
X15893920Y-20868520D02*
G75*
G03*
X15815920Y-20868520I-39000J0D01*
G01*
X15815920Y-20868520D02*
G75*
G03*
X15893920Y-20868520I39000J0D01*
G01*
X15893920Y-22250520D02*
G75*
G03*
X15815920Y-22250520I-39000J0D01*
G01*
X15815920Y-22250520D02*
G75*
G03*
X15893920Y-22250520I39000J0D01*
G01*
X15893920Y-22900520D02*
G75*
G03*
X15815920Y-22900520I-39000J0D01*
G01*
X15815920Y-22900520D02*
G75*
G03*
X15893920Y-22900520I39000J0D01*
G01*
X15893920Y-24282520D02*
G75*
G03*
X15815920Y-24282520I-39000J0D01*
G01*
X15815920Y-24282520D02*
G75*
G03*
X15893920Y-24282520I39000J0D01*
G01*
X15893920Y-24932520D02*
G75*
G03*
X15815920Y-24932520I-39000J0D01*
G01*
X15815920Y-24932520D02*
G75*
G03*
X15893920Y-24932520I39000J0D01*
G01*
X15993920Y-18386520D02*
G75*
G03*
X15915920Y-18386520I-39000J0D01*
G01*
X15915920Y-18386520D02*
G75*
G03*
X15993920Y-18386520I39000J0D01*
G01*
X15993920Y-18636520D02*
G75*
G03*
X15915920Y-18636520I-39000J0D01*
G01*
X15915920Y-18636520D02*
G75*
G03*
X15993920Y-18636520I39000J0D01*
G01*
X15993920Y-20418520D02*
G75*
G03*
X15915920Y-20418520I-39000J0D01*
G01*
X15915920Y-20418520D02*
G75*
G03*
X15993920Y-20418520I39000J0D01*
G01*
X15993920Y-20668520D02*
G75*
G03*
X15915920Y-20668520I-39000J0D01*
G01*
X15915920Y-20668520D02*
G75*
G03*
X15993920Y-20668520I39000J0D01*
G01*
X15993920Y-22450520D02*
G75*
G03*
X15915920Y-22450520I-39000J0D01*
G01*
X15915920Y-22450520D02*
G75*
G03*
X15993920Y-22450520I39000J0D01*
G01*
X15993920Y-22700520D02*
G75*
G03*
X15915920Y-22700520I-39000J0D01*
G01*
X15915920Y-22700520D02*
G75*
G03*
X15993920Y-22700520I39000J0D01*
G01*
X15993920Y-24482520D02*
G75*
G03*
X15915920Y-24482520I-39000J0D01*
G01*
X15915920Y-24482520D02*
G75*
G03*
X15993920Y-24482520I39000J0D01*
G01*
X15993920Y-24732520D02*
G75*
G03*
X15915920Y-24732520I-39000J0D01*
G01*
X15915920Y-24732520D02*
G75*
G03*
X15993920Y-24732520I39000J0D01*
G01*
X16093920Y-18186520D02*
G75*
G03*
X16015920Y-18186520I-39000J0D01*
G01*
X16015920Y-18186520D02*
G75*
G03*
X16093920Y-18186520I39000J0D01*
G01*
X16093920Y-18836520D02*
G75*
G03*
X16015920Y-18836520I-39000J0D01*
G01*
X16015920Y-18836520D02*
G75*
G03*
X16093920Y-18836520I39000J0D01*
G01*
X16093920Y-20218520D02*
G75*
G03*
X16015920Y-20218520I-39000J0D01*
G01*
X16015920Y-20218520D02*
G75*
G03*
X16093920Y-20218520I39000J0D01*
G01*
X16093920Y-20868520D02*
G75*
G03*
X16015920Y-20868520I-39000J0D01*
G01*
X16015920Y-20868520D02*
G75*
G03*
X16093920Y-20868520I39000J0D01*
G01*
X16093920Y-22250520D02*
G75*
G03*
X16015920Y-22250520I-39000J0D01*
G01*
X16015920Y-22250520D02*
G75*
G03*
X16093920Y-22250520I39000J0D01*
G01*
X16093920Y-22900520D02*
G75*
G03*
X16015920Y-22900520I-39000J0D01*
G01*
X16015920Y-22900520D02*
G75*
G03*
X16093920Y-22900520I39000J0D01*
G01*
X16093920Y-24282520D02*
G75*
G03*
X16015920Y-24282520I-39000J0D01*
G01*
X16015920Y-24282520D02*
G75*
G03*
X16093920Y-24282520I39000J0D01*
G01*
X16093920Y-24932520D02*
G75*
G03*
X16015920Y-24932520I-39000J0D01*
G01*
X16015920Y-24932520D02*
G75*
G03*
X16093920Y-24932520I39000J0D01*
G01*
X16193920Y-18386520D02*
G75*
G03*
X16115920Y-18386520I-39000J0D01*
G01*
X16115920Y-18386520D02*
G75*
G03*
X16193920Y-18386520I39000J0D01*
G01*
X16193920Y-18636520D02*
G75*
G03*
X16115920Y-18636520I-39000J0D01*
G01*
X16115920Y-18636520D02*
G75*
G03*
X16193920Y-18636520I39000J0D01*
G01*
X16193920Y-20418520D02*
G75*
G03*
X16115920Y-20418520I-39000J0D01*
G01*
X16115920Y-20418520D02*
G75*
G03*
X16193920Y-20418520I39000J0D01*
G01*
X16193920Y-20668520D02*
G75*
G03*
X16115920Y-20668520I-39000J0D01*
G01*
X16115920Y-20668520D02*
G75*
G03*
X16193920Y-20668520I39000J0D01*
G01*
X16193920Y-22450520D02*
G75*
G03*
X16115920Y-22450520I-39000J0D01*
G01*
X16115920Y-22450520D02*
G75*
G03*
X16193920Y-22450520I39000J0D01*
G01*
X16193920Y-22700520D02*
G75*
G03*
X16115920Y-22700520I-39000J0D01*
G01*
X16115920Y-22700520D02*
G75*
G03*
X16193920Y-22700520I39000J0D01*
G01*
X16193920Y-24482520D02*
G75*
G03*
X16115920Y-24482520I-39000J0D01*
G01*
X16115920Y-24482520D02*
G75*
G03*
X16193920Y-24482520I39000J0D01*
G01*
X16193920Y-24732520D02*
G75*
G03*
X16115920Y-24732520I-39000J0D01*
G01*
X16115920Y-24732520D02*
G75*
G03*
X16193920Y-24732520I39000J0D01*
G01*
X16293920Y-18186520D02*
G75*
G03*
X16215920Y-18186520I-39000J0D01*
G01*
X16215920Y-18186520D02*
G75*
G03*
X16293920Y-18186520I39000J0D01*
G01*
X16293920Y-18836520D02*
G75*
G03*
X16215920Y-18836520I-39000J0D01*
G01*
X16215920Y-18836520D02*
G75*
G03*
X16293920Y-18836520I39000J0D01*
G01*
X16293920Y-20218520D02*
G75*
G03*
X16215920Y-20218520I-39000J0D01*
G01*
X16215920Y-20218520D02*
G75*
G03*
X16293920Y-20218520I39000J0D01*
G01*
X16293920Y-20868520D02*
G75*
G03*
X16215920Y-20868520I-39000J0D01*
G01*
X16215920Y-20868520D02*
G75*
G03*
X16293920Y-20868520I39000J0D01*
G01*
X16293920Y-22250520D02*
G75*
G03*
X16215920Y-22250520I-39000J0D01*
G01*
X16215920Y-22250520D02*
G75*
G03*
X16293920Y-22250520I39000J0D01*
G01*
X16293920Y-22900520D02*
G75*
G03*
X16215920Y-22900520I-39000J0D01*
G01*
X16215920Y-22900520D02*
G75*
G03*
X16293920Y-22900520I39000J0D01*
G01*
X16293920Y-24282520D02*
G75*
G03*
X16215920Y-24282520I-39000J0D01*
G01*
X16215920Y-24282520D02*
G75*
G03*
X16293920Y-24282520I39000J0D01*
G01*
X16293920Y-24932520D02*
G75*
G03*
X16215920Y-24932520I-39000J0D01*
G01*
X16215920Y-24932520D02*
G75*
G03*
X16293920Y-24932520I39000J0D01*
G01*
X16393920Y-18386520D02*
G75*
G03*
X16315920Y-18386520I-39000J0D01*
G01*
X16315920Y-18386520D02*
G75*
G03*
X16393920Y-18386520I39000J0D01*
G01*
X16393920Y-18636520D02*
G75*
G03*
X16315920Y-18636520I-39000J0D01*
G01*
X16315920Y-18636520D02*
G75*
G03*
X16393920Y-18636520I39000J0D01*
G01*
X16393920Y-20418520D02*
G75*
G03*
X16315920Y-20418520I-39000J0D01*
G01*
X16315920Y-20418520D02*
G75*
G03*
X16393920Y-20418520I39000J0D01*
G01*
X16393920Y-20668520D02*
G75*
G03*
X16315920Y-20668520I-39000J0D01*
G01*
X16315920Y-20668520D02*
G75*
G03*
X16393920Y-20668520I39000J0D01*
G01*
X16393920Y-22450520D02*
G75*
G03*
X16315920Y-22450520I-39000J0D01*
G01*
X16315920Y-22450520D02*
G75*
G03*
X16393920Y-22450520I39000J0D01*
G01*
X16393920Y-22700520D02*
G75*
G03*
X16315920Y-22700520I-39000J0D01*
G01*
X16315920Y-22700520D02*
G75*
G03*
X16393920Y-22700520I39000J0D01*
G01*
X16393920Y-24482520D02*
G75*
G03*
X16315920Y-24482520I-39000J0D01*
G01*
X16315920Y-24482520D02*
G75*
G03*
X16393920Y-24482520I39000J0D01*
G01*
X16393920Y-24732520D02*
G75*
G03*
X16315920Y-24732520I-39000J0D01*
G01*
X16315920Y-24732520D02*
G75*
G03*
X16393920Y-24732520I39000J0D01*
G01*
X16493920Y-18186520D02*
G75*
G03*
X16415920Y-18186520I-39000J0D01*
G01*
X16415920Y-18186520D02*
G75*
G03*
X16493920Y-18186520I39000J0D01*
G01*
X16493920Y-18836520D02*
G75*
G03*
X16415920Y-18836520I-39000J0D01*
G01*
X16415920Y-18836520D02*
G75*
G03*
X16493920Y-18836520I39000J0D01*
G01*
X16493920Y-20218520D02*
G75*
G03*
X16415920Y-20218520I-39000J0D01*
G01*
X16415920Y-20218520D02*
G75*
G03*
X16493920Y-20218520I39000J0D01*
G01*
X16493920Y-20868520D02*
G75*
G03*
X16415920Y-20868520I-39000J0D01*
G01*
X16415920Y-20868520D02*
G75*
G03*
X16493920Y-20868520I39000J0D01*
G01*
X16493920Y-22250520D02*
G75*
G03*
X16415920Y-22250520I-39000J0D01*
G01*
X16415920Y-22250520D02*
G75*
G03*
X16493920Y-22250520I39000J0D01*
G01*
X16493920Y-22900520D02*
G75*
G03*
X16415920Y-22900520I-39000J0D01*
G01*
X16415920Y-22900520D02*
G75*
G03*
X16493920Y-22900520I39000J0D01*
G01*
X16493920Y-24282520D02*
G75*
G03*
X16415920Y-24282520I-39000J0D01*
G01*
X16415920Y-24282520D02*
G75*
G03*
X16493920Y-24282520I39000J0D01*
G01*
X16493920Y-24932520D02*
G75*
G03*
X16415920Y-24932520I-39000J0D01*
G01*
X16415920Y-24932520D02*
G75*
G03*
X16493920Y-24932520I39000J0D01*
G01*
X16593920Y-18386520D02*
G75*
G03*
X16515920Y-18386520I-39000J0D01*
G01*
X16515920Y-18386520D02*
G75*
G03*
X16593920Y-18386520I39000J0D01*
G01*
X16593920Y-18636520D02*
G75*
G03*
X16515920Y-18636520I-39000J0D01*
G01*
X16515920Y-18636520D02*
G75*
G03*
X16593920Y-18636520I39000J0D01*
G01*
X16593920Y-20418520D02*
G75*
G03*
X16515920Y-20418520I-39000J0D01*
G01*
X16515920Y-20418520D02*
G75*
G03*
X16593920Y-20418520I39000J0D01*
G01*
X16593920Y-20668520D02*
G75*
G03*
X16515920Y-20668520I-39000J0D01*
G01*
X16515920Y-20668520D02*
G75*
G03*
X16593920Y-20668520I39000J0D01*
G01*
X16593920Y-22450520D02*
G75*
G03*
X16515920Y-22450520I-39000J0D01*
G01*
X16515920Y-22450520D02*
G75*
G03*
X16593920Y-22450520I39000J0D01*
G01*
X16593920Y-22700520D02*
G75*
G03*
X16515920Y-22700520I-39000J0D01*
G01*
X16515920Y-22700520D02*
G75*
G03*
X16593920Y-22700520I39000J0D01*
G01*
X16593920Y-24482520D02*
G75*
G03*
X16515920Y-24482520I-39000J0D01*
G01*
X16515920Y-24482520D02*
G75*
G03*
X16593920Y-24482520I39000J0D01*
G01*
X16593920Y-24732520D02*
G75*
G03*
X16515920Y-24732520I-39000J0D01*
G01*
X16515920Y-24732520D02*
G75*
G03*
X16593920Y-24732520I39000J0D01*
G01*
X16693920Y-18186520D02*
G75*
G03*
X16615920Y-18186520I-39000J0D01*
G01*
X16615920Y-18186520D02*
G75*
G03*
X16693920Y-18186520I39000J0D01*
G01*
X16693920Y-18836520D02*
G75*
G03*
X16615920Y-18836520I-39000J0D01*
G01*
X16615920Y-18836520D02*
G75*
G03*
X16693920Y-18836520I39000J0D01*
G01*
X16693920Y-20218520D02*
G75*
G03*
X16615920Y-20218520I-39000J0D01*
G01*
X16615920Y-20218520D02*
G75*
G03*
X16693920Y-20218520I39000J0D01*
G01*
X16693920Y-20868520D02*
G75*
G03*
X16615920Y-20868520I-39000J0D01*
G01*
X16615920Y-20868520D02*
G75*
G03*
X16693920Y-20868520I39000J0D01*
G01*
X16693920Y-22250520D02*
G75*
G03*
X16615920Y-22250520I-39000J0D01*
G01*
X16615920Y-22250520D02*
G75*
G03*
X16693920Y-22250520I39000J0D01*
G01*
X16693920Y-22900520D02*
G75*
G03*
X16615920Y-22900520I-39000J0D01*
G01*
X16615920Y-22900520D02*
G75*
G03*
X16693920Y-22900520I39000J0D01*
G01*
X16693920Y-24282520D02*
G75*
G03*
X16615920Y-24282520I-39000J0D01*
G01*
X16615920Y-24282520D02*
G75*
G03*
X16693920Y-24282520I39000J0D01*
G01*
X16693920Y-24932520D02*
G75*
G03*
X16615920Y-24932520I-39000J0D01*
G01*
X16615920Y-24932520D02*
G75*
G03*
X16693920Y-24932520I39000J0D01*
G01*
X8134000Y-16202000D02*
X8134000Y-16302000D01*
X8084000Y-16252000D02*
X8184000Y-16252000D01*
X8134000Y-16456000D02*
X8134000Y-16556000D01*
X8084000Y-16506000D02*
X8184000Y-16506000D01*
X8388000Y-16202000D02*
X8388000Y-16302000D01*
X8338000Y-16252000D02*
X8438000Y-16252000D01*
X8388000Y-16456000D02*
X8388000Y-16556000D01*
X8338000Y-16506000D02*
X8438000Y-16506000D01*
X8642000Y-16202000D02*
X8642000Y-16302000D01*
X8592000Y-16252000D02*
X8692000Y-16252000D01*
X8642000Y-16456000D02*
X8642000Y-16556000D01*
X8592000Y-16506000D02*
X8692000Y-16506000D01*
X8896000Y-16202000D02*
X8896000Y-16302000D01*
X8846000Y-16252000D02*
X8946000Y-16252000D01*
X8896000Y-16456000D02*
X8896000Y-16556000D01*
X8846000Y-16506000D02*
X8946000Y-16506000D01*
X9150000Y-16202000D02*
X9150000Y-16302000D01*
X9100000Y-16252000D02*
X9200000Y-16252000D01*
X9150000Y-16456000D02*
X9150000Y-16556000D01*
X9100000Y-16506000D02*
X9200000Y-16506000D01*
X9404000Y-16202000D02*
X9404000Y-16302000D01*
X9354000Y-16252000D02*
X9454000Y-16252000D01*
X9404000Y-16456000D02*
X9404000Y-16556000D01*
X9354000Y-16506000D02*
X9454000Y-16506000D01*
X9658000Y-16202000D02*
X9658000Y-16302000D01*
X9608000Y-16252000D02*
X9708000Y-16252000D01*
X9658000Y-16456000D02*
X9658000Y-16556000D01*
X9608000Y-16506000D02*
X9708000Y-16506000D01*
X9912000Y-16202000D02*
X9912000Y-16302000D01*
X9862000Y-16252000D02*
X9962000Y-16252000D01*
X9912000Y-16456000D02*
X9912000Y-16556000D01*
X9862000Y-16506000D02*
X9962000Y-16506000D01*
X10166000Y-16202000D02*
X10166000Y-16302000D01*
X10116000Y-16252000D02*
X10216000Y-16252000D01*
X10166000Y-16456000D02*
X10166000Y-16556000D01*
X10116000Y-16506000D02*
X10216000Y-16506000D01*
X10420000Y-16202000D02*
X10420000Y-16302000D01*
X10370000Y-16252000D02*
X10470000Y-16252000D01*
X10420000Y-16456000D02*
X10420000Y-16556000D01*
X10370000Y-16506000D02*
X10470000Y-16506000D01*
X10674000Y-16202000D02*
X10674000Y-16302000D01*
X10624000Y-16252000D02*
X10724000Y-16252000D01*
X10674000Y-16456000D02*
X10674000Y-16556000D01*
X10624000Y-16506000D02*
X10724000Y-16506000D01*
X10928000Y-16202000D02*
X10928000Y-16302000D01*
X10878000Y-16252000D02*
X10978000Y-16252000D01*
X10928000Y-16456000D02*
X10928000Y-16556000D01*
X10878000Y-16506000D02*
X10978000Y-16506000D01*
X11182000Y-16202000D02*
X11182000Y-16302000D01*
X11132000Y-16252000D02*
X11232000Y-16252000D01*
X11182000Y-16456000D02*
X11182000Y-16556000D01*
X11132000Y-16506000D02*
X11232000Y-16506000D01*
X11436000Y-16202000D02*
X11436000Y-16302000D01*
X11386000Y-16252000D02*
X11486000Y-16252000D01*
X11436000Y-16456000D02*
X11436000Y-16556000D01*
X11386000Y-16506000D02*
X11486000Y-16506000D01*
X11690000Y-16202000D02*
X11690000Y-16302000D01*
X11640000Y-16252000D02*
X11740000Y-16252000D01*
X11690000Y-16456000D02*
X11690000Y-16556000D01*
X11640000Y-16506000D02*
X11740000Y-16506000D01*
X11944000Y-16202000D02*
X11944000Y-16302000D01*
X11894000Y-16252000D02*
X11994000Y-16252000D01*
X11944000Y-16456000D02*
X11944000Y-16556000D01*
X11894000Y-16506000D02*
X11994000Y-16506000D01*
X12198000Y-16202000D02*
X12198000Y-16302000D01*
X12148000Y-16252000D02*
X12248000Y-16252000D01*
X12198000Y-16456000D02*
X12198000Y-16556000D01*
X12148000Y-16506000D02*
X12248000Y-16506000D01*
X12452000Y-16202000D02*
X12452000Y-16302000D01*
X12402000Y-16252000D02*
X12502000Y-16252000D01*
X12452000Y-16456000D02*
X12452000Y-16556000D01*
X12402000Y-16506000D02*
X12502000Y-16506000D01*
X12706000Y-16202000D02*
X12706000Y-16302000D01*
X12656000Y-16252000D02*
X12756000Y-16252000D01*
X12706000Y-16456000D02*
X12706000Y-16556000D01*
X12656000Y-16506000D02*
X12756000Y-16506000D01*
X12960000Y-16202000D02*
X12960000Y-16302000D01*
X12910000Y-16252000D02*
X13010000Y-16252000D01*
X12960000Y-16456000D02*
X12960000Y-16556000D01*
X12910000Y-16506000D02*
X13010000Y-16506000D01*
X13214000Y-16202000D02*
X13214000Y-16302000D01*
X13164000Y-16252000D02*
X13264000Y-16252000D01*
X13214000Y-16456000D02*
X13214000Y-16556000D01*
X13164000Y-16506000D02*
X13264000Y-16506000D01*
X13468000Y-16202000D02*
X13468000Y-16302000D01*
X13418000Y-16252000D02*
X13518000Y-16252000D01*
X13468000Y-16456000D02*
X13468000Y-16556000D01*
X13418000Y-16506000D02*
X13518000Y-16506000D01*
X13722000Y-16202000D02*
X13722000Y-16302000D01*
X13672000Y-16252000D02*
X13772000Y-16252000D01*
X13722000Y-16456000D02*
X13722000Y-16556000D01*
X13672000Y-16506000D02*
X13772000Y-16506000D01*
X13976000Y-16202000D02*
X13976000Y-16302000D01*
X13926000Y-16252000D02*
X14026000Y-16252000D01*
X13976000Y-16456000D02*
X13976000Y-16556000D01*
X13926000Y-16506000D02*
X14026000Y-16506000D01*
X14230000Y-16202000D02*
X14230000Y-16302000D01*
X14180000Y-16252000D02*
X14280000Y-16252000D01*
X14230000Y-16456000D02*
X14230000Y-16556000D01*
X14180000Y-16506000D02*
X14280000Y-16506000D01*
X14484000Y-16202000D02*
X14484000Y-16302000D01*
X14434000Y-16252000D02*
X14534000Y-16252000D01*
X14484000Y-16456000D02*
X14484000Y-16556000D01*
X14434000Y-16506000D02*
X14534000Y-16506000D01*
X14738000Y-16202000D02*
X14738000Y-16302000D01*
X14688000Y-16252000D02*
X14788000Y-16252000D01*
X14738000Y-16456000D02*
X14738000Y-16556000D01*
X14688000Y-16506000D02*
X14788000Y-16506000D01*
X14992000Y-16202000D02*
X14992000Y-16302000D01*
X14942000Y-16252000D02*
X15042000Y-16252000D01*
X14992000Y-16456000D02*
X14992000Y-16556000D01*
X14942000Y-16506000D02*
X15042000Y-16506000D01*
X15246000Y-16202000D02*
X15246000Y-16302000D01*
X15196000Y-16252000D02*
X15296000Y-16252000D01*
X15246000Y-16456000D02*
X15246000Y-16556000D01*
X15196000Y-16506000D02*
X15296000Y-16506000D01*
X15500000Y-16202000D02*
X15500000Y-16302000D01*
X15450000Y-16252000D02*
X15550000Y-16252000D01*
X15500000Y-16456000D02*
X15500000Y-16556000D01*
X15450000Y-16506000D02*
X15550000Y-16506000D01*
X15754000Y-16202000D02*
X15754000Y-16302000D01*
X15704000Y-16252000D02*
X15804000Y-16252000D01*
X15754000Y-16456000D02*
X15754000Y-16556000D01*
X15704000Y-16506000D02*
X15804000Y-16506000D01*
X16008000Y-16202000D02*
X16008000Y-16302000D01*
X15958000Y-16252000D02*
X16058000Y-16252000D01*
X16008000Y-16456000D02*
X16008000Y-16556000D01*
X15958000Y-16506000D02*
X16058000Y-16506000D01*
X16262000Y-16202000D02*
X16262000Y-16302000D01*
X16212000Y-16252000D02*
X16312000Y-16252000D01*
X16262000Y-16456000D02*
X16262000Y-16556000D01*
X16212000Y-16506000D02*
X16312000Y-16506000D01*
X16516000Y-16202000D02*
X16516000Y-16302000D01*
X16466000Y-16252000D02*
X16566000Y-16252000D01*
X16516000Y-16456000D02*
X16516000Y-16556000D01*
X16466000Y-16506000D02*
X16566000Y-16506000D01*
X16770000Y-16202000D02*
X16770000Y-16302000D01*
X16720000Y-16252000D02*
X16820000Y-16252000D01*
X16770000Y-16456000D02*
X16770000Y-16556000D01*
X16720000Y-16506000D02*
X16820000Y-16506000D01*
X17024000Y-16202000D02*
X17024000Y-16302000D01*
X16974000Y-16252000D02*
X17074000Y-16252000D01*
X17024000Y-16456000D02*
X17024000Y-16556000D01*
X16974000Y-16506000D02*
X17074000Y-16506000D01*
X17278000Y-16202000D02*
X17278000Y-16302000D01*
X17228000Y-16252000D02*
X17328000Y-16252000D01*
X17278000Y-16456000D02*
X17278000Y-16556000D01*
X17228000Y-16506000D02*
X17328000Y-16506000D01*
X17532000Y-16202000D02*
X17532000Y-16302000D01*
X17482000Y-16252000D02*
X17582000Y-16252000D01*
X17532000Y-16456000D02*
X17532000Y-16556000D01*
X17482000Y-16506000D02*
X17582000Y-16506000D01*
X17786000Y-16202000D02*
X17786000Y-16302000D01*
X17736000Y-16252000D02*
X17836000Y-16252000D01*
X17786000Y-16456000D02*
X17786000Y-16556000D01*
X17736000Y-16506000D02*
X17836000Y-16506000D01*
X18040000Y-16202000D02*
X18040000Y-16302000D01*
X17990000Y-16252000D02*
X18090000Y-16252000D01*
X18040000Y-16456000D02*
X18040000Y-16556000D01*
X17990000Y-16506000D02*
X18090000Y-16506000D01*
X18548000Y-16202000D02*
X18548000Y-16302000D01*
X18498000Y-16252000D02*
X18598000Y-16252000D01*
X18548000Y-16456000D02*
X18548000Y-16556000D01*
X18498000Y-16506000D02*
X18598000Y-16506000D01*
X18802000Y-16202000D02*
X18802000Y-16302000D01*
X18752000Y-16252000D02*
X18852000Y-16252000D01*
X18802000Y-16456000D02*
X18802000Y-16556000D01*
X18752000Y-16506000D02*
X18852000Y-16506000D01*
X19056000Y-16202000D02*
X19056000Y-16302000D01*
X19006000Y-16252000D02*
X19106000Y-16252000D01*
X19056000Y-16456000D02*
X19056000Y-16556000D01*
X19006000Y-16506000D02*
X19106000Y-16506000D01*
X19310000Y-16202000D02*
X19310000Y-16302000D01*
X19260000Y-16252000D02*
X19360000Y-16252000D01*
X19310000Y-16456000D02*
X19310000Y-16556000D01*
X19260000Y-16506000D02*
X19360000Y-16506000D01*
X19564000Y-16202000D02*
X19564000Y-16302000D01*
X19514000Y-16252000D02*
X19614000Y-16252000D01*
X19564000Y-16456000D02*
X19564000Y-16556000D01*
X19514000Y-16506000D02*
X19614000Y-16506000D01*
X19818000Y-16202000D02*
X19818000Y-16302000D01*
X19768000Y-16252000D02*
X19868000Y-16252000D01*
X19818000Y-16456000D02*
X19818000Y-16556000D01*
X19768000Y-16506000D02*
X19868000Y-16506000D01*
X20072000Y-16202000D02*
X20072000Y-16302000D01*
X20022000Y-16252000D02*
X20122000Y-16252000D01*
X20072000Y-16456000D02*
X20072000Y-16556000D01*
X20022000Y-16506000D02*
X20122000Y-16506000D01*
X20326000Y-16202000D02*
X20326000Y-16302000D01*
X20276000Y-16252000D02*
X20376000Y-16252000D01*
X20326000Y-16456000D02*
X20326000Y-16556000D01*
X20276000Y-16506000D02*
X20376000Y-16506000D01*
X20580000Y-16202000D02*
X20580000Y-16302000D01*
X20530000Y-16252000D02*
X20630000Y-16252000D01*
X20580000Y-16456000D02*
X20580000Y-16556000D01*
X20530000Y-16506000D02*
X20630000Y-16506000D01*
X20834000Y-16202000D02*
X20834000Y-16302000D01*
X20784000Y-16252000D02*
X20884000Y-16252000D01*
X20834000Y-16456000D02*
X20834000Y-16556000D01*
X20784000Y-16506000D02*
X20884000Y-16506000D01*
X21088000Y-16202000D02*
X21088000Y-16302000D01*
X21038000Y-16252000D02*
X21138000Y-16252000D01*
X21088000Y-16456000D02*
X21088000Y-16556000D01*
X21038000Y-16506000D02*
X21138000Y-16506000D01*
X21342000Y-16202000D02*
X21342000Y-16302000D01*
X21292000Y-16252000D02*
X21392000Y-16252000D01*
X21342000Y-16456000D02*
X21342000Y-16556000D01*
X21292000Y-16506000D02*
X21392000Y-16506000D01*
X21596000Y-16202000D02*
X21596000Y-16302000D01*
X21546000Y-16252000D02*
X21646000Y-16252000D01*
X21596000Y-16456000D02*
X21596000Y-16556000D01*
X21546000Y-16506000D02*
X21646000Y-16506000D01*
X21850000Y-16202000D02*
X21850000Y-16302000D01*
X21800000Y-16252000D02*
X21900000Y-16252000D01*
X21850000Y-16456000D02*
X21850000Y-16556000D01*
X21800000Y-16506000D02*
X21900000Y-16506000D01*
X22104000Y-16202000D02*
X22104000Y-16302000D01*
X22054000Y-16252000D02*
X22154000Y-16252000D01*
X22104000Y-16456000D02*
X22104000Y-16556000D01*
X22054000Y-16506000D02*
X22154000Y-16506000D01*
X22358000Y-16202000D02*
X22358000Y-16302000D01*
X22308000Y-16252000D02*
X22408000Y-16252000D01*
X22358000Y-16456000D02*
X22358000Y-16556000D01*
X22308000Y-16506000D02*
X22408000Y-16506000D01*
X22612000Y-16202000D02*
X22612000Y-16302000D01*
X22562000Y-16252000D02*
X22662000Y-16252000D01*
X22612000Y-16456000D02*
X22612000Y-16556000D01*
X22562000Y-16506000D02*
X22662000Y-16506000D01*
X22612000Y-18488000D02*
X22612000Y-18588000D01*
X22562000Y-18538000D02*
X22662000Y-18538000D01*
X22866000Y-16202000D02*
X22866000Y-16302000D01*
X22816000Y-16252000D02*
X22916000Y-16252000D01*
X22866000Y-16456000D02*
X22866000Y-16556000D01*
X22816000Y-16506000D02*
X22916000Y-16506000D01*
X22866000Y-18488000D02*
X22866000Y-18588000D01*
X22816000Y-18538000D02*
X22916000Y-18538000D01*
D13*
X22376266Y-20836266D02*
X22376266Y-20733734D01*
X22273734Y-20733734D01*
X22273734Y-20836266D01*
X22376266Y-20836266D01*
X22376266Y-21256266D02*
X22376266Y-21153734D01*
X22273734Y-21153734D01*
X22273734Y-21256266D01*
X22376266Y-21256266D01*
X22376266Y-21676266D02*
X22376266Y-21573734D01*
X22273734Y-21573734D01*
X22273734Y-21676266D01*
X22376266Y-21676266D01*
X22376266Y-22096266D02*
X22376266Y-21993734D01*
X22273734Y-21993734D01*
X22273734Y-22096266D01*
X22376266Y-22096266D01*
X22376266Y-22516266D02*
X22376266Y-22413734D01*
X22273734Y-22413734D01*
X22273734Y-22516266D01*
X22376266Y-22516266D01*
X22376266Y-22936266D02*
X22376266Y-22833734D01*
X22273734Y-22833734D01*
X22273734Y-22936266D01*
X22376266Y-22936266D01*
X22376266Y-23356266D02*
X22376266Y-23253734D01*
X22273734Y-23253734D01*
X22273734Y-23356266D01*
X22376266Y-23356266D01*
X22376266Y-23776266D02*
X22376266Y-23673734D01*
X22273734Y-23673734D01*
X22273734Y-23776266D01*
X22376266Y-23776266D01*
X22376266Y-24196266D02*
X22376266Y-24093734D01*
X22273734Y-24093734D01*
X22273734Y-24196266D01*
X22376266Y-24196266D01*
X22376266Y-24616266D02*
X22376266Y-24513734D01*
X22273734Y-24513734D01*
X22273734Y-24616266D01*
X22376266Y-24616266D01*
X22376266Y-25036266D02*
X22376266Y-24933734D01*
X22273734Y-24933734D01*
X22273734Y-25036266D01*
X22376266Y-25036266D01*
X22376266Y-25456266D02*
X22376266Y-25353734D01*
X22273734Y-25353734D01*
X22273734Y-25456266D01*
X22376266Y-25456266D01*
X22926266Y-20836266D02*
X22926266Y-20733734D01*
X22823734Y-20733734D01*
X22823734Y-20836266D01*
X22926266Y-20836266D01*
X22926266Y-21256266D02*
X22926266Y-21153734D01*
X22823734Y-21153734D01*
X22823734Y-21256266D01*
X22926266Y-21256266D01*
X22926266Y-21676266D02*
X22926266Y-21573734D01*
X22823734Y-21573734D01*
X22823734Y-21676266D01*
X22926266Y-21676266D01*
X22926266Y-22096266D02*
X22926266Y-21993734D01*
X22823734Y-21993734D01*
X22823734Y-22096266D01*
X22926266Y-22096266D01*
X22926266Y-22516266D02*
X22926266Y-22413734D01*
X22823734Y-22413734D01*
X22823734Y-22516266D01*
X22926266Y-22516266D01*
X22926266Y-22936266D02*
X22926266Y-22833734D01*
X22823734Y-22833734D01*
X22823734Y-22936266D01*
X22926266Y-22936266D01*
X22926266Y-23356266D02*
X22926266Y-23253734D01*
X22823734Y-23253734D01*
X22823734Y-23356266D01*
X22926266Y-23356266D01*
X22926266Y-23776266D02*
X22926266Y-23673734D01*
X22823734Y-23673734D01*
X22823734Y-23776266D01*
X22926266Y-23776266D01*
X22926266Y-24196266D02*
X22926266Y-24093734D01*
X22823734Y-24093734D01*
X22823734Y-24196266D01*
X22926266Y-24196266D01*
X22926266Y-24616266D02*
X22926266Y-24513734D01*
X22823734Y-24513734D01*
X22823734Y-24616266D01*
X22926266Y-24616266D01*
X22926266Y-25036266D02*
X22926266Y-24933734D01*
X22823734Y-24933734D01*
X22823734Y-25036266D01*
X22926266Y-25036266D01*
X22926266Y-25456266D02*
X22926266Y-25353734D01*
X22823734Y-25353734D01*
X22823734Y-25456266D01*
X22926266Y-25456266D01*
D14*
X4826000Y-18829000D02*
X4986000Y-18669000D01*
X4826000Y-18509000D01*
X4666000Y-18669000D01*
X4826000Y-18829000D01*
X4826000Y-23401000D02*
X4986000Y-23241000D01*
X4826000Y-23081000D01*
X4666000Y-23241000D01*
X4826000Y-23401000D01*
X20320000Y-18829000D02*
X20480000Y-18669000D01*
X20320000Y-18509000D01*
X20160000Y-18669000D01*
X20320000Y-18829000D01*
X20320000Y-23401000D02*
X20480000Y-23241000D01*
X20320000Y-23081000D01*
X20160000Y-23241000D01*
X20320000Y-23401000D01*
X20320000Y-25433000D02*
X20480000Y-25273000D01*
X20320000Y-25113000D01*
X20160000Y-25273000D01*
X20320000Y-25433000D01*
D11*
X4063277Y-26189984D02*
X4063277Y-25989984D01*
X4063277Y-25989984D02*
X4110896Y-25989984D01*
X4110896Y-25989984D02*
X4139467Y-25999508D01*
X4139467Y-25999508D02*
X4158515Y-26018555D01*
X4158515Y-26018555D02*
X4168039Y-26037603D01*
X4168039Y-26037603D02*
X4177562Y-26075698D01*
X4177562Y-26075698D02*
X4177562Y-26104269D01*
X4177562Y-26104269D02*
X4168039Y-26142365D01*
X4168039Y-26142365D02*
X4158515Y-26161412D01*
X4158515Y-26161412D02*
X4139467Y-26180460D01*
X4139467Y-26180460D02*
X4110896Y-26189984D01*
X4110896Y-26189984D02*
X4063277Y-26189984D01*
X4263277Y-26189984D02*
X4263277Y-26056650D01*
X4263277Y-26094746D02*
X4272801Y-26075698D01*
X4272801Y-26075698D02*
X4282324Y-26066174D01*
X4282324Y-26066174D02*
X4301372Y-26056650D01*
X4301372Y-26056650D02*
X4320420Y-26056650D01*
X4387086Y-26189984D02*
X4387086Y-26056650D01*
X4387086Y-25989984D02*
X4377563Y-25999508D01*
X4377563Y-25999508D02*
X4387086Y-26009031D01*
X4387086Y-26009031D02*
X4396610Y-25999508D01*
X4396610Y-25999508D02*
X4387086Y-25989984D01*
X4387086Y-25989984D02*
X4387086Y-26009031D01*
X4510896Y-26189984D02*
X4491848Y-26180460D01*
X4491848Y-26180460D02*
X4482324Y-26161412D01*
X4482324Y-26161412D02*
X4482324Y-25989984D01*
X4615658Y-26189984D02*
X4596610Y-26180460D01*
X4596610Y-26180460D02*
X4587086Y-26161412D01*
X4587086Y-26161412D02*
X4587086Y-25989984D01*
X4844229Y-26189984D02*
X4844229Y-25989984D01*
X4844229Y-25989984D02*
X4910896Y-26132841D01*
X4910896Y-26132841D02*
X4977563Y-25989984D01*
X4977563Y-25989984D02*
X4977563Y-26189984D01*
X5158515Y-26189984D02*
X5158515Y-26085222D01*
X5158515Y-26085222D02*
X5148991Y-26066174D01*
X5148991Y-26066174D02*
X5129944Y-26056650D01*
X5129944Y-26056650D02*
X5091848Y-26056650D01*
X5091848Y-26056650D02*
X5072801Y-26066174D01*
X5158515Y-26180460D02*
X5139467Y-26189984D01*
X5139467Y-26189984D02*
X5091848Y-26189984D01*
X5091848Y-26189984D02*
X5072801Y-26180460D01*
X5072801Y-26180460D02*
X5063277Y-26161412D01*
X5063277Y-26161412D02*
X5063277Y-26142365D01*
X5063277Y-26142365D02*
X5072801Y-26123317D01*
X5072801Y-26123317D02*
X5091848Y-26113793D01*
X5091848Y-26113793D02*
X5139467Y-26113793D01*
X5139467Y-26113793D02*
X5158515Y-26104269D01*
X5253753Y-26056650D02*
X5253753Y-26256650D01*
X5253753Y-26066174D02*
X5272801Y-26056650D01*
X5272801Y-26056650D02*
X5310896Y-26056650D01*
X5310896Y-26056650D02*
X5329944Y-26066174D01*
X5329944Y-26066174D02*
X5339467Y-26075698D01*
X5339467Y-26075698D02*
X5348991Y-26094746D01*
X5348991Y-26094746D02*
X5348991Y-26151888D01*
X5348991Y-26151888D02*
X5339467Y-26170936D01*
X5339467Y-26170936D02*
X5329944Y-26180460D01*
X5329944Y-26180460D02*
X5310896Y-26189984D01*
X5310896Y-26189984D02*
X5272801Y-26189984D01*
X5272801Y-26189984D02*
X5253753Y-26180460D01*
X5434705Y-26170936D02*
X5444229Y-26180460D01*
X5444229Y-26180460D02*
X5434705Y-26189984D01*
X5434705Y-26189984D02*
X5425182Y-26180460D01*
X5425182Y-26180460D02*
X5434705Y-26170936D01*
X5434705Y-26170936D02*
X5434705Y-26189984D01*
X5434705Y-26066174D02*
X5444229Y-26075698D01*
X5444229Y-26075698D02*
X5434705Y-26085222D01*
X5434705Y-26085222D02*
X5425182Y-26075698D01*
X5425182Y-26075698D02*
X5434705Y-26066174D01*
X5434705Y-26066174D02*
X5434705Y-26085222D01*
D12*
X3752500Y-26493500D02*
X3802500Y-26543500D01*
X3802500Y-26493500D02*
X3752500Y-26543500D01*
D11*
X4101372Y-26409984D02*
X4120420Y-26409984D01*
X4120420Y-26409984D02*
X4139467Y-26419508D01*
X4139467Y-26419508D02*
X4148991Y-26429031D01*
X4148991Y-26429031D02*
X4158515Y-26448079D01*
X4158515Y-26448079D02*
X4168039Y-26486174D01*
X4168039Y-26486174D02*
X4168039Y-26533793D01*
X4168039Y-26533793D02*
X4158515Y-26571888D01*
X4158515Y-26571888D02*
X4148991Y-26590936D01*
X4148991Y-26590936D02*
X4139467Y-26600460D01*
X4139467Y-26600460D02*
X4120420Y-26609984D01*
X4120420Y-26609984D02*
X4101372Y-26609984D01*
X4101372Y-26609984D02*
X4082324Y-26600460D01*
X4082324Y-26600460D02*
X4072801Y-26590936D01*
X4072801Y-26590936D02*
X4063277Y-26571888D01*
X4063277Y-26571888D02*
X4053753Y-26533793D01*
X4053753Y-26533793D02*
X4053753Y-26486174D01*
X4053753Y-26486174D02*
X4063277Y-26448079D01*
X4063277Y-26448079D02*
X4072801Y-26429031D01*
X4072801Y-26429031D02*
X4082324Y-26419508D01*
X4082324Y-26419508D02*
X4101372Y-26409984D01*
X4253753Y-26590936D02*
X4263277Y-26600460D01*
X4263277Y-26600460D02*
X4253753Y-26609984D01*
X4253753Y-26609984D02*
X4244229Y-26600460D01*
X4244229Y-26600460D02*
X4253753Y-26590936D01*
X4253753Y-26590936D02*
X4253753Y-26609984D01*
X4444229Y-26409984D02*
X4348991Y-26409984D01*
X4348991Y-26409984D02*
X4339467Y-26505222D01*
X4339467Y-26505222D02*
X4348991Y-26495698D01*
X4348991Y-26495698D02*
X4368039Y-26486174D01*
X4368039Y-26486174D02*
X4415658Y-26486174D01*
X4415658Y-26486174D02*
X4434705Y-26495698D01*
X4434705Y-26495698D02*
X4444229Y-26505222D01*
X4444229Y-26505222D02*
X4453753Y-26524269D01*
X4453753Y-26524269D02*
X4453753Y-26571888D01*
X4453753Y-26571888D02*
X4444229Y-26590936D01*
X4444229Y-26590936D02*
X4434705Y-26600460D01*
X4434705Y-26600460D02*
X4415658Y-26609984D01*
X4415658Y-26609984D02*
X4368039Y-26609984D01*
X4368039Y-26609984D02*
X4348991Y-26600460D01*
X4348991Y-26600460D02*
X4339467Y-26590936D01*
X4577563Y-26409984D02*
X4596610Y-26409984D01*
X4596610Y-26409984D02*
X4615658Y-26419508D01*
X4615658Y-26419508D02*
X4625182Y-26429031D01*
X4625182Y-26429031D02*
X4634705Y-26448079D01*
X4634705Y-26448079D02*
X4644229Y-26486174D01*
X4644229Y-26486174D02*
X4644229Y-26533793D01*
X4644229Y-26533793D02*
X4634705Y-26571888D01*
X4634705Y-26571888D02*
X4625182Y-26590936D01*
X4625182Y-26590936D02*
X4615658Y-26600460D01*
X4615658Y-26600460D02*
X4596610Y-26609984D01*
X4596610Y-26609984D02*
X4577563Y-26609984D01*
X4577563Y-26609984D02*
X4558515Y-26600460D01*
X4558515Y-26600460D02*
X4548991Y-26590936D01*
X4548991Y-26590936D02*
X4539467Y-26571888D01*
X4539467Y-26571888D02*
X4529944Y-26533793D01*
X4529944Y-26533793D02*
X4529944Y-26486174D01*
X4529944Y-26486174D02*
X4539467Y-26448079D01*
X4539467Y-26448079D02*
X4548991Y-26429031D01*
X4548991Y-26429031D02*
X4558515Y-26419508D01*
X4558515Y-26419508D02*
X4577563Y-26409984D01*
X4768039Y-26409984D02*
X4787086Y-26409984D01*
X4787086Y-26409984D02*
X4806134Y-26419508D01*
X4806134Y-26419508D02*
X4815658Y-26429031D01*
X4815658Y-26429031D02*
X4825182Y-26448079D01*
X4825182Y-26448079D02*
X4834705Y-26486174D01*
X4834705Y-26486174D02*
X4834705Y-26533793D01*
X4834705Y-26533793D02*
X4825182Y-26571888D01*
X4825182Y-26571888D02*
X4815658Y-26590936D01*
X4815658Y-26590936D02*
X4806134Y-26600460D01*
X4806134Y-26600460D02*
X4787086Y-26609984D01*
X4787086Y-26609984D02*
X4768039Y-26609984D01*
X4768039Y-26609984D02*
X4748991Y-26600460D01*
X4748991Y-26600460D02*
X4739467Y-26590936D01*
X4739467Y-26590936D02*
X4729944Y-26571888D01*
X4729944Y-26571888D02*
X4720420Y-26533793D01*
X4720420Y-26533793D02*
X4720420Y-26486174D01*
X4720420Y-26486174D02*
X4729944Y-26448079D01*
X4729944Y-26448079D02*
X4739467Y-26429031D01*
X4739467Y-26429031D02*
X4748991Y-26419508D01*
X4748991Y-26419508D02*
X4768039Y-26409984D01*
X4920420Y-26609984D02*
X4920420Y-26476650D01*
X4920420Y-26495698D02*
X4929944Y-26486174D01*
X4929944Y-26486174D02*
X4948991Y-26476650D01*
X4948991Y-26476650D02*
X4977563Y-26476650D01*
X4977563Y-26476650D02*
X4996610Y-26486174D01*
X4996610Y-26486174D02*
X5006134Y-26505222D01*
X5006134Y-26505222D02*
X5006134Y-26609984D01*
X5006134Y-26505222D02*
X5015658Y-26486174D01*
X5015658Y-26486174D02*
X5034705Y-26476650D01*
X5034705Y-26476650D02*
X5063277Y-26476650D01*
X5063277Y-26476650D02*
X5082325Y-26486174D01*
X5082325Y-26486174D02*
X5091848Y-26505222D01*
X5091848Y-26505222D02*
X5091848Y-26609984D01*
X5187086Y-26609984D02*
X5187086Y-26476650D01*
X5187086Y-26495698D02*
X5196610Y-26486174D01*
X5196610Y-26486174D02*
X5215658Y-26476650D01*
X5215658Y-26476650D02*
X5244229Y-26476650D01*
X5244229Y-26476650D02*
X5263277Y-26486174D01*
X5263277Y-26486174D02*
X5272801Y-26505222D01*
X5272801Y-26505222D02*
X5272801Y-26609984D01*
X5272801Y-26505222D02*
X5282325Y-26486174D01*
X5282325Y-26486174D02*
X5301372Y-26476650D01*
X5301372Y-26476650D02*
X5329944Y-26476650D01*
X5329944Y-26476650D02*
X5348991Y-26486174D01*
X5348991Y-26486174D02*
X5358515Y-26505222D01*
X5358515Y-26505222D02*
X5358515Y-26609984D01*
X5748991Y-26400460D02*
X5577563Y-26657603D01*
X6006134Y-26409984D02*
X6025182Y-26409984D01*
X6025182Y-26409984D02*
X6044229Y-26419508D01*
X6044229Y-26419508D02*
X6053753Y-26429031D01*
X6053753Y-26429031D02*
X6063277Y-26448079D01*
X6063277Y-26448079D02*
X6072801Y-26486174D01*
X6072801Y-26486174D02*
X6072801Y-26533793D01*
X6072801Y-26533793D02*
X6063277Y-26571888D01*
X6063277Y-26571888D02*
X6053753Y-26590936D01*
X6053753Y-26590936D02*
X6044229Y-26600460D01*
X6044229Y-26600460D02*
X6025182Y-26609984D01*
X6025182Y-26609984D02*
X6006134Y-26609984D01*
X6006134Y-26609984D02*
X5987086Y-26600460D01*
X5987086Y-26600460D02*
X5977563Y-26590936D01*
X5977563Y-26590936D02*
X5968039Y-26571888D01*
X5968039Y-26571888D02*
X5958515Y-26533793D01*
X5958515Y-26533793D02*
X5958515Y-26486174D01*
X5958515Y-26486174D02*
X5968039Y-26448079D01*
X5968039Y-26448079D02*
X5977563Y-26429031D01*
X5977563Y-26429031D02*
X5987086Y-26419508D01*
X5987086Y-26419508D02*
X6006134Y-26409984D01*
X6158515Y-26590936D02*
X6168039Y-26600460D01*
X6168039Y-26600460D02*
X6158515Y-26609984D01*
X6158515Y-26609984D02*
X6148991Y-26600460D01*
X6148991Y-26600460D02*
X6158515Y-26590936D01*
X6158515Y-26590936D02*
X6158515Y-26609984D01*
X6291848Y-26409984D02*
X6310896Y-26409984D01*
X6310896Y-26409984D02*
X6329944Y-26419508D01*
X6329944Y-26419508D02*
X6339467Y-26429031D01*
X6339467Y-26429031D02*
X6348991Y-26448079D01*
X6348991Y-26448079D02*
X6358515Y-26486174D01*
X6358515Y-26486174D02*
X6358515Y-26533793D01*
X6358515Y-26533793D02*
X6348991Y-26571888D01*
X6348991Y-26571888D02*
X6339467Y-26590936D01*
X6339467Y-26590936D02*
X6329944Y-26600460D01*
X6329944Y-26600460D02*
X6310896Y-26609984D01*
X6310896Y-26609984D02*
X6291848Y-26609984D01*
X6291848Y-26609984D02*
X6272801Y-26600460D01*
X6272801Y-26600460D02*
X6263277Y-26590936D01*
X6263277Y-26590936D02*
X6253753Y-26571888D01*
X6253753Y-26571888D02*
X6244229Y-26533793D01*
X6244229Y-26533793D02*
X6244229Y-26486174D01*
X6244229Y-26486174D02*
X6253753Y-26448079D01*
X6253753Y-26448079D02*
X6263277Y-26429031D01*
X6263277Y-26429031D02*
X6272801Y-26419508D01*
X6272801Y-26419508D02*
X6291848Y-26409984D01*
X6548991Y-26609984D02*
X6434706Y-26609984D01*
X6491848Y-26609984D02*
X6491848Y-26409984D01*
X6491848Y-26409984D02*
X6472801Y-26438555D01*
X6472801Y-26438555D02*
X6453753Y-26457603D01*
X6453753Y-26457603D02*
X6434706Y-26467127D01*
X6644229Y-26609984D02*
X6682325Y-26609984D01*
X6682325Y-26609984D02*
X6701372Y-26600460D01*
X6701372Y-26600460D02*
X6710896Y-26590936D01*
X6710896Y-26590936D02*
X6729944Y-26562365D01*
X6729944Y-26562365D02*
X6739467Y-26524269D01*
X6739467Y-26524269D02*
X6739467Y-26448079D01*
X6739467Y-26448079D02*
X6729944Y-26429031D01*
X6729944Y-26429031D02*
X6720420Y-26419508D01*
X6720420Y-26419508D02*
X6701372Y-26409984D01*
X6701372Y-26409984D02*
X6663277Y-26409984D01*
X6663277Y-26409984D02*
X6644229Y-26419508D01*
X6644229Y-26419508D02*
X6634706Y-26429031D01*
X6634706Y-26429031D02*
X6625182Y-26448079D01*
X6625182Y-26448079D02*
X6625182Y-26495698D01*
X6625182Y-26495698D02*
X6634706Y-26514746D01*
X6634706Y-26514746D02*
X6644229Y-26524269D01*
X6644229Y-26524269D02*
X6663277Y-26533793D01*
X6663277Y-26533793D02*
X6701372Y-26533793D01*
X6701372Y-26533793D02*
X6720420Y-26524269D01*
X6720420Y-26524269D02*
X6729944Y-26514746D01*
X6729944Y-26514746D02*
X6739467Y-26495698D01*
X6806134Y-26409984D02*
X6939467Y-26409984D01*
X6939467Y-26409984D02*
X6853753Y-26609984D01*
X7006134Y-26409984D02*
X7006134Y-26448079D01*
X7082325Y-26409984D02*
X7082325Y-26448079D01*
X7377563Y-26686174D02*
X7368039Y-26676650D01*
X7368039Y-26676650D02*
X7348991Y-26648079D01*
X7348991Y-26648079D02*
X7339468Y-26629031D01*
X7339468Y-26629031D02*
X7329944Y-26600460D01*
X7329944Y-26600460D02*
X7320420Y-26552841D01*
X7320420Y-26552841D02*
X7320420Y-26514746D01*
X7320420Y-26514746D02*
X7329944Y-26467127D01*
X7329944Y-26467127D02*
X7339468Y-26438555D01*
X7339468Y-26438555D02*
X7348991Y-26419508D01*
X7348991Y-26419508D02*
X7368039Y-26390936D01*
X7368039Y-26390936D02*
X7377563Y-26381412D01*
X7539468Y-26476650D02*
X7539468Y-26609984D01*
X7491848Y-26400460D02*
X7444229Y-26543317D01*
X7444229Y-26543317D02*
X7568039Y-26543317D01*
X7682325Y-26409984D02*
X7701372Y-26409984D01*
X7701372Y-26409984D02*
X7720420Y-26419508D01*
X7720420Y-26419508D02*
X7729944Y-26429031D01*
X7729944Y-26429031D02*
X7739468Y-26448079D01*
X7739468Y-26448079D02*
X7748991Y-26486174D01*
X7748991Y-26486174D02*
X7748991Y-26533793D01*
X7748991Y-26533793D02*
X7739468Y-26571888D01*
X7739468Y-26571888D02*
X7729944Y-26590936D01*
X7729944Y-26590936D02*
X7720420Y-26600460D01*
X7720420Y-26600460D02*
X7701372Y-26609984D01*
X7701372Y-26609984D02*
X7682325Y-26609984D01*
X7682325Y-26609984D02*
X7663277Y-26600460D01*
X7663277Y-26600460D02*
X7653753Y-26590936D01*
X7653753Y-26590936D02*
X7644229Y-26571888D01*
X7644229Y-26571888D02*
X7634706Y-26533793D01*
X7634706Y-26533793D02*
X7634706Y-26486174D01*
X7634706Y-26486174D02*
X7644229Y-26448079D01*
X7644229Y-26448079D02*
X7653753Y-26429031D01*
X7653753Y-26429031D02*
X7663277Y-26419508D01*
X7663277Y-26419508D02*
X7682325Y-26409984D01*
X7987087Y-26609984D02*
X7987087Y-26409984D01*
X8072801Y-26609984D02*
X8072801Y-26505222D01*
X8072801Y-26505222D02*
X8063277Y-26486174D01*
X8063277Y-26486174D02*
X8044230Y-26476650D01*
X8044230Y-26476650D02*
X8015658Y-26476650D01*
X8015658Y-26476650D02*
X7996610Y-26486174D01*
X7996610Y-26486174D02*
X7987087Y-26495698D01*
X8196610Y-26609984D02*
X8177563Y-26600460D01*
X8177563Y-26600460D02*
X8168039Y-26590936D01*
X8168039Y-26590936D02*
X8158515Y-26571888D01*
X8158515Y-26571888D02*
X8158515Y-26514746D01*
X8158515Y-26514746D02*
X8168039Y-26495698D01*
X8168039Y-26495698D02*
X8177563Y-26486174D01*
X8177563Y-26486174D02*
X8196610Y-26476650D01*
X8196610Y-26476650D02*
X8225182Y-26476650D01*
X8225182Y-26476650D02*
X8244230Y-26486174D01*
X8244230Y-26486174D02*
X8253753Y-26495698D01*
X8253753Y-26495698D02*
X8263277Y-26514746D01*
X8263277Y-26514746D02*
X8263277Y-26571888D01*
X8263277Y-26571888D02*
X8253753Y-26590936D01*
X8253753Y-26590936D02*
X8244230Y-26600460D01*
X8244230Y-26600460D02*
X8225182Y-26609984D01*
X8225182Y-26609984D02*
X8196610Y-26609984D01*
X8377563Y-26609984D02*
X8358515Y-26600460D01*
X8358515Y-26600460D02*
X8348991Y-26581412D01*
X8348991Y-26581412D02*
X8348991Y-26409984D01*
X8529944Y-26600460D02*
X8510896Y-26609984D01*
X8510896Y-26609984D02*
X8472801Y-26609984D01*
X8472801Y-26609984D02*
X8453753Y-26600460D01*
X8453753Y-26600460D02*
X8444230Y-26581412D01*
X8444230Y-26581412D02*
X8444230Y-26505222D01*
X8444230Y-26505222D02*
X8453753Y-26486174D01*
X8453753Y-26486174D02*
X8472801Y-26476650D01*
X8472801Y-26476650D02*
X8510896Y-26476650D01*
X8510896Y-26476650D02*
X8529944Y-26486174D01*
X8529944Y-26486174D02*
X8539468Y-26505222D01*
X8539468Y-26505222D02*
X8539468Y-26524269D01*
X8539468Y-26524269D02*
X8444230Y-26543317D01*
X8615658Y-26600460D02*
X8634706Y-26609984D01*
X8634706Y-26609984D02*
X8672801Y-26609984D01*
X8672801Y-26609984D02*
X8691849Y-26600460D01*
X8691849Y-26600460D02*
X8701373Y-26581412D01*
X8701373Y-26581412D02*
X8701373Y-26571888D01*
X8701373Y-26571888D02*
X8691849Y-26552841D01*
X8691849Y-26552841D02*
X8672801Y-26543317D01*
X8672801Y-26543317D02*
X8644230Y-26543317D01*
X8644230Y-26543317D02*
X8625182Y-26533793D01*
X8625182Y-26533793D02*
X8615658Y-26514746D01*
X8615658Y-26514746D02*
X8615658Y-26505222D01*
X8615658Y-26505222D02*
X8625182Y-26486174D01*
X8625182Y-26486174D02*
X8644230Y-26476650D01*
X8644230Y-26476650D02*
X8672801Y-26476650D01*
X8672801Y-26476650D02*
X8691849Y-26486174D01*
X8768039Y-26686174D02*
X8777563Y-26676650D01*
X8777563Y-26676650D02*
X8796611Y-26648079D01*
X8796611Y-26648079D02*
X8806134Y-26629031D01*
X8806134Y-26629031D02*
X8815658Y-26600460D01*
X8815658Y-26600460D02*
X8825182Y-26552841D01*
X8825182Y-26552841D02*
X8825182Y-26514746D01*
X8825182Y-26514746D02*
X8815658Y-26467127D01*
X8815658Y-26467127D02*
X8806134Y-26438555D01*
X8806134Y-26438555D02*
X8796611Y-26419508D01*
X8796611Y-26419508D02*
X8777563Y-26390936D01*
X8777563Y-26390936D02*
X8768039Y-26381412D01*
D12*
X3802500Y-26782500D02*
G75*
G03*
X3724500Y-26782500I-39000J0D01*
G01*
X3724500Y-26782500D02*
G75*
G03*
X3802500Y-26782500I39000J0D01*
G01*
D11*
X4101372Y-26673984D02*
X4120420Y-26673984D01*
X4120420Y-26673984D02*
X4139467Y-26683508D01*
X4139467Y-26683508D02*
X4148991Y-26693031D01*
X4148991Y-26693031D02*
X4158515Y-26712079D01*
X4158515Y-26712079D02*
X4168039Y-26750174D01*
X4168039Y-26750174D02*
X4168039Y-26797793D01*
X4168039Y-26797793D02*
X4158515Y-26835888D01*
X4158515Y-26835888D02*
X4148991Y-26854936D01*
X4148991Y-26854936D02*
X4139467Y-26864460D01*
X4139467Y-26864460D02*
X4120420Y-26873984D01*
X4120420Y-26873984D02*
X4101372Y-26873984D01*
X4101372Y-26873984D02*
X4082324Y-26864460D01*
X4082324Y-26864460D02*
X4072801Y-26854936D01*
X4072801Y-26854936D02*
X4063277Y-26835888D01*
X4063277Y-26835888D02*
X4053753Y-26797793D01*
X4053753Y-26797793D02*
X4053753Y-26750174D01*
X4053753Y-26750174D02*
X4063277Y-26712079D01*
X4063277Y-26712079D02*
X4072801Y-26693031D01*
X4072801Y-26693031D02*
X4082324Y-26683508D01*
X4082324Y-26683508D02*
X4101372Y-26673984D01*
X4253753Y-26854936D02*
X4263277Y-26864460D01*
X4263277Y-26864460D02*
X4253753Y-26873984D01*
X4253753Y-26873984D02*
X4244229Y-26864460D01*
X4244229Y-26864460D02*
X4253753Y-26854936D01*
X4253753Y-26854936D02*
X4253753Y-26873984D01*
X4329944Y-26673984D02*
X4463277Y-26673984D01*
X4463277Y-26673984D02*
X4377563Y-26873984D01*
X4568039Y-26759698D02*
X4548991Y-26750174D01*
X4548991Y-26750174D02*
X4539467Y-26740650D01*
X4539467Y-26740650D02*
X4529944Y-26721603D01*
X4529944Y-26721603D02*
X4529944Y-26712079D01*
X4529944Y-26712079D02*
X4539467Y-26693031D01*
X4539467Y-26693031D02*
X4548991Y-26683508D01*
X4548991Y-26683508D02*
X4568039Y-26673984D01*
X4568039Y-26673984D02*
X4606134Y-26673984D01*
X4606134Y-26673984D02*
X4625182Y-26683508D01*
X4625182Y-26683508D02*
X4634705Y-26693031D01*
X4634705Y-26693031D02*
X4644229Y-26712079D01*
X4644229Y-26712079D02*
X4644229Y-26721603D01*
X4644229Y-26721603D02*
X4634705Y-26740650D01*
X4634705Y-26740650D02*
X4625182Y-26750174D01*
X4625182Y-26750174D02*
X4606134Y-26759698D01*
X4606134Y-26759698D02*
X4568039Y-26759698D01*
X4568039Y-26759698D02*
X4548991Y-26769222D01*
X4548991Y-26769222D02*
X4539467Y-26778746D01*
X4539467Y-26778746D02*
X4529944Y-26797793D01*
X4529944Y-26797793D02*
X4529944Y-26835888D01*
X4529944Y-26835888D02*
X4539467Y-26854936D01*
X4539467Y-26854936D02*
X4548991Y-26864460D01*
X4548991Y-26864460D02*
X4568039Y-26873984D01*
X4568039Y-26873984D02*
X4606134Y-26873984D01*
X4606134Y-26873984D02*
X4625182Y-26864460D01*
X4625182Y-26864460D02*
X4634705Y-26854936D01*
X4634705Y-26854936D02*
X4644229Y-26835888D01*
X4644229Y-26835888D02*
X4644229Y-26797793D01*
X4644229Y-26797793D02*
X4634705Y-26778746D01*
X4634705Y-26778746D02*
X4625182Y-26769222D01*
X4625182Y-26769222D02*
X4606134Y-26759698D01*
X4768039Y-26673984D02*
X4787086Y-26673984D01*
X4787086Y-26673984D02*
X4806134Y-26683508D01*
X4806134Y-26683508D02*
X4815658Y-26693031D01*
X4815658Y-26693031D02*
X4825182Y-26712079D01*
X4825182Y-26712079D02*
X4834705Y-26750174D01*
X4834705Y-26750174D02*
X4834705Y-26797793D01*
X4834705Y-26797793D02*
X4825182Y-26835888D01*
X4825182Y-26835888D02*
X4815658Y-26854936D01*
X4815658Y-26854936D02*
X4806134Y-26864460D01*
X4806134Y-26864460D02*
X4787086Y-26873984D01*
X4787086Y-26873984D02*
X4768039Y-26873984D01*
X4768039Y-26873984D02*
X4748991Y-26864460D01*
X4748991Y-26864460D02*
X4739467Y-26854936D01*
X4739467Y-26854936D02*
X4729944Y-26835888D01*
X4729944Y-26835888D02*
X4720420Y-26797793D01*
X4720420Y-26797793D02*
X4720420Y-26750174D01*
X4720420Y-26750174D02*
X4729944Y-26712079D01*
X4729944Y-26712079D02*
X4739467Y-26693031D01*
X4739467Y-26693031D02*
X4748991Y-26683508D01*
X4748991Y-26683508D02*
X4768039Y-26673984D01*
X4920420Y-26873984D02*
X4920420Y-26740650D01*
X4920420Y-26759698D02*
X4929944Y-26750174D01*
X4929944Y-26750174D02*
X4948991Y-26740650D01*
X4948991Y-26740650D02*
X4977563Y-26740650D01*
X4977563Y-26740650D02*
X4996610Y-26750174D01*
X4996610Y-26750174D02*
X5006134Y-26769222D01*
X5006134Y-26769222D02*
X5006134Y-26873984D01*
X5006134Y-26769222D02*
X5015658Y-26750174D01*
X5015658Y-26750174D02*
X5034705Y-26740650D01*
X5034705Y-26740650D02*
X5063277Y-26740650D01*
X5063277Y-26740650D02*
X5082325Y-26750174D01*
X5082325Y-26750174D02*
X5091848Y-26769222D01*
X5091848Y-26769222D02*
X5091848Y-26873984D01*
X5187086Y-26873984D02*
X5187086Y-26740650D01*
X5187086Y-26759698D02*
X5196610Y-26750174D01*
X5196610Y-26750174D02*
X5215658Y-26740650D01*
X5215658Y-26740650D02*
X5244229Y-26740650D01*
X5244229Y-26740650D02*
X5263277Y-26750174D01*
X5263277Y-26750174D02*
X5272801Y-26769222D01*
X5272801Y-26769222D02*
X5272801Y-26873984D01*
X5272801Y-26769222D02*
X5282325Y-26750174D01*
X5282325Y-26750174D02*
X5301372Y-26740650D01*
X5301372Y-26740650D02*
X5329944Y-26740650D01*
X5329944Y-26740650D02*
X5348991Y-26750174D01*
X5348991Y-26750174D02*
X5358515Y-26769222D01*
X5358515Y-26769222D02*
X5358515Y-26873984D01*
X5748991Y-26664460D02*
X5577563Y-26921603D01*
X6006134Y-26673984D02*
X6025182Y-26673984D01*
X6025182Y-26673984D02*
X6044229Y-26683508D01*
X6044229Y-26683508D02*
X6053753Y-26693031D01*
X6053753Y-26693031D02*
X6063277Y-26712079D01*
X6063277Y-26712079D02*
X6072801Y-26750174D01*
X6072801Y-26750174D02*
X6072801Y-26797793D01*
X6072801Y-26797793D02*
X6063277Y-26835888D01*
X6063277Y-26835888D02*
X6053753Y-26854936D01*
X6053753Y-26854936D02*
X6044229Y-26864460D01*
X6044229Y-26864460D02*
X6025182Y-26873984D01*
X6025182Y-26873984D02*
X6006134Y-26873984D01*
X6006134Y-26873984D02*
X5987086Y-26864460D01*
X5987086Y-26864460D02*
X5977563Y-26854936D01*
X5977563Y-26854936D02*
X5968039Y-26835888D01*
X5968039Y-26835888D02*
X5958515Y-26797793D01*
X5958515Y-26797793D02*
X5958515Y-26750174D01*
X5958515Y-26750174D02*
X5968039Y-26712079D01*
X5968039Y-26712079D02*
X5977563Y-26693031D01*
X5977563Y-26693031D02*
X5987086Y-26683508D01*
X5987086Y-26683508D02*
X6006134Y-26673984D01*
X6158515Y-26854936D02*
X6168039Y-26864460D01*
X6168039Y-26864460D02*
X6158515Y-26873984D01*
X6158515Y-26873984D02*
X6148991Y-26864460D01*
X6148991Y-26864460D02*
X6158515Y-26854936D01*
X6158515Y-26854936D02*
X6158515Y-26873984D01*
X6291848Y-26673984D02*
X6310896Y-26673984D01*
X6310896Y-26673984D02*
X6329944Y-26683508D01*
X6329944Y-26683508D02*
X6339467Y-26693031D01*
X6339467Y-26693031D02*
X6348991Y-26712079D01*
X6348991Y-26712079D02*
X6358515Y-26750174D01*
X6358515Y-26750174D02*
X6358515Y-26797793D01*
X6358515Y-26797793D02*
X6348991Y-26835888D01*
X6348991Y-26835888D02*
X6339467Y-26854936D01*
X6339467Y-26854936D02*
X6329944Y-26864460D01*
X6329944Y-26864460D02*
X6310896Y-26873984D01*
X6310896Y-26873984D02*
X6291848Y-26873984D01*
X6291848Y-26873984D02*
X6272801Y-26864460D01*
X6272801Y-26864460D02*
X6263277Y-26854936D01*
X6263277Y-26854936D02*
X6253753Y-26835888D01*
X6253753Y-26835888D02*
X6244229Y-26797793D01*
X6244229Y-26797793D02*
X6244229Y-26750174D01*
X6244229Y-26750174D02*
X6253753Y-26712079D01*
X6253753Y-26712079D02*
X6263277Y-26693031D01*
X6263277Y-26693031D02*
X6272801Y-26683508D01*
X6272801Y-26683508D02*
X6291848Y-26673984D01*
X6425182Y-26673984D02*
X6548991Y-26673984D01*
X6548991Y-26673984D02*
X6482325Y-26750174D01*
X6482325Y-26750174D02*
X6510896Y-26750174D01*
X6510896Y-26750174D02*
X6529944Y-26759698D01*
X6529944Y-26759698D02*
X6539467Y-26769222D01*
X6539467Y-26769222D02*
X6548991Y-26788269D01*
X6548991Y-26788269D02*
X6548991Y-26835888D01*
X6548991Y-26835888D02*
X6539467Y-26854936D01*
X6539467Y-26854936D02*
X6529944Y-26864460D01*
X6529944Y-26864460D02*
X6510896Y-26873984D01*
X6510896Y-26873984D02*
X6453753Y-26873984D01*
X6453753Y-26873984D02*
X6434706Y-26864460D01*
X6434706Y-26864460D02*
X6425182Y-26854936D01*
X6672801Y-26673984D02*
X6691848Y-26673984D01*
X6691848Y-26673984D02*
X6710896Y-26683508D01*
X6710896Y-26683508D02*
X6720420Y-26693031D01*
X6720420Y-26693031D02*
X6729944Y-26712079D01*
X6729944Y-26712079D02*
X6739467Y-26750174D01*
X6739467Y-26750174D02*
X6739467Y-26797793D01*
X6739467Y-26797793D02*
X6729944Y-26835888D01*
X6729944Y-26835888D02*
X6720420Y-26854936D01*
X6720420Y-26854936D02*
X6710896Y-26864460D01*
X6710896Y-26864460D02*
X6691848Y-26873984D01*
X6691848Y-26873984D02*
X6672801Y-26873984D01*
X6672801Y-26873984D02*
X6653753Y-26864460D01*
X6653753Y-26864460D02*
X6644229Y-26854936D01*
X6644229Y-26854936D02*
X6634706Y-26835888D01*
X6634706Y-26835888D02*
X6625182Y-26797793D01*
X6625182Y-26797793D02*
X6625182Y-26750174D01*
X6625182Y-26750174D02*
X6634706Y-26712079D01*
X6634706Y-26712079D02*
X6644229Y-26693031D01*
X6644229Y-26693031D02*
X6653753Y-26683508D01*
X6653753Y-26683508D02*
X6672801Y-26673984D01*
X6806134Y-26673984D02*
X6939467Y-26673984D01*
X6939467Y-26673984D02*
X6853753Y-26873984D01*
X7006134Y-26673984D02*
X7006134Y-26712079D01*
X7082325Y-26673984D02*
X7082325Y-26712079D01*
X7377563Y-26950174D02*
X7368039Y-26940650D01*
X7368039Y-26940650D02*
X7348991Y-26912079D01*
X7348991Y-26912079D02*
X7339468Y-26893031D01*
X7339468Y-26893031D02*
X7329944Y-26864460D01*
X7329944Y-26864460D02*
X7320420Y-26816841D01*
X7320420Y-26816841D02*
X7320420Y-26778746D01*
X7320420Y-26778746D02*
X7329944Y-26731127D01*
X7329944Y-26731127D02*
X7339468Y-26702555D01*
X7339468Y-26702555D02*
X7348991Y-26683508D01*
X7348991Y-26683508D02*
X7368039Y-26654936D01*
X7368039Y-26654936D02*
X7377563Y-26645412D01*
X7539468Y-26673984D02*
X7501372Y-26673984D01*
X7501372Y-26673984D02*
X7482325Y-26683508D01*
X7482325Y-26683508D02*
X7472801Y-26693031D01*
X7472801Y-26693031D02*
X7453753Y-26721603D01*
X7453753Y-26721603D02*
X7444229Y-26759698D01*
X7444229Y-26759698D02*
X7444229Y-26835888D01*
X7444229Y-26835888D02*
X7453753Y-26854936D01*
X7453753Y-26854936D02*
X7463277Y-26864460D01*
X7463277Y-26864460D02*
X7482325Y-26873984D01*
X7482325Y-26873984D02*
X7520420Y-26873984D01*
X7520420Y-26873984D02*
X7539468Y-26864460D01*
X7539468Y-26864460D02*
X7548991Y-26854936D01*
X7548991Y-26854936D02*
X7558515Y-26835888D01*
X7558515Y-26835888D02*
X7558515Y-26788269D01*
X7558515Y-26788269D02*
X7548991Y-26769222D01*
X7548991Y-26769222D02*
X7539468Y-26759698D01*
X7539468Y-26759698D02*
X7520420Y-26750174D01*
X7520420Y-26750174D02*
X7482325Y-26750174D01*
X7482325Y-26750174D02*
X7463277Y-26759698D01*
X7463277Y-26759698D02*
X7453753Y-26769222D01*
X7453753Y-26769222D02*
X7444229Y-26788269D01*
X7739468Y-26673984D02*
X7644229Y-26673984D01*
X7644229Y-26673984D02*
X7634706Y-26769222D01*
X7634706Y-26769222D02*
X7644229Y-26759698D01*
X7644229Y-26759698D02*
X7663277Y-26750174D01*
X7663277Y-26750174D02*
X7710896Y-26750174D01*
X7710896Y-26750174D02*
X7729944Y-26759698D01*
X7729944Y-26759698D02*
X7739468Y-26769222D01*
X7739468Y-26769222D02*
X7748991Y-26788269D01*
X7748991Y-26788269D02*
X7748991Y-26835888D01*
X7748991Y-26835888D02*
X7739468Y-26854936D01*
X7739468Y-26854936D02*
X7729944Y-26864460D01*
X7729944Y-26864460D02*
X7710896Y-26873984D01*
X7710896Y-26873984D02*
X7663277Y-26873984D01*
X7663277Y-26873984D02*
X7644229Y-26864460D01*
X7644229Y-26864460D02*
X7634706Y-26854936D01*
X7920420Y-26673984D02*
X7882325Y-26673984D01*
X7882325Y-26673984D02*
X7863277Y-26683508D01*
X7863277Y-26683508D02*
X7853753Y-26693031D01*
X7853753Y-26693031D02*
X7834706Y-26721603D01*
X7834706Y-26721603D02*
X7825182Y-26759698D01*
X7825182Y-26759698D02*
X7825182Y-26835888D01*
X7825182Y-26835888D02*
X7834706Y-26854936D01*
X7834706Y-26854936D02*
X7844229Y-26864460D01*
X7844229Y-26864460D02*
X7863277Y-26873984D01*
X7863277Y-26873984D02*
X7901372Y-26873984D01*
X7901372Y-26873984D02*
X7920420Y-26864460D01*
X7920420Y-26864460D02*
X7929944Y-26854936D01*
X7929944Y-26854936D02*
X7939468Y-26835888D01*
X7939468Y-26835888D02*
X7939468Y-26788269D01*
X7939468Y-26788269D02*
X7929944Y-26769222D01*
X7929944Y-26769222D02*
X7920420Y-26759698D01*
X7920420Y-26759698D02*
X7901372Y-26750174D01*
X7901372Y-26750174D02*
X7863277Y-26750174D01*
X7863277Y-26750174D02*
X7844229Y-26759698D01*
X7844229Y-26759698D02*
X7834706Y-26769222D01*
X7834706Y-26769222D02*
X7825182Y-26788269D01*
X8177563Y-26873984D02*
X8177563Y-26673984D01*
X8263277Y-26873984D02*
X8263277Y-26769222D01*
X8263277Y-26769222D02*
X8253753Y-26750174D01*
X8253753Y-26750174D02*
X8234706Y-26740650D01*
X8234706Y-26740650D02*
X8206134Y-26740650D01*
X8206134Y-26740650D02*
X8187087Y-26750174D01*
X8187087Y-26750174D02*
X8177563Y-26759698D01*
X8387087Y-26873984D02*
X8368039Y-26864460D01*
X8368039Y-26864460D02*
X8358515Y-26854936D01*
X8358515Y-26854936D02*
X8348991Y-26835888D01*
X8348991Y-26835888D02*
X8348991Y-26778746D01*
X8348991Y-26778746D02*
X8358515Y-26759698D01*
X8358515Y-26759698D02*
X8368039Y-26750174D01*
X8368039Y-26750174D02*
X8387087Y-26740650D01*
X8387087Y-26740650D02*
X8415658Y-26740650D01*
X8415658Y-26740650D02*
X8434706Y-26750174D01*
X8434706Y-26750174D02*
X8444230Y-26759698D01*
X8444230Y-26759698D02*
X8453753Y-26778746D01*
X8453753Y-26778746D02*
X8453753Y-26835888D01*
X8453753Y-26835888D02*
X8444230Y-26854936D01*
X8444230Y-26854936D02*
X8434706Y-26864460D01*
X8434706Y-26864460D02*
X8415658Y-26873984D01*
X8415658Y-26873984D02*
X8387087Y-26873984D01*
X8568039Y-26873984D02*
X8548992Y-26864460D01*
X8548992Y-26864460D02*
X8539468Y-26845412D01*
X8539468Y-26845412D02*
X8539468Y-26673984D01*
X8720420Y-26864460D02*
X8701373Y-26873984D01*
X8701373Y-26873984D02*
X8663277Y-26873984D01*
X8663277Y-26873984D02*
X8644230Y-26864460D01*
X8644230Y-26864460D02*
X8634706Y-26845412D01*
X8634706Y-26845412D02*
X8634706Y-26769222D01*
X8634706Y-26769222D02*
X8644230Y-26750174D01*
X8644230Y-26750174D02*
X8663277Y-26740650D01*
X8663277Y-26740650D02*
X8701373Y-26740650D01*
X8701373Y-26740650D02*
X8720420Y-26750174D01*
X8720420Y-26750174D02*
X8729944Y-26769222D01*
X8729944Y-26769222D02*
X8729944Y-26788269D01*
X8729944Y-26788269D02*
X8634706Y-26807317D01*
X8806134Y-26864460D02*
X8825182Y-26873984D01*
X8825182Y-26873984D02*
X8863277Y-26873984D01*
X8863277Y-26873984D02*
X8882325Y-26864460D01*
X8882325Y-26864460D02*
X8891849Y-26845412D01*
X8891849Y-26845412D02*
X8891849Y-26835888D01*
X8891849Y-26835888D02*
X8882325Y-26816841D01*
X8882325Y-26816841D02*
X8863277Y-26807317D01*
X8863277Y-26807317D02*
X8834706Y-26807317D01*
X8834706Y-26807317D02*
X8815658Y-26797793D01*
X8815658Y-26797793D02*
X8806134Y-26778746D01*
X8806134Y-26778746D02*
X8806134Y-26769222D01*
X8806134Y-26769222D02*
X8815658Y-26750174D01*
X8815658Y-26750174D02*
X8834706Y-26740650D01*
X8834706Y-26740650D02*
X8863277Y-26740650D01*
X8863277Y-26740650D02*
X8882325Y-26750174D01*
X8958515Y-26950174D02*
X8968039Y-26940650D01*
X8968039Y-26940650D02*
X8987087Y-26912079D01*
X8987087Y-26912079D02*
X8996611Y-26893031D01*
X8996611Y-26893031D02*
X9006134Y-26864460D01*
X9006134Y-26864460D02*
X9015658Y-26816841D01*
X9015658Y-26816841D02*
X9015658Y-26778746D01*
X9015658Y-26778746D02*
X9006134Y-26731127D01*
X9006134Y-26731127D02*
X8996611Y-26702555D01*
X8996611Y-26702555D02*
X8987087Y-26683508D01*
X8987087Y-26683508D02*
X8968039Y-26654936D01*
X8968039Y-26654936D02*
X8958515Y-26645412D01*
D12*
X3752500Y-26996500D02*
X3752500Y-27096500D01*
X3702500Y-27046500D02*
X3802500Y-27046500D01*
D11*
X4168039Y-27137984D02*
X4053753Y-27137984D01*
X4110896Y-27137984D02*
X4110896Y-26937984D01*
X4110896Y-26937984D02*
X4091848Y-26966555D01*
X4091848Y-26966555D02*
X4072801Y-26985603D01*
X4072801Y-26985603D02*
X4053753Y-26995127D01*
X4253753Y-27118936D02*
X4263277Y-27128460D01*
X4263277Y-27128460D02*
X4253753Y-27137984D01*
X4253753Y-27137984D02*
X4244229Y-27128460D01*
X4244229Y-27128460D02*
X4253753Y-27118936D01*
X4253753Y-27118936D02*
X4253753Y-27137984D01*
X4387086Y-26937984D02*
X4406134Y-26937984D01*
X4406134Y-26937984D02*
X4425182Y-26947508D01*
X4425182Y-26947508D02*
X4434705Y-26957031D01*
X4434705Y-26957031D02*
X4444229Y-26976079D01*
X4444229Y-26976079D02*
X4453753Y-27014174D01*
X4453753Y-27014174D02*
X4453753Y-27061793D01*
X4453753Y-27061793D02*
X4444229Y-27099888D01*
X4444229Y-27099888D02*
X4434705Y-27118936D01*
X4434705Y-27118936D02*
X4425182Y-27128460D01*
X4425182Y-27128460D02*
X4406134Y-27137984D01*
X4406134Y-27137984D02*
X4387086Y-27137984D01*
X4387086Y-27137984D02*
X4368039Y-27128460D01*
X4368039Y-27128460D02*
X4358515Y-27118936D01*
X4358515Y-27118936D02*
X4348991Y-27099888D01*
X4348991Y-27099888D02*
X4339467Y-27061793D01*
X4339467Y-27061793D02*
X4339467Y-27014174D01*
X4339467Y-27014174D02*
X4348991Y-26976079D01*
X4348991Y-26976079D02*
X4358515Y-26957031D01*
X4358515Y-26957031D02*
X4368039Y-26947508D01*
X4368039Y-26947508D02*
X4387086Y-26937984D01*
X4577563Y-26937984D02*
X4596610Y-26937984D01*
X4596610Y-26937984D02*
X4615658Y-26947508D01*
X4615658Y-26947508D02*
X4625182Y-26957031D01*
X4625182Y-26957031D02*
X4634705Y-26976079D01*
X4634705Y-26976079D02*
X4644229Y-27014174D01*
X4644229Y-27014174D02*
X4644229Y-27061793D01*
X4644229Y-27061793D02*
X4634705Y-27099888D01*
X4634705Y-27099888D02*
X4625182Y-27118936D01*
X4625182Y-27118936D02*
X4615658Y-27128460D01*
X4615658Y-27128460D02*
X4596610Y-27137984D01*
X4596610Y-27137984D02*
X4577563Y-27137984D01*
X4577563Y-27137984D02*
X4558515Y-27128460D01*
X4558515Y-27128460D02*
X4548991Y-27118936D01*
X4548991Y-27118936D02*
X4539467Y-27099888D01*
X4539467Y-27099888D02*
X4529944Y-27061793D01*
X4529944Y-27061793D02*
X4529944Y-27014174D01*
X4529944Y-27014174D02*
X4539467Y-26976079D01*
X4539467Y-26976079D02*
X4548991Y-26957031D01*
X4548991Y-26957031D02*
X4558515Y-26947508D01*
X4558515Y-26947508D02*
X4577563Y-26937984D01*
X4768039Y-26937984D02*
X4787086Y-26937984D01*
X4787086Y-26937984D02*
X4806134Y-26947508D01*
X4806134Y-26947508D02*
X4815658Y-26957031D01*
X4815658Y-26957031D02*
X4825182Y-26976079D01*
X4825182Y-26976079D02*
X4834705Y-27014174D01*
X4834705Y-27014174D02*
X4834705Y-27061793D01*
X4834705Y-27061793D02*
X4825182Y-27099888D01*
X4825182Y-27099888D02*
X4815658Y-27118936D01*
X4815658Y-27118936D02*
X4806134Y-27128460D01*
X4806134Y-27128460D02*
X4787086Y-27137984D01*
X4787086Y-27137984D02*
X4768039Y-27137984D01*
X4768039Y-27137984D02*
X4748991Y-27128460D01*
X4748991Y-27128460D02*
X4739467Y-27118936D01*
X4739467Y-27118936D02*
X4729944Y-27099888D01*
X4729944Y-27099888D02*
X4720420Y-27061793D01*
X4720420Y-27061793D02*
X4720420Y-27014174D01*
X4720420Y-27014174D02*
X4729944Y-26976079D01*
X4729944Y-26976079D02*
X4739467Y-26957031D01*
X4739467Y-26957031D02*
X4748991Y-26947508D01*
X4748991Y-26947508D02*
X4768039Y-26937984D01*
X4920420Y-27137984D02*
X4920420Y-27004650D01*
X4920420Y-27023698D02*
X4929944Y-27014174D01*
X4929944Y-27014174D02*
X4948991Y-27004650D01*
X4948991Y-27004650D02*
X4977563Y-27004650D01*
X4977563Y-27004650D02*
X4996610Y-27014174D01*
X4996610Y-27014174D02*
X5006134Y-27033222D01*
X5006134Y-27033222D02*
X5006134Y-27137984D01*
X5006134Y-27033222D02*
X5015658Y-27014174D01*
X5015658Y-27014174D02*
X5034705Y-27004650D01*
X5034705Y-27004650D02*
X5063277Y-27004650D01*
X5063277Y-27004650D02*
X5082325Y-27014174D01*
X5082325Y-27014174D02*
X5091848Y-27033222D01*
X5091848Y-27033222D02*
X5091848Y-27137984D01*
X5187086Y-27137984D02*
X5187086Y-27004650D01*
X5187086Y-27023698D02*
X5196610Y-27014174D01*
X5196610Y-27014174D02*
X5215658Y-27004650D01*
X5215658Y-27004650D02*
X5244229Y-27004650D01*
X5244229Y-27004650D02*
X5263277Y-27014174D01*
X5263277Y-27014174D02*
X5272801Y-27033222D01*
X5272801Y-27033222D02*
X5272801Y-27137984D01*
X5272801Y-27033222D02*
X5282325Y-27014174D01*
X5282325Y-27014174D02*
X5301372Y-27004650D01*
X5301372Y-27004650D02*
X5329944Y-27004650D01*
X5329944Y-27004650D02*
X5348991Y-27014174D01*
X5348991Y-27014174D02*
X5358515Y-27033222D01*
X5358515Y-27033222D02*
X5358515Y-27137984D01*
X5748991Y-26928460D02*
X5577563Y-27185603D01*
X6006134Y-26937984D02*
X6025182Y-26937984D01*
X6025182Y-26937984D02*
X6044229Y-26947508D01*
X6044229Y-26947508D02*
X6053753Y-26957031D01*
X6053753Y-26957031D02*
X6063277Y-26976079D01*
X6063277Y-26976079D02*
X6072801Y-27014174D01*
X6072801Y-27014174D02*
X6072801Y-27061793D01*
X6072801Y-27061793D02*
X6063277Y-27099888D01*
X6063277Y-27099888D02*
X6053753Y-27118936D01*
X6053753Y-27118936D02*
X6044229Y-27128460D01*
X6044229Y-27128460D02*
X6025182Y-27137984D01*
X6025182Y-27137984D02*
X6006134Y-27137984D01*
X6006134Y-27137984D02*
X5987086Y-27128460D01*
X5987086Y-27128460D02*
X5977563Y-27118936D01*
X5977563Y-27118936D02*
X5968039Y-27099888D01*
X5968039Y-27099888D02*
X5958515Y-27061793D01*
X5958515Y-27061793D02*
X5958515Y-27014174D01*
X5958515Y-27014174D02*
X5968039Y-26976079D01*
X5968039Y-26976079D02*
X5977563Y-26957031D01*
X5977563Y-26957031D02*
X5987086Y-26947508D01*
X5987086Y-26947508D02*
X6006134Y-26937984D01*
X6158515Y-27118936D02*
X6168039Y-27128460D01*
X6168039Y-27128460D02*
X6158515Y-27137984D01*
X6158515Y-27137984D02*
X6148991Y-27128460D01*
X6148991Y-27128460D02*
X6158515Y-27118936D01*
X6158515Y-27118936D02*
X6158515Y-27137984D01*
X6291848Y-26937984D02*
X6310896Y-26937984D01*
X6310896Y-26937984D02*
X6329944Y-26947508D01*
X6329944Y-26947508D02*
X6339467Y-26957031D01*
X6339467Y-26957031D02*
X6348991Y-26976079D01*
X6348991Y-26976079D02*
X6358515Y-27014174D01*
X6358515Y-27014174D02*
X6358515Y-27061793D01*
X6358515Y-27061793D02*
X6348991Y-27099888D01*
X6348991Y-27099888D02*
X6339467Y-27118936D01*
X6339467Y-27118936D02*
X6329944Y-27128460D01*
X6329944Y-27128460D02*
X6310896Y-27137984D01*
X6310896Y-27137984D02*
X6291848Y-27137984D01*
X6291848Y-27137984D02*
X6272801Y-27128460D01*
X6272801Y-27128460D02*
X6263277Y-27118936D01*
X6263277Y-27118936D02*
X6253753Y-27099888D01*
X6253753Y-27099888D02*
X6244229Y-27061793D01*
X6244229Y-27061793D02*
X6244229Y-27014174D01*
X6244229Y-27014174D02*
X6253753Y-26976079D01*
X6253753Y-26976079D02*
X6263277Y-26957031D01*
X6263277Y-26957031D02*
X6272801Y-26947508D01*
X6272801Y-26947508D02*
X6291848Y-26937984D01*
X6425182Y-26937984D02*
X6548991Y-26937984D01*
X6548991Y-26937984D02*
X6482325Y-27014174D01*
X6482325Y-27014174D02*
X6510896Y-27014174D01*
X6510896Y-27014174D02*
X6529944Y-27023698D01*
X6529944Y-27023698D02*
X6539467Y-27033222D01*
X6539467Y-27033222D02*
X6548991Y-27052269D01*
X6548991Y-27052269D02*
X6548991Y-27099888D01*
X6548991Y-27099888D02*
X6539467Y-27118936D01*
X6539467Y-27118936D02*
X6529944Y-27128460D01*
X6529944Y-27128460D02*
X6510896Y-27137984D01*
X6510896Y-27137984D02*
X6453753Y-27137984D01*
X6453753Y-27137984D02*
X6434706Y-27128460D01*
X6434706Y-27128460D02*
X6425182Y-27118936D01*
X6644229Y-27137984D02*
X6682325Y-27137984D01*
X6682325Y-27137984D02*
X6701372Y-27128460D01*
X6701372Y-27128460D02*
X6710896Y-27118936D01*
X6710896Y-27118936D02*
X6729944Y-27090365D01*
X6729944Y-27090365D02*
X6739467Y-27052269D01*
X6739467Y-27052269D02*
X6739467Y-26976079D01*
X6739467Y-26976079D02*
X6729944Y-26957031D01*
X6729944Y-26957031D02*
X6720420Y-26947508D01*
X6720420Y-26947508D02*
X6701372Y-26937984D01*
X6701372Y-26937984D02*
X6663277Y-26937984D01*
X6663277Y-26937984D02*
X6644229Y-26947508D01*
X6644229Y-26947508D02*
X6634706Y-26957031D01*
X6634706Y-26957031D02*
X6625182Y-26976079D01*
X6625182Y-26976079D02*
X6625182Y-27023698D01*
X6625182Y-27023698D02*
X6634706Y-27042746D01*
X6634706Y-27042746D02*
X6644229Y-27052269D01*
X6644229Y-27052269D02*
X6663277Y-27061793D01*
X6663277Y-27061793D02*
X6701372Y-27061793D01*
X6701372Y-27061793D02*
X6720420Y-27052269D01*
X6720420Y-27052269D02*
X6729944Y-27042746D01*
X6729944Y-27042746D02*
X6739467Y-27023698D01*
X6910896Y-27004650D02*
X6910896Y-27137984D01*
X6863277Y-26928460D02*
X6815658Y-27071317D01*
X6815658Y-27071317D02*
X6939467Y-27071317D01*
X7006134Y-26937984D02*
X7006134Y-26976079D01*
X7082325Y-26937984D02*
X7082325Y-26976079D01*
X7377563Y-27214174D02*
X7368039Y-27204650D01*
X7368039Y-27204650D02*
X7348991Y-27176079D01*
X7348991Y-27176079D02*
X7339468Y-27157031D01*
X7339468Y-27157031D02*
X7329944Y-27128460D01*
X7329944Y-27128460D02*
X7320420Y-27080841D01*
X7320420Y-27080841D02*
X7320420Y-27042746D01*
X7320420Y-27042746D02*
X7329944Y-26995127D01*
X7329944Y-26995127D02*
X7339468Y-26966555D01*
X7339468Y-26966555D02*
X7348991Y-26947508D01*
X7348991Y-26947508D02*
X7368039Y-26918936D01*
X7368039Y-26918936D02*
X7377563Y-26909412D01*
X7558515Y-27137984D02*
X7444229Y-27137984D01*
X7501372Y-27137984D02*
X7501372Y-26937984D01*
X7501372Y-26937984D02*
X7482325Y-26966555D01*
X7482325Y-26966555D02*
X7463277Y-26985603D01*
X7463277Y-26985603D02*
X7444229Y-26995127D01*
X7748991Y-27137984D02*
X7634706Y-27137984D01*
X7691848Y-27137984D02*
X7691848Y-26937984D01*
X7691848Y-26937984D02*
X7672801Y-26966555D01*
X7672801Y-26966555D02*
X7653753Y-26985603D01*
X7653753Y-26985603D02*
X7634706Y-26995127D01*
X7863277Y-27023698D02*
X7844229Y-27014174D01*
X7844229Y-27014174D02*
X7834706Y-27004650D01*
X7834706Y-27004650D02*
X7825182Y-26985603D01*
X7825182Y-26985603D02*
X7825182Y-26976079D01*
X7825182Y-26976079D02*
X7834706Y-26957031D01*
X7834706Y-26957031D02*
X7844229Y-26947508D01*
X7844229Y-26947508D02*
X7863277Y-26937984D01*
X7863277Y-26937984D02*
X7901372Y-26937984D01*
X7901372Y-26937984D02*
X7920420Y-26947508D01*
X7920420Y-26947508D02*
X7929944Y-26957031D01*
X7929944Y-26957031D02*
X7939468Y-26976079D01*
X7939468Y-26976079D02*
X7939468Y-26985603D01*
X7939468Y-26985603D02*
X7929944Y-27004650D01*
X7929944Y-27004650D02*
X7920420Y-27014174D01*
X7920420Y-27014174D02*
X7901372Y-27023698D01*
X7901372Y-27023698D02*
X7863277Y-27023698D01*
X7863277Y-27023698D02*
X7844229Y-27033222D01*
X7844229Y-27033222D02*
X7834706Y-27042746D01*
X7834706Y-27042746D02*
X7825182Y-27061793D01*
X7825182Y-27061793D02*
X7825182Y-27099888D01*
X7825182Y-27099888D02*
X7834706Y-27118936D01*
X7834706Y-27118936D02*
X7844229Y-27128460D01*
X7844229Y-27128460D02*
X7863277Y-27137984D01*
X7863277Y-27137984D02*
X7901372Y-27137984D01*
X7901372Y-27137984D02*
X7920420Y-27128460D01*
X7920420Y-27128460D02*
X7929944Y-27118936D01*
X7929944Y-27118936D02*
X7939468Y-27099888D01*
X7939468Y-27099888D02*
X7939468Y-27061793D01*
X7939468Y-27061793D02*
X7929944Y-27042746D01*
X7929944Y-27042746D02*
X7920420Y-27033222D01*
X7920420Y-27033222D02*
X7901372Y-27023698D01*
X8177563Y-27137984D02*
X8177563Y-26937984D01*
X8263277Y-27137984D02*
X8263277Y-27033222D01*
X8263277Y-27033222D02*
X8253753Y-27014174D01*
X8253753Y-27014174D02*
X8234706Y-27004650D01*
X8234706Y-27004650D02*
X8206134Y-27004650D01*
X8206134Y-27004650D02*
X8187087Y-27014174D01*
X8187087Y-27014174D02*
X8177563Y-27023698D01*
X8387087Y-27137984D02*
X8368039Y-27128460D01*
X8368039Y-27128460D02*
X8358515Y-27118936D01*
X8358515Y-27118936D02*
X8348991Y-27099888D01*
X8348991Y-27099888D02*
X8348991Y-27042746D01*
X8348991Y-27042746D02*
X8358515Y-27023698D01*
X8358515Y-27023698D02*
X8368039Y-27014174D01*
X8368039Y-27014174D02*
X8387087Y-27004650D01*
X8387087Y-27004650D02*
X8415658Y-27004650D01*
X8415658Y-27004650D02*
X8434706Y-27014174D01*
X8434706Y-27014174D02*
X8444230Y-27023698D01*
X8444230Y-27023698D02*
X8453753Y-27042746D01*
X8453753Y-27042746D02*
X8453753Y-27099888D01*
X8453753Y-27099888D02*
X8444230Y-27118936D01*
X8444230Y-27118936D02*
X8434706Y-27128460D01*
X8434706Y-27128460D02*
X8415658Y-27137984D01*
X8415658Y-27137984D02*
X8387087Y-27137984D01*
X8568039Y-27137984D02*
X8548992Y-27128460D01*
X8548992Y-27128460D02*
X8539468Y-27109412D01*
X8539468Y-27109412D02*
X8539468Y-26937984D01*
X8720420Y-27128460D02*
X8701373Y-27137984D01*
X8701373Y-27137984D02*
X8663277Y-27137984D01*
X8663277Y-27137984D02*
X8644230Y-27128460D01*
X8644230Y-27128460D02*
X8634706Y-27109412D01*
X8634706Y-27109412D02*
X8634706Y-27033222D01*
X8634706Y-27033222D02*
X8644230Y-27014174D01*
X8644230Y-27014174D02*
X8663277Y-27004650D01*
X8663277Y-27004650D02*
X8701373Y-27004650D01*
X8701373Y-27004650D02*
X8720420Y-27014174D01*
X8720420Y-27014174D02*
X8729944Y-27033222D01*
X8729944Y-27033222D02*
X8729944Y-27052269D01*
X8729944Y-27052269D02*
X8634706Y-27071317D01*
X8806134Y-27128460D02*
X8825182Y-27137984D01*
X8825182Y-27137984D02*
X8863277Y-27137984D01*
X8863277Y-27137984D02*
X8882325Y-27128460D01*
X8882325Y-27128460D02*
X8891849Y-27109412D01*
X8891849Y-27109412D02*
X8891849Y-27099888D01*
X8891849Y-27099888D02*
X8882325Y-27080841D01*
X8882325Y-27080841D02*
X8863277Y-27071317D01*
X8863277Y-27071317D02*
X8834706Y-27071317D01*
X8834706Y-27071317D02*
X8815658Y-27061793D01*
X8815658Y-27061793D02*
X8806134Y-27042746D01*
X8806134Y-27042746D02*
X8806134Y-27033222D01*
X8806134Y-27033222D02*
X8815658Y-27014174D01*
X8815658Y-27014174D02*
X8834706Y-27004650D01*
X8834706Y-27004650D02*
X8863277Y-27004650D01*
X8863277Y-27004650D02*
X8882325Y-27014174D01*
X8958515Y-27214174D02*
X8968039Y-27204650D01*
X8968039Y-27204650D02*
X8987087Y-27176079D01*
X8987087Y-27176079D02*
X8996611Y-27157031D01*
X8996611Y-27157031D02*
X9006134Y-27128460D01*
X9006134Y-27128460D02*
X9015658Y-27080841D01*
X9015658Y-27080841D02*
X9015658Y-27042746D01*
X9015658Y-27042746D02*
X9006134Y-26995127D01*
X9006134Y-26995127D02*
X8996611Y-26966555D01*
X8996611Y-26966555D02*
X8987087Y-26947508D01*
X8987087Y-26947508D02*
X8968039Y-26918936D01*
X8968039Y-26918936D02*
X8958515Y-26909412D01*
D13*
X3781266Y-27361766D02*
X3781266Y-27259234D01*
X3678734Y-27259234D01*
X3678734Y-27361766D01*
X3781266Y-27361766D01*
D11*
X4168039Y-27401984D02*
X4053753Y-27401984D01*
X4110896Y-27401984D02*
X4110896Y-27201984D01*
X4110896Y-27201984D02*
X4091848Y-27230555D01*
X4091848Y-27230555D02*
X4072801Y-27249603D01*
X4072801Y-27249603D02*
X4053753Y-27259127D01*
X4253753Y-27382936D02*
X4263277Y-27392460D01*
X4263277Y-27392460D02*
X4253753Y-27401984D01*
X4253753Y-27401984D02*
X4244229Y-27392460D01*
X4244229Y-27392460D02*
X4253753Y-27382936D01*
X4253753Y-27382936D02*
X4253753Y-27401984D01*
X4434705Y-27268650D02*
X4434705Y-27401984D01*
X4387086Y-27192460D02*
X4339467Y-27335317D01*
X4339467Y-27335317D02*
X4463277Y-27335317D01*
X4634705Y-27201984D02*
X4539467Y-27201984D01*
X4539467Y-27201984D02*
X4529944Y-27297222D01*
X4529944Y-27297222D02*
X4539467Y-27287698D01*
X4539467Y-27287698D02*
X4558515Y-27278174D01*
X4558515Y-27278174D02*
X4606134Y-27278174D01*
X4606134Y-27278174D02*
X4625182Y-27287698D01*
X4625182Y-27287698D02*
X4634705Y-27297222D01*
X4634705Y-27297222D02*
X4644229Y-27316269D01*
X4644229Y-27316269D02*
X4644229Y-27363888D01*
X4644229Y-27363888D02*
X4634705Y-27382936D01*
X4634705Y-27382936D02*
X4625182Y-27392460D01*
X4625182Y-27392460D02*
X4606134Y-27401984D01*
X4606134Y-27401984D02*
X4558515Y-27401984D01*
X4558515Y-27401984D02*
X4539467Y-27392460D01*
X4539467Y-27392460D02*
X4529944Y-27382936D01*
X4768039Y-27201984D02*
X4787086Y-27201984D01*
X4787086Y-27201984D02*
X4806134Y-27211508D01*
X4806134Y-27211508D02*
X4815658Y-27221031D01*
X4815658Y-27221031D02*
X4825182Y-27240079D01*
X4825182Y-27240079D02*
X4834705Y-27278174D01*
X4834705Y-27278174D02*
X4834705Y-27325793D01*
X4834705Y-27325793D02*
X4825182Y-27363888D01*
X4825182Y-27363888D02*
X4815658Y-27382936D01*
X4815658Y-27382936D02*
X4806134Y-27392460D01*
X4806134Y-27392460D02*
X4787086Y-27401984D01*
X4787086Y-27401984D02*
X4768039Y-27401984D01*
X4768039Y-27401984D02*
X4748991Y-27392460D01*
X4748991Y-27392460D02*
X4739467Y-27382936D01*
X4739467Y-27382936D02*
X4729944Y-27363888D01*
X4729944Y-27363888D02*
X4720420Y-27325793D01*
X4720420Y-27325793D02*
X4720420Y-27278174D01*
X4720420Y-27278174D02*
X4729944Y-27240079D01*
X4729944Y-27240079D02*
X4739467Y-27221031D01*
X4739467Y-27221031D02*
X4748991Y-27211508D01*
X4748991Y-27211508D02*
X4768039Y-27201984D01*
X4920420Y-27401984D02*
X4920420Y-27268650D01*
X4920420Y-27287698D02*
X4929944Y-27278174D01*
X4929944Y-27278174D02*
X4948991Y-27268650D01*
X4948991Y-27268650D02*
X4977563Y-27268650D01*
X4977563Y-27268650D02*
X4996610Y-27278174D01*
X4996610Y-27278174D02*
X5006134Y-27297222D01*
X5006134Y-27297222D02*
X5006134Y-27401984D01*
X5006134Y-27297222D02*
X5015658Y-27278174D01*
X5015658Y-27278174D02*
X5034705Y-27268650D01*
X5034705Y-27268650D02*
X5063277Y-27268650D01*
X5063277Y-27268650D02*
X5082325Y-27278174D01*
X5082325Y-27278174D02*
X5091848Y-27297222D01*
X5091848Y-27297222D02*
X5091848Y-27401984D01*
X5187086Y-27401984D02*
X5187086Y-27268650D01*
X5187086Y-27287698D02*
X5196610Y-27278174D01*
X5196610Y-27278174D02*
X5215658Y-27268650D01*
X5215658Y-27268650D02*
X5244229Y-27268650D01*
X5244229Y-27268650D02*
X5263277Y-27278174D01*
X5263277Y-27278174D02*
X5272801Y-27297222D01*
X5272801Y-27297222D02*
X5272801Y-27401984D01*
X5272801Y-27297222D02*
X5282325Y-27278174D01*
X5282325Y-27278174D02*
X5301372Y-27268650D01*
X5301372Y-27268650D02*
X5329944Y-27268650D01*
X5329944Y-27268650D02*
X5348991Y-27278174D01*
X5348991Y-27278174D02*
X5358515Y-27297222D01*
X5358515Y-27297222D02*
X5358515Y-27401984D01*
X5748991Y-27192460D02*
X5577563Y-27449603D01*
X6006134Y-27201984D02*
X6025182Y-27201984D01*
X6025182Y-27201984D02*
X6044229Y-27211508D01*
X6044229Y-27211508D02*
X6053753Y-27221031D01*
X6053753Y-27221031D02*
X6063277Y-27240079D01*
X6063277Y-27240079D02*
X6072801Y-27278174D01*
X6072801Y-27278174D02*
X6072801Y-27325793D01*
X6072801Y-27325793D02*
X6063277Y-27363888D01*
X6063277Y-27363888D02*
X6053753Y-27382936D01*
X6053753Y-27382936D02*
X6044229Y-27392460D01*
X6044229Y-27392460D02*
X6025182Y-27401984D01*
X6025182Y-27401984D02*
X6006134Y-27401984D01*
X6006134Y-27401984D02*
X5987086Y-27392460D01*
X5987086Y-27392460D02*
X5977563Y-27382936D01*
X5977563Y-27382936D02*
X5968039Y-27363888D01*
X5968039Y-27363888D02*
X5958515Y-27325793D01*
X5958515Y-27325793D02*
X5958515Y-27278174D01*
X5958515Y-27278174D02*
X5968039Y-27240079D01*
X5968039Y-27240079D02*
X5977563Y-27221031D01*
X5977563Y-27221031D02*
X5987086Y-27211508D01*
X5987086Y-27211508D02*
X6006134Y-27201984D01*
X6158515Y-27382936D02*
X6168039Y-27392460D01*
X6168039Y-27392460D02*
X6158515Y-27401984D01*
X6158515Y-27401984D02*
X6148991Y-27392460D01*
X6148991Y-27392460D02*
X6158515Y-27382936D01*
X6158515Y-27382936D02*
X6158515Y-27401984D01*
X6291848Y-27201984D02*
X6310896Y-27201984D01*
X6310896Y-27201984D02*
X6329944Y-27211508D01*
X6329944Y-27211508D02*
X6339467Y-27221031D01*
X6339467Y-27221031D02*
X6348991Y-27240079D01*
X6348991Y-27240079D02*
X6358515Y-27278174D01*
X6358515Y-27278174D02*
X6358515Y-27325793D01*
X6358515Y-27325793D02*
X6348991Y-27363888D01*
X6348991Y-27363888D02*
X6339467Y-27382936D01*
X6339467Y-27382936D02*
X6329944Y-27392460D01*
X6329944Y-27392460D02*
X6310896Y-27401984D01*
X6310896Y-27401984D02*
X6291848Y-27401984D01*
X6291848Y-27401984D02*
X6272801Y-27392460D01*
X6272801Y-27392460D02*
X6263277Y-27382936D01*
X6263277Y-27382936D02*
X6253753Y-27363888D01*
X6253753Y-27363888D02*
X6244229Y-27325793D01*
X6244229Y-27325793D02*
X6244229Y-27278174D01*
X6244229Y-27278174D02*
X6253753Y-27240079D01*
X6253753Y-27240079D02*
X6263277Y-27221031D01*
X6263277Y-27221031D02*
X6272801Y-27211508D01*
X6272801Y-27211508D02*
X6291848Y-27201984D01*
X6539467Y-27201984D02*
X6444229Y-27201984D01*
X6444229Y-27201984D02*
X6434706Y-27297222D01*
X6434706Y-27297222D02*
X6444229Y-27287698D01*
X6444229Y-27287698D02*
X6463277Y-27278174D01*
X6463277Y-27278174D02*
X6510896Y-27278174D01*
X6510896Y-27278174D02*
X6529944Y-27287698D01*
X6529944Y-27287698D02*
X6539467Y-27297222D01*
X6539467Y-27297222D02*
X6548991Y-27316269D01*
X6548991Y-27316269D02*
X6548991Y-27363888D01*
X6548991Y-27363888D02*
X6539467Y-27382936D01*
X6539467Y-27382936D02*
X6529944Y-27392460D01*
X6529944Y-27392460D02*
X6510896Y-27401984D01*
X6510896Y-27401984D02*
X6463277Y-27401984D01*
X6463277Y-27401984D02*
X6444229Y-27392460D01*
X6444229Y-27392460D02*
X6434706Y-27382936D01*
X6615658Y-27201984D02*
X6748991Y-27201984D01*
X6748991Y-27201984D02*
X6663277Y-27401984D01*
X6929944Y-27401984D02*
X6815658Y-27401984D01*
X6872801Y-27401984D02*
X6872801Y-27201984D01*
X6872801Y-27201984D02*
X6853753Y-27230555D01*
X6853753Y-27230555D02*
X6834706Y-27249603D01*
X6834706Y-27249603D02*
X6815658Y-27259127D01*
X7006134Y-27201984D02*
X7006134Y-27240079D01*
X7082325Y-27201984D02*
X7082325Y-27240079D01*
X7377563Y-27478174D02*
X7368039Y-27468650D01*
X7368039Y-27468650D02*
X7348991Y-27440079D01*
X7348991Y-27440079D02*
X7339468Y-27421031D01*
X7339468Y-27421031D02*
X7329944Y-27392460D01*
X7329944Y-27392460D02*
X7320420Y-27344841D01*
X7320420Y-27344841D02*
X7320420Y-27306746D01*
X7320420Y-27306746D02*
X7329944Y-27259127D01*
X7329944Y-27259127D02*
X7339468Y-27230555D01*
X7339468Y-27230555D02*
X7348991Y-27211508D01*
X7348991Y-27211508D02*
X7368039Y-27182936D01*
X7368039Y-27182936D02*
X7377563Y-27173412D01*
X7444229Y-27221031D02*
X7453753Y-27211508D01*
X7453753Y-27211508D02*
X7472801Y-27201984D01*
X7472801Y-27201984D02*
X7520420Y-27201984D01*
X7520420Y-27201984D02*
X7539468Y-27211508D01*
X7539468Y-27211508D02*
X7548991Y-27221031D01*
X7548991Y-27221031D02*
X7558515Y-27240079D01*
X7558515Y-27240079D02*
X7558515Y-27259127D01*
X7558515Y-27259127D02*
X7548991Y-27287698D01*
X7548991Y-27287698D02*
X7434706Y-27401984D01*
X7434706Y-27401984D02*
X7558515Y-27401984D01*
X7729944Y-27268650D02*
X7729944Y-27401984D01*
X7682325Y-27192460D02*
X7634706Y-27335317D01*
X7634706Y-27335317D02*
X7758515Y-27335317D01*
X7987087Y-27401984D02*
X7987087Y-27201984D01*
X8072801Y-27401984D02*
X8072801Y-27297222D01*
X8072801Y-27297222D02*
X8063277Y-27278174D01*
X8063277Y-27278174D02*
X8044230Y-27268650D01*
X8044230Y-27268650D02*
X8015658Y-27268650D01*
X8015658Y-27268650D02*
X7996610Y-27278174D01*
X7996610Y-27278174D02*
X7987087Y-27287698D01*
X8196610Y-27401984D02*
X8177563Y-27392460D01*
X8177563Y-27392460D02*
X8168039Y-27382936D01*
X8168039Y-27382936D02*
X8158515Y-27363888D01*
X8158515Y-27363888D02*
X8158515Y-27306746D01*
X8158515Y-27306746D02*
X8168039Y-27287698D01*
X8168039Y-27287698D02*
X8177563Y-27278174D01*
X8177563Y-27278174D02*
X8196610Y-27268650D01*
X8196610Y-27268650D02*
X8225182Y-27268650D01*
X8225182Y-27268650D02*
X8244230Y-27278174D01*
X8244230Y-27278174D02*
X8253753Y-27287698D01*
X8253753Y-27287698D02*
X8263277Y-27306746D01*
X8263277Y-27306746D02*
X8263277Y-27363888D01*
X8263277Y-27363888D02*
X8253753Y-27382936D01*
X8253753Y-27382936D02*
X8244230Y-27392460D01*
X8244230Y-27392460D02*
X8225182Y-27401984D01*
X8225182Y-27401984D02*
X8196610Y-27401984D01*
X8377563Y-27401984D02*
X8358515Y-27392460D01*
X8358515Y-27392460D02*
X8348991Y-27373412D01*
X8348991Y-27373412D02*
X8348991Y-27201984D01*
X8529944Y-27392460D02*
X8510896Y-27401984D01*
X8510896Y-27401984D02*
X8472801Y-27401984D01*
X8472801Y-27401984D02*
X8453753Y-27392460D01*
X8453753Y-27392460D02*
X8444230Y-27373412D01*
X8444230Y-27373412D02*
X8444230Y-27297222D01*
X8444230Y-27297222D02*
X8453753Y-27278174D01*
X8453753Y-27278174D02*
X8472801Y-27268650D01*
X8472801Y-27268650D02*
X8510896Y-27268650D01*
X8510896Y-27268650D02*
X8529944Y-27278174D01*
X8529944Y-27278174D02*
X8539468Y-27297222D01*
X8539468Y-27297222D02*
X8539468Y-27316269D01*
X8539468Y-27316269D02*
X8444230Y-27335317D01*
X8615658Y-27392460D02*
X8634706Y-27401984D01*
X8634706Y-27401984D02*
X8672801Y-27401984D01*
X8672801Y-27401984D02*
X8691849Y-27392460D01*
X8691849Y-27392460D02*
X8701373Y-27373412D01*
X8701373Y-27373412D02*
X8701373Y-27363888D01*
X8701373Y-27363888D02*
X8691849Y-27344841D01*
X8691849Y-27344841D02*
X8672801Y-27335317D01*
X8672801Y-27335317D02*
X8644230Y-27335317D01*
X8644230Y-27335317D02*
X8625182Y-27325793D01*
X8625182Y-27325793D02*
X8615658Y-27306746D01*
X8615658Y-27306746D02*
X8615658Y-27297222D01*
X8615658Y-27297222D02*
X8625182Y-27278174D01*
X8625182Y-27278174D02*
X8644230Y-27268650D01*
X8644230Y-27268650D02*
X8672801Y-27268650D01*
X8672801Y-27268650D02*
X8691849Y-27278174D01*
X8768039Y-27478174D02*
X8777563Y-27468650D01*
X8777563Y-27468650D02*
X8796611Y-27440079D01*
X8796611Y-27440079D02*
X8806134Y-27421031D01*
X8806134Y-27421031D02*
X8815658Y-27392460D01*
X8815658Y-27392460D02*
X8825182Y-27344841D01*
X8825182Y-27344841D02*
X8825182Y-27306746D01*
X8825182Y-27306746D02*
X8815658Y-27259127D01*
X8815658Y-27259127D02*
X8806134Y-27230555D01*
X8806134Y-27230555D02*
X8796611Y-27211508D01*
X8796611Y-27211508D02*
X8777563Y-27182936D01*
X8777563Y-27182936D02*
X8768039Y-27173412D01*
X3702500Y-27675500D02*
X3802500Y-27575500D01*
X3702500Y-27475500D01*
X3602500Y-27575500D01*
X3702500Y-27675500D01*
X4044229Y-27466984D02*
X4168039Y-27466984D01*
X4168039Y-27466984D02*
X4101372Y-27543174D01*
X4101372Y-27543174D02*
X4129943Y-27543174D01*
X4129943Y-27543174D02*
X4148991Y-27552698D01*
X4148991Y-27552698D02*
X4158515Y-27562222D01*
X4158515Y-27562222D02*
X4168039Y-27581269D01*
X4168039Y-27581269D02*
X4168039Y-27628888D01*
X4168039Y-27628888D02*
X4158515Y-27647936D01*
X4158515Y-27647936D02*
X4148991Y-27657460D01*
X4148991Y-27657460D02*
X4129943Y-27666984D01*
X4129943Y-27666984D02*
X4072801Y-27666984D01*
X4072801Y-27666984D02*
X4053753Y-27657460D01*
X4053753Y-27657460D02*
X4044229Y-27647936D01*
X4253753Y-27647936D02*
X4263277Y-27657460D01*
X4263277Y-27657460D02*
X4253753Y-27666984D01*
X4253753Y-27666984D02*
X4244229Y-27657460D01*
X4244229Y-27657460D02*
X4253753Y-27647936D01*
X4253753Y-27647936D02*
X4253753Y-27666984D01*
X4339467Y-27486031D02*
X4348991Y-27476508D01*
X4348991Y-27476508D02*
X4368039Y-27466984D01*
X4368039Y-27466984D02*
X4415658Y-27466984D01*
X4415658Y-27466984D02*
X4434705Y-27476508D01*
X4434705Y-27476508D02*
X4444229Y-27486031D01*
X4444229Y-27486031D02*
X4453753Y-27505079D01*
X4453753Y-27505079D02*
X4453753Y-27524127D01*
X4453753Y-27524127D02*
X4444229Y-27552698D01*
X4444229Y-27552698D02*
X4329944Y-27666984D01*
X4329944Y-27666984D02*
X4453753Y-27666984D01*
X4577563Y-27466984D02*
X4596610Y-27466984D01*
X4596610Y-27466984D02*
X4615658Y-27476508D01*
X4615658Y-27476508D02*
X4625182Y-27486031D01*
X4625182Y-27486031D02*
X4634705Y-27505079D01*
X4634705Y-27505079D02*
X4644229Y-27543174D01*
X4644229Y-27543174D02*
X4644229Y-27590793D01*
X4644229Y-27590793D02*
X4634705Y-27628888D01*
X4634705Y-27628888D02*
X4625182Y-27647936D01*
X4625182Y-27647936D02*
X4615658Y-27657460D01*
X4615658Y-27657460D02*
X4596610Y-27666984D01*
X4596610Y-27666984D02*
X4577563Y-27666984D01*
X4577563Y-27666984D02*
X4558515Y-27657460D01*
X4558515Y-27657460D02*
X4548991Y-27647936D01*
X4548991Y-27647936D02*
X4539467Y-27628888D01*
X4539467Y-27628888D02*
X4529944Y-27590793D01*
X4529944Y-27590793D02*
X4529944Y-27543174D01*
X4529944Y-27543174D02*
X4539467Y-27505079D01*
X4539467Y-27505079D02*
X4548991Y-27486031D01*
X4548991Y-27486031D02*
X4558515Y-27476508D01*
X4558515Y-27476508D02*
X4577563Y-27466984D01*
X4768039Y-27466984D02*
X4787086Y-27466984D01*
X4787086Y-27466984D02*
X4806134Y-27476508D01*
X4806134Y-27476508D02*
X4815658Y-27486031D01*
X4815658Y-27486031D02*
X4825182Y-27505079D01*
X4825182Y-27505079D02*
X4834705Y-27543174D01*
X4834705Y-27543174D02*
X4834705Y-27590793D01*
X4834705Y-27590793D02*
X4825182Y-27628888D01*
X4825182Y-27628888D02*
X4815658Y-27647936D01*
X4815658Y-27647936D02*
X4806134Y-27657460D01*
X4806134Y-27657460D02*
X4787086Y-27666984D01*
X4787086Y-27666984D02*
X4768039Y-27666984D01*
X4768039Y-27666984D02*
X4748991Y-27657460D01*
X4748991Y-27657460D02*
X4739467Y-27647936D01*
X4739467Y-27647936D02*
X4729944Y-27628888D01*
X4729944Y-27628888D02*
X4720420Y-27590793D01*
X4720420Y-27590793D02*
X4720420Y-27543174D01*
X4720420Y-27543174D02*
X4729944Y-27505079D01*
X4729944Y-27505079D02*
X4739467Y-27486031D01*
X4739467Y-27486031D02*
X4748991Y-27476508D01*
X4748991Y-27476508D02*
X4768039Y-27466984D01*
X4920420Y-27666984D02*
X4920420Y-27533650D01*
X4920420Y-27552698D02*
X4929944Y-27543174D01*
X4929944Y-27543174D02*
X4948991Y-27533650D01*
X4948991Y-27533650D02*
X4977563Y-27533650D01*
X4977563Y-27533650D02*
X4996610Y-27543174D01*
X4996610Y-27543174D02*
X5006134Y-27562222D01*
X5006134Y-27562222D02*
X5006134Y-27666984D01*
X5006134Y-27562222D02*
X5015658Y-27543174D01*
X5015658Y-27543174D02*
X5034705Y-27533650D01*
X5034705Y-27533650D02*
X5063277Y-27533650D01*
X5063277Y-27533650D02*
X5082325Y-27543174D01*
X5082325Y-27543174D02*
X5091848Y-27562222D01*
X5091848Y-27562222D02*
X5091848Y-27666984D01*
X5187086Y-27666984D02*
X5187086Y-27533650D01*
X5187086Y-27552698D02*
X5196610Y-27543174D01*
X5196610Y-27543174D02*
X5215658Y-27533650D01*
X5215658Y-27533650D02*
X5244229Y-27533650D01*
X5244229Y-27533650D02*
X5263277Y-27543174D01*
X5263277Y-27543174D02*
X5272801Y-27562222D01*
X5272801Y-27562222D02*
X5272801Y-27666984D01*
X5272801Y-27562222D02*
X5282325Y-27543174D01*
X5282325Y-27543174D02*
X5301372Y-27533650D01*
X5301372Y-27533650D02*
X5329944Y-27533650D01*
X5329944Y-27533650D02*
X5348991Y-27543174D01*
X5348991Y-27543174D02*
X5358515Y-27562222D01*
X5358515Y-27562222D02*
X5358515Y-27666984D01*
X5748991Y-27457460D02*
X5577563Y-27714603D01*
X6006134Y-27466984D02*
X6025182Y-27466984D01*
X6025182Y-27466984D02*
X6044229Y-27476508D01*
X6044229Y-27476508D02*
X6053753Y-27486031D01*
X6053753Y-27486031D02*
X6063277Y-27505079D01*
X6063277Y-27505079D02*
X6072801Y-27543174D01*
X6072801Y-27543174D02*
X6072801Y-27590793D01*
X6072801Y-27590793D02*
X6063277Y-27628888D01*
X6063277Y-27628888D02*
X6053753Y-27647936D01*
X6053753Y-27647936D02*
X6044229Y-27657460D01*
X6044229Y-27657460D02*
X6025182Y-27666984D01*
X6025182Y-27666984D02*
X6006134Y-27666984D01*
X6006134Y-27666984D02*
X5987086Y-27657460D01*
X5987086Y-27657460D02*
X5977563Y-27647936D01*
X5977563Y-27647936D02*
X5968039Y-27628888D01*
X5968039Y-27628888D02*
X5958515Y-27590793D01*
X5958515Y-27590793D02*
X5958515Y-27543174D01*
X5958515Y-27543174D02*
X5968039Y-27505079D01*
X5968039Y-27505079D02*
X5977563Y-27486031D01*
X5977563Y-27486031D02*
X5987086Y-27476508D01*
X5987086Y-27476508D02*
X6006134Y-27466984D01*
X6158515Y-27647936D02*
X6168039Y-27657460D01*
X6168039Y-27657460D02*
X6158515Y-27666984D01*
X6158515Y-27666984D02*
X6148991Y-27657460D01*
X6148991Y-27657460D02*
X6158515Y-27647936D01*
X6158515Y-27647936D02*
X6158515Y-27666984D01*
X6358515Y-27666984D02*
X6244229Y-27666984D01*
X6301372Y-27666984D02*
X6301372Y-27466984D01*
X6301372Y-27466984D02*
X6282325Y-27495555D01*
X6282325Y-27495555D02*
X6263277Y-27514603D01*
X6263277Y-27514603D02*
X6244229Y-27524127D01*
X6434706Y-27486031D02*
X6444229Y-27476508D01*
X6444229Y-27476508D02*
X6463277Y-27466984D01*
X6463277Y-27466984D02*
X6510896Y-27466984D01*
X6510896Y-27466984D02*
X6529944Y-27476508D01*
X6529944Y-27476508D02*
X6539467Y-27486031D01*
X6539467Y-27486031D02*
X6548991Y-27505079D01*
X6548991Y-27505079D02*
X6548991Y-27524127D01*
X6548991Y-27524127D02*
X6539467Y-27552698D01*
X6539467Y-27552698D02*
X6425182Y-27666984D01*
X6425182Y-27666984D02*
X6548991Y-27666984D01*
X6720420Y-27466984D02*
X6682325Y-27466984D01*
X6682325Y-27466984D02*
X6663277Y-27476508D01*
X6663277Y-27476508D02*
X6653753Y-27486031D01*
X6653753Y-27486031D02*
X6634706Y-27514603D01*
X6634706Y-27514603D02*
X6625182Y-27552698D01*
X6625182Y-27552698D02*
X6625182Y-27628888D01*
X6625182Y-27628888D02*
X6634706Y-27647936D01*
X6634706Y-27647936D02*
X6644229Y-27657460D01*
X6644229Y-27657460D02*
X6663277Y-27666984D01*
X6663277Y-27666984D02*
X6701372Y-27666984D01*
X6701372Y-27666984D02*
X6720420Y-27657460D01*
X6720420Y-27657460D02*
X6729944Y-27647936D01*
X6729944Y-27647936D02*
X6739467Y-27628888D01*
X6739467Y-27628888D02*
X6739467Y-27581269D01*
X6739467Y-27581269D02*
X6729944Y-27562222D01*
X6729944Y-27562222D02*
X6720420Y-27552698D01*
X6720420Y-27552698D02*
X6701372Y-27543174D01*
X6701372Y-27543174D02*
X6663277Y-27543174D01*
X6663277Y-27543174D02*
X6644229Y-27552698D01*
X6644229Y-27552698D02*
X6634706Y-27562222D01*
X6634706Y-27562222D02*
X6625182Y-27581269D01*
X6863277Y-27466984D02*
X6882325Y-27466984D01*
X6882325Y-27466984D02*
X6901372Y-27476508D01*
X6901372Y-27476508D02*
X6910896Y-27486031D01*
X6910896Y-27486031D02*
X6920420Y-27505079D01*
X6920420Y-27505079D02*
X6929944Y-27543174D01*
X6929944Y-27543174D02*
X6929944Y-27590793D01*
X6929944Y-27590793D02*
X6920420Y-27628888D01*
X6920420Y-27628888D02*
X6910896Y-27647936D01*
X6910896Y-27647936D02*
X6901372Y-27657460D01*
X6901372Y-27657460D02*
X6882325Y-27666984D01*
X6882325Y-27666984D02*
X6863277Y-27666984D01*
X6863277Y-27666984D02*
X6844229Y-27657460D01*
X6844229Y-27657460D02*
X6834706Y-27647936D01*
X6834706Y-27647936D02*
X6825182Y-27628888D01*
X6825182Y-27628888D02*
X6815658Y-27590793D01*
X6815658Y-27590793D02*
X6815658Y-27543174D01*
X6815658Y-27543174D02*
X6825182Y-27505079D01*
X6825182Y-27505079D02*
X6834706Y-27486031D01*
X6834706Y-27486031D02*
X6844229Y-27476508D01*
X6844229Y-27476508D02*
X6863277Y-27466984D01*
X7006134Y-27466984D02*
X7006134Y-27505079D01*
X7082325Y-27466984D02*
X7082325Y-27505079D01*
X7377563Y-27743174D02*
X7368039Y-27733650D01*
X7368039Y-27733650D02*
X7348991Y-27705079D01*
X7348991Y-27705079D02*
X7339468Y-27686031D01*
X7339468Y-27686031D02*
X7329944Y-27657460D01*
X7329944Y-27657460D02*
X7320420Y-27609841D01*
X7320420Y-27609841D02*
X7320420Y-27571746D01*
X7320420Y-27571746D02*
X7329944Y-27524127D01*
X7329944Y-27524127D02*
X7339468Y-27495555D01*
X7339468Y-27495555D02*
X7348991Y-27476508D01*
X7348991Y-27476508D02*
X7368039Y-27447936D01*
X7368039Y-27447936D02*
X7377563Y-27438412D01*
X7548991Y-27466984D02*
X7453753Y-27466984D01*
X7453753Y-27466984D02*
X7444229Y-27562222D01*
X7444229Y-27562222D02*
X7453753Y-27552698D01*
X7453753Y-27552698D02*
X7472801Y-27543174D01*
X7472801Y-27543174D02*
X7520420Y-27543174D01*
X7520420Y-27543174D02*
X7539468Y-27552698D01*
X7539468Y-27552698D02*
X7548991Y-27562222D01*
X7548991Y-27562222D02*
X7558515Y-27581269D01*
X7558515Y-27581269D02*
X7558515Y-27628888D01*
X7558515Y-27628888D02*
X7548991Y-27647936D01*
X7548991Y-27647936D02*
X7539468Y-27657460D01*
X7539468Y-27657460D02*
X7520420Y-27666984D01*
X7520420Y-27666984D02*
X7472801Y-27666984D01*
X7472801Y-27666984D02*
X7453753Y-27657460D01*
X7453753Y-27657460D02*
X7444229Y-27647936D01*
X7796610Y-27666984D02*
X7796610Y-27466984D01*
X7882325Y-27666984D02*
X7882325Y-27562222D01*
X7882325Y-27562222D02*
X7872801Y-27543174D01*
X7872801Y-27543174D02*
X7853753Y-27533650D01*
X7853753Y-27533650D02*
X7825182Y-27533650D01*
X7825182Y-27533650D02*
X7806134Y-27543174D01*
X7806134Y-27543174D02*
X7796610Y-27552698D01*
X8006134Y-27666984D02*
X7987087Y-27657460D01*
X7987087Y-27657460D02*
X7977563Y-27647936D01*
X7977563Y-27647936D02*
X7968039Y-27628888D01*
X7968039Y-27628888D02*
X7968039Y-27571746D01*
X7968039Y-27571746D02*
X7977563Y-27552698D01*
X7977563Y-27552698D02*
X7987087Y-27543174D01*
X7987087Y-27543174D02*
X8006134Y-27533650D01*
X8006134Y-27533650D02*
X8034706Y-27533650D01*
X8034706Y-27533650D02*
X8053753Y-27543174D01*
X8053753Y-27543174D02*
X8063277Y-27552698D01*
X8063277Y-27552698D02*
X8072801Y-27571746D01*
X8072801Y-27571746D02*
X8072801Y-27628888D01*
X8072801Y-27628888D02*
X8063277Y-27647936D01*
X8063277Y-27647936D02*
X8053753Y-27657460D01*
X8053753Y-27657460D02*
X8034706Y-27666984D01*
X8034706Y-27666984D02*
X8006134Y-27666984D01*
X8187087Y-27666984D02*
X8168039Y-27657460D01*
X8168039Y-27657460D02*
X8158515Y-27638412D01*
X8158515Y-27638412D02*
X8158515Y-27466984D01*
X8339468Y-27657460D02*
X8320420Y-27666984D01*
X8320420Y-27666984D02*
X8282325Y-27666984D01*
X8282325Y-27666984D02*
X8263277Y-27657460D01*
X8263277Y-27657460D02*
X8253753Y-27638412D01*
X8253753Y-27638412D02*
X8253753Y-27562222D01*
X8253753Y-27562222D02*
X8263277Y-27543174D01*
X8263277Y-27543174D02*
X8282325Y-27533650D01*
X8282325Y-27533650D02*
X8320420Y-27533650D01*
X8320420Y-27533650D02*
X8339468Y-27543174D01*
X8339468Y-27543174D02*
X8348991Y-27562222D01*
X8348991Y-27562222D02*
X8348991Y-27581269D01*
X8348991Y-27581269D02*
X8253753Y-27600317D01*
X8425182Y-27657460D02*
X8444230Y-27666984D01*
X8444230Y-27666984D02*
X8482325Y-27666984D01*
X8482325Y-27666984D02*
X8501373Y-27657460D01*
X8501373Y-27657460D02*
X8510896Y-27638412D01*
X8510896Y-27638412D02*
X8510896Y-27628888D01*
X8510896Y-27628888D02*
X8501373Y-27609841D01*
X8501373Y-27609841D02*
X8482325Y-27600317D01*
X8482325Y-27600317D02*
X8453753Y-27600317D01*
X8453753Y-27600317D02*
X8434706Y-27590793D01*
X8434706Y-27590793D02*
X8425182Y-27571746D01*
X8425182Y-27571746D02*
X8425182Y-27562222D01*
X8425182Y-27562222D02*
X8434706Y-27543174D01*
X8434706Y-27543174D02*
X8453753Y-27533650D01*
X8453753Y-27533650D02*
X8482325Y-27533650D01*
X8482325Y-27533650D02*
X8501373Y-27543174D01*
X8577563Y-27743174D02*
X8587087Y-27733650D01*
X8587087Y-27733650D02*
X8606134Y-27705079D01*
X8606134Y-27705079D02*
X8615658Y-27686031D01*
X8615658Y-27686031D02*
X8625182Y-27657460D01*
X8625182Y-27657460D02*
X8634706Y-27609841D01*
X8634706Y-27609841D02*
X8634706Y-27571746D01*
X8634706Y-27571746D02*
X8625182Y-27524127D01*
X8625182Y-27524127D02*
X8615658Y-27495555D01*
X8615658Y-27495555D02*
X8606134Y-27476508D01*
X8606134Y-27476508D02*
X8587087Y-27447936D01*
X8587087Y-27447936D02*
X8577563Y-27438412D01*
M02*
