%TF.GenerationSoftware,KiCad,Pcbnew,7.0.10+dfsg-1*%
%TF.CreationDate,2024-02-25T05:42:20-05:00*%
%TF.ProjectId,BB816-MATX-minimal,42423831-362d-44d4-9154-582d6d696e69,rev?*%
%TF.SameCoordinates,Original*%
%TF.FileFunction,Soldermask,Top*%
%TF.FilePolarity,Negative*%
%FSLAX46Y46*%
G04 Gerber Fmt 4.6, Leading zero omitted, Abs format (unit mm)*
G04 Created by KiCad (PCBNEW 7.0.10+dfsg-1) date 2024-02-25 05:42:20*
%MOMM*%
%LPD*%
G01*
G04 APERTURE LIST*
%ADD10R,2.175000X2.175000*%
%ADD11C,2.175000*%
%ADD12C,0.800000*%
%ADD13C,6.400000*%
%ADD14C,0.001000*%
%ADD15C,1.280000*%
%ADD16R,1.700000X1.700000*%
%ADD17O,1.700000X1.700000*%
G04 APERTURE END LIST*
D10*
%TO.C,J5*%
X223250000Y-254050000D03*
D11*
X228750000Y-254050000D03*
X223250000Y-249850000D03*
X228750000Y-249850000D03*
X223250000Y-245650000D03*
X228750000Y-245650000D03*
X223250000Y-241450000D03*
X228750000Y-241450000D03*
X223250000Y-237250000D03*
X228750000Y-237250000D03*
X223250000Y-233050000D03*
X228750000Y-233050000D03*
X223250000Y-228850000D03*
X228750000Y-228850000D03*
X223250000Y-224650000D03*
X228750000Y-224650000D03*
X223250000Y-220450000D03*
X228750000Y-220450000D03*
X223250000Y-216250000D03*
X228750000Y-216250000D03*
X223250000Y-212050000D03*
X228750000Y-212050000D03*
X223250000Y-207850000D03*
X228750000Y-207850000D03*
%TD*%
D12*
%TO.C,H1*%
X45860000Y-232410000D03*
X46562944Y-230712944D03*
X46562944Y-234107056D03*
X48260000Y-230010000D03*
D13*
X48260000Y-232410000D03*
D12*
X48260000Y-234810000D03*
X49957056Y-230712944D03*
X49957056Y-234107056D03*
X50660000Y-232410000D03*
%TD*%
%TO.C,H2*%
X45860000Y-186690000D03*
X46562944Y-184992944D03*
X46562944Y-188387056D03*
X48260000Y-184290000D03*
D13*
X48260000Y-186690000D03*
D12*
X48260000Y-189090000D03*
X49957056Y-184992944D03*
X49957056Y-188387056D03*
X50660000Y-186690000D03*
%TD*%
%TO.C,H4*%
X200800000Y-252730000D03*
X201502944Y-251032944D03*
X201502944Y-254427056D03*
X203200000Y-250330000D03*
D13*
X203200000Y-252730000D03*
D12*
X203200000Y-255130000D03*
X204897056Y-251032944D03*
X204897056Y-254427056D03*
X205600000Y-252730000D03*
%TD*%
%TO.C,H5*%
X200800000Y-232410000D03*
X201502944Y-230712944D03*
X201502944Y-234107056D03*
X203200000Y-230010000D03*
D13*
X203200000Y-232410000D03*
D12*
X203200000Y-234810000D03*
X204897056Y-230712944D03*
X204897056Y-234107056D03*
X205600000Y-232410000D03*
%TD*%
%TO.C,H6*%
X200800000Y-186690000D03*
X201502944Y-184992944D03*
X201502944Y-188387056D03*
X203200000Y-184290000D03*
D13*
X203200000Y-186690000D03*
D12*
X203200000Y-189090000D03*
X204897056Y-184992944D03*
X204897056Y-188387056D03*
X205600000Y-186690000D03*
%TD*%
D14*
%TO.C,J1*%
X95199200Y-185115200D03*
X168349200Y-185115200D03*
D15*
X83549200Y-183865200D03*
X84549200Y-181865200D03*
X85549200Y-183865200D03*
X86549200Y-181865200D03*
X87549200Y-183865200D03*
X88549200Y-181865200D03*
X89549200Y-183865200D03*
X90549200Y-181865200D03*
X91549200Y-183865200D03*
X92549200Y-181865200D03*
X93549200Y-183865200D03*
X96549200Y-181865200D03*
X97549200Y-183865200D03*
X98549200Y-181865200D03*
X99549200Y-183865200D03*
X100549200Y-181865200D03*
X101549200Y-183865200D03*
X102549200Y-181865200D03*
X103549200Y-183865200D03*
X104549200Y-181865200D03*
X105549200Y-183865200D03*
X106549200Y-181865200D03*
X107549200Y-183865200D03*
X108549200Y-181865200D03*
X109549200Y-183865200D03*
X110549200Y-181865200D03*
X111549200Y-183865200D03*
X112549200Y-181865200D03*
X113549200Y-183865200D03*
X114549200Y-181865200D03*
X115549200Y-183865200D03*
X116549200Y-181865200D03*
X117549200Y-183865200D03*
X118549200Y-181865200D03*
X119549200Y-183865200D03*
X120549200Y-181865200D03*
X121549200Y-183865200D03*
X122549200Y-181865200D03*
X123549200Y-183865200D03*
X124549200Y-181865200D03*
X125549200Y-183865200D03*
X126549200Y-181865200D03*
X127549200Y-183865200D03*
X128549200Y-181865200D03*
X129549200Y-183865200D03*
X130549200Y-181865200D03*
X131549200Y-183865200D03*
X132549200Y-181865200D03*
X133549200Y-183865200D03*
X134549200Y-181865200D03*
X135549200Y-183865200D03*
X136549200Y-181865200D03*
X137549200Y-183865200D03*
X138549200Y-181865200D03*
X139549200Y-183865200D03*
X140549200Y-181865200D03*
X141549200Y-183865200D03*
X142549200Y-181865200D03*
X143549200Y-183865200D03*
X144549200Y-181865200D03*
X145549200Y-183865200D03*
X146549200Y-181865200D03*
X147549200Y-183865200D03*
X148549200Y-181865200D03*
X149549200Y-183865200D03*
X150549200Y-181865200D03*
X151549200Y-183865200D03*
X152549200Y-181865200D03*
X153549200Y-183865200D03*
X154549200Y-181865200D03*
X155549200Y-183865200D03*
X156549200Y-181865200D03*
X157549200Y-183865200D03*
X158549200Y-181865200D03*
X159549200Y-183865200D03*
X160549200Y-181865200D03*
X161549200Y-183865200D03*
X162549200Y-181865200D03*
X163549200Y-183865200D03*
X164549200Y-181865200D03*
X165549200Y-183865200D03*
X166549200Y-181865200D03*
X83549200Y-186365200D03*
X84549200Y-188365200D03*
X85549200Y-186365200D03*
X86549200Y-188365200D03*
X87549200Y-186365200D03*
X88549200Y-188365200D03*
X89549200Y-186365200D03*
X90549200Y-188365200D03*
X91549200Y-186365200D03*
X92549200Y-188365200D03*
X93549200Y-186365200D03*
X96549200Y-188365200D03*
X97549200Y-186365200D03*
X98549200Y-188365200D03*
X99549200Y-186365200D03*
X100549200Y-188365200D03*
X101549200Y-186365200D03*
X102549200Y-188365200D03*
X103549200Y-186365200D03*
X104549200Y-188365200D03*
X105549200Y-186365200D03*
X106549200Y-188365200D03*
X107549200Y-186365200D03*
X108549200Y-188365200D03*
X109549200Y-186365200D03*
X110549200Y-188365200D03*
X111549200Y-186365200D03*
X112549200Y-188365200D03*
X113549200Y-186365200D03*
X114549200Y-188365200D03*
X115549200Y-186365200D03*
X116549200Y-188365200D03*
X117549200Y-186365200D03*
X118549200Y-188365200D03*
X119549200Y-186365200D03*
X120549200Y-188365200D03*
X121549200Y-186365200D03*
X122549200Y-188365200D03*
X123549200Y-186365200D03*
X124549200Y-188365200D03*
X125549200Y-186365200D03*
X126549200Y-188365200D03*
X127549200Y-186365200D03*
X128549200Y-188365200D03*
X129549200Y-186365200D03*
X130549200Y-188365200D03*
X131549200Y-186365200D03*
X132549200Y-188365200D03*
X133549200Y-186365200D03*
X134549200Y-188365200D03*
X135549200Y-186365200D03*
X136549200Y-188365200D03*
X137549200Y-186365200D03*
X138549200Y-188365200D03*
X139549200Y-186365200D03*
X140549200Y-188365200D03*
X141549200Y-186365200D03*
X142549200Y-188365200D03*
X143549200Y-186365200D03*
X144549200Y-188365200D03*
X145549200Y-186365200D03*
X146549200Y-188365200D03*
X147549200Y-186365200D03*
X148549200Y-188365200D03*
X149549200Y-186365200D03*
X150549200Y-188365200D03*
X151549200Y-186365200D03*
X152549200Y-188365200D03*
X153549200Y-186365200D03*
X154549200Y-188365200D03*
X155549200Y-186365200D03*
X156549200Y-188365200D03*
X157549200Y-186365200D03*
X158549200Y-188365200D03*
X159549200Y-186365200D03*
X160549200Y-188365200D03*
X161549200Y-186365200D03*
X162549200Y-188365200D03*
X163549200Y-186365200D03*
X164549200Y-188365200D03*
X165549200Y-186365200D03*
X166549200Y-188365200D03*
%TD*%
D14*
%TO.C,J2*%
X95199200Y-205435200D03*
X168349200Y-205435200D03*
D15*
X83549200Y-204185200D03*
X84549200Y-202185200D03*
X85549200Y-204185200D03*
X86549200Y-202185200D03*
X87549200Y-204185200D03*
X88549200Y-202185200D03*
X89549200Y-204185200D03*
X90549200Y-202185200D03*
X91549200Y-204185200D03*
X92549200Y-202185200D03*
X93549200Y-204185200D03*
X96549200Y-202185200D03*
X97549200Y-204185200D03*
X98549200Y-202185200D03*
X99549200Y-204185200D03*
X100549200Y-202185200D03*
X101549200Y-204185200D03*
X102549200Y-202185200D03*
X103549200Y-204185200D03*
X104549200Y-202185200D03*
X105549200Y-204185200D03*
X106549200Y-202185200D03*
X107549200Y-204185200D03*
X108549200Y-202185200D03*
X109549200Y-204185200D03*
X110549200Y-202185200D03*
X111549200Y-204185200D03*
X112549200Y-202185200D03*
X113549200Y-204185200D03*
X114549200Y-202185200D03*
X115549200Y-204185200D03*
X116549200Y-202185200D03*
X117549200Y-204185200D03*
X118549200Y-202185200D03*
X119549200Y-204185200D03*
X120549200Y-202185200D03*
X121549200Y-204185200D03*
X122549200Y-202185200D03*
X123549200Y-204185200D03*
X124549200Y-202185200D03*
X125549200Y-204185200D03*
X126549200Y-202185200D03*
X127549200Y-204185200D03*
X128549200Y-202185200D03*
X129549200Y-204185200D03*
X130549200Y-202185200D03*
X131549200Y-204185200D03*
X132549200Y-202185200D03*
X133549200Y-204185200D03*
X134549200Y-202185200D03*
X135549200Y-204185200D03*
X136549200Y-202185200D03*
X137549200Y-204185200D03*
X138549200Y-202185200D03*
X139549200Y-204185200D03*
X140549200Y-202185200D03*
X141549200Y-204185200D03*
X142549200Y-202185200D03*
X143549200Y-204185200D03*
X144549200Y-202185200D03*
X145549200Y-204185200D03*
X146549200Y-202185200D03*
X147549200Y-204185200D03*
X148549200Y-202185200D03*
X149549200Y-204185200D03*
X150549200Y-202185200D03*
X151549200Y-204185200D03*
X152549200Y-202185200D03*
X153549200Y-204185200D03*
X154549200Y-202185200D03*
X155549200Y-204185200D03*
X156549200Y-202185200D03*
X157549200Y-204185200D03*
X158549200Y-202185200D03*
X159549200Y-204185200D03*
X160549200Y-202185200D03*
X161549200Y-204185200D03*
X162549200Y-202185200D03*
X163549200Y-204185200D03*
X164549200Y-202185200D03*
X165549200Y-204185200D03*
X166549200Y-202185200D03*
X83549200Y-206685200D03*
X84549200Y-208685200D03*
X85549200Y-206685200D03*
X86549200Y-208685200D03*
X87549200Y-206685200D03*
X88549200Y-208685200D03*
X89549200Y-206685200D03*
X90549200Y-208685200D03*
X91549200Y-206685200D03*
X92549200Y-208685200D03*
X93549200Y-206685200D03*
X96549200Y-208685200D03*
X97549200Y-206685200D03*
X98549200Y-208685200D03*
X99549200Y-206685200D03*
X100549200Y-208685200D03*
X101549200Y-206685200D03*
X102549200Y-208685200D03*
X103549200Y-206685200D03*
X104549200Y-208685200D03*
X105549200Y-206685200D03*
X106549200Y-208685200D03*
X107549200Y-206685200D03*
X108549200Y-208685200D03*
X109549200Y-206685200D03*
X110549200Y-208685200D03*
X111549200Y-206685200D03*
X112549200Y-208685200D03*
X113549200Y-206685200D03*
X114549200Y-208685200D03*
X115549200Y-206685200D03*
X116549200Y-208685200D03*
X117549200Y-206685200D03*
X118549200Y-208685200D03*
X119549200Y-206685200D03*
X120549200Y-208685200D03*
X121549200Y-206685200D03*
X122549200Y-208685200D03*
X123549200Y-206685200D03*
X124549200Y-208685200D03*
X125549200Y-206685200D03*
X126549200Y-208685200D03*
X127549200Y-206685200D03*
X128549200Y-208685200D03*
X129549200Y-206685200D03*
X130549200Y-208685200D03*
X131549200Y-206685200D03*
X132549200Y-208685200D03*
X133549200Y-206685200D03*
X134549200Y-208685200D03*
X135549200Y-206685200D03*
X136549200Y-208685200D03*
X137549200Y-206685200D03*
X138549200Y-208685200D03*
X139549200Y-206685200D03*
X140549200Y-208685200D03*
X141549200Y-206685200D03*
X142549200Y-208685200D03*
X143549200Y-206685200D03*
X144549200Y-208685200D03*
X145549200Y-206685200D03*
X146549200Y-208685200D03*
X147549200Y-206685200D03*
X148549200Y-208685200D03*
X149549200Y-206685200D03*
X150549200Y-208685200D03*
X151549200Y-206685200D03*
X152549200Y-208685200D03*
X153549200Y-206685200D03*
X154549200Y-208685200D03*
X155549200Y-206685200D03*
X156549200Y-208685200D03*
X157549200Y-206685200D03*
X158549200Y-208685200D03*
X159549200Y-206685200D03*
X160549200Y-208685200D03*
X161549200Y-206685200D03*
X162549200Y-208685200D03*
X163549200Y-206685200D03*
X164549200Y-208685200D03*
X165549200Y-206685200D03*
X166549200Y-208685200D03*
%TD*%
D14*
%TO.C,J4*%
X95199200Y-246075200D03*
X168349200Y-246075200D03*
D15*
X83549200Y-244825200D03*
X84549200Y-242825200D03*
X85549200Y-244825200D03*
X86549200Y-242825200D03*
X87549200Y-244825200D03*
X88549200Y-242825200D03*
X89549200Y-244825200D03*
X90549200Y-242825200D03*
X91549200Y-244825200D03*
X92549200Y-242825200D03*
X93549200Y-244825200D03*
X96549200Y-242825200D03*
X97549200Y-244825200D03*
X98549200Y-242825200D03*
X99549200Y-244825200D03*
X100549200Y-242825200D03*
X101549200Y-244825200D03*
X102549200Y-242825200D03*
X103549200Y-244825200D03*
X104549200Y-242825200D03*
X105549200Y-244825200D03*
X106549200Y-242825200D03*
X107549200Y-244825200D03*
X108549200Y-242825200D03*
X109549200Y-244825200D03*
X110549200Y-242825200D03*
X111549200Y-244825200D03*
X112549200Y-242825200D03*
X113549200Y-244825200D03*
X114549200Y-242825200D03*
X115549200Y-244825200D03*
X116549200Y-242825200D03*
X117549200Y-244825200D03*
X118549200Y-242825200D03*
X119549200Y-244825200D03*
X120549200Y-242825200D03*
X121549200Y-244825200D03*
X122549200Y-242825200D03*
X123549200Y-244825200D03*
X124549200Y-242825200D03*
X125549200Y-244825200D03*
X126549200Y-242825200D03*
X127549200Y-244825200D03*
X128549200Y-242825200D03*
X129549200Y-244825200D03*
X130549200Y-242825200D03*
X131549200Y-244825200D03*
X132549200Y-242825200D03*
X133549200Y-244825200D03*
X134549200Y-242825200D03*
X135549200Y-244825200D03*
X136549200Y-242825200D03*
X137549200Y-244825200D03*
X138549200Y-242825200D03*
X139549200Y-244825200D03*
X140549200Y-242825200D03*
X141549200Y-244825200D03*
X142549200Y-242825200D03*
X143549200Y-244825200D03*
X144549200Y-242825200D03*
X145549200Y-244825200D03*
X146549200Y-242825200D03*
X147549200Y-244825200D03*
X148549200Y-242825200D03*
X149549200Y-244825200D03*
X150549200Y-242825200D03*
X151549200Y-244825200D03*
X152549200Y-242825200D03*
X153549200Y-244825200D03*
X154549200Y-242825200D03*
X155549200Y-244825200D03*
X156549200Y-242825200D03*
X157549200Y-244825200D03*
X158549200Y-242825200D03*
X159549200Y-244825200D03*
X160549200Y-242825200D03*
X161549200Y-244825200D03*
X162549200Y-242825200D03*
X163549200Y-244825200D03*
X164549200Y-242825200D03*
X165549200Y-244825200D03*
X166549200Y-242825200D03*
X83549200Y-247325200D03*
X84549200Y-249325200D03*
X85549200Y-247325200D03*
X86549200Y-249325200D03*
X87549200Y-247325200D03*
X88549200Y-249325200D03*
X89549200Y-247325200D03*
X90549200Y-249325200D03*
X91549200Y-247325200D03*
X92549200Y-249325200D03*
X93549200Y-247325200D03*
X96549200Y-249325200D03*
X97549200Y-247325200D03*
X98549200Y-249325200D03*
X99549200Y-247325200D03*
X100549200Y-249325200D03*
X101549200Y-247325200D03*
X102549200Y-249325200D03*
X103549200Y-247325200D03*
X104549200Y-249325200D03*
X105549200Y-247325200D03*
X106549200Y-249325200D03*
X107549200Y-247325200D03*
X108549200Y-249325200D03*
X109549200Y-247325200D03*
X110549200Y-249325200D03*
X111549200Y-247325200D03*
X112549200Y-249325200D03*
X113549200Y-247325200D03*
X114549200Y-249325200D03*
X115549200Y-247325200D03*
X116549200Y-249325200D03*
X117549200Y-247325200D03*
X118549200Y-249325200D03*
X119549200Y-247325200D03*
X120549200Y-249325200D03*
X121549200Y-247325200D03*
X122549200Y-249325200D03*
X123549200Y-247325200D03*
X124549200Y-249325200D03*
X125549200Y-247325200D03*
X126549200Y-249325200D03*
X127549200Y-247325200D03*
X128549200Y-249325200D03*
X129549200Y-247325200D03*
X130549200Y-249325200D03*
X131549200Y-247325200D03*
X132549200Y-249325200D03*
X133549200Y-247325200D03*
X134549200Y-249325200D03*
X135549200Y-247325200D03*
X136549200Y-249325200D03*
X137549200Y-247325200D03*
X138549200Y-249325200D03*
X139549200Y-247325200D03*
X140549200Y-249325200D03*
X141549200Y-247325200D03*
X142549200Y-249325200D03*
X143549200Y-247325200D03*
X144549200Y-249325200D03*
X145549200Y-247325200D03*
X146549200Y-249325200D03*
X147549200Y-247325200D03*
X148549200Y-249325200D03*
X149549200Y-247325200D03*
X150549200Y-249325200D03*
X151549200Y-247325200D03*
X152549200Y-249325200D03*
X153549200Y-247325200D03*
X154549200Y-249325200D03*
X155549200Y-247325200D03*
X156549200Y-249325200D03*
X157549200Y-247325200D03*
X158549200Y-249325200D03*
X159549200Y-247325200D03*
X160549200Y-249325200D03*
X161549200Y-247325200D03*
X162549200Y-249325200D03*
X163549200Y-247325200D03*
X164549200Y-249325200D03*
X165549200Y-247325200D03*
X166549200Y-249325200D03*
%TD*%
D16*
%TO.C,J7*%
X226120000Y-185380000D03*
D17*
X228660000Y-185380000D03*
%TD*%
D14*
%TO.C,J3*%
X95199200Y-225755200D03*
X168349200Y-225755200D03*
D15*
X83549200Y-224505200D03*
X84549200Y-222505200D03*
X85549200Y-224505200D03*
X86549200Y-222505200D03*
X87549200Y-224505200D03*
X88549200Y-222505200D03*
X89549200Y-224505200D03*
X90549200Y-222505200D03*
X91549200Y-224505200D03*
X92549200Y-222505200D03*
X93549200Y-224505200D03*
X96549200Y-222505200D03*
X97549200Y-224505200D03*
X98549200Y-222505200D03*
X99549200Y-224505200D03*
X100549200Y-222505200D03*
X101549200Y-224505200D03*
X102549200Y-222505200D03*
X103549200Y-224505200D03*
X104549200Y-222505200D03*
X105549200Y-224505200D03*
X106549200Y-222505200D03*
X107549200Y-224505200D03*
X108549200Y-222505200D03*
X109549200Y-224505200D03*
X110549200Y-222505200D03*
X111549200Y-224505200D03*
X112549200Y-222505200D03*
X113549200Y-224505200D03*
X114549200Y-222505200D03*
X115549200Y-224505200D03*
X116549200Y-222505200D03*
X117549200Y-224505200D03*
X118549200Y-222505200D03*
X119549200Y-224505200D03*
X120549200Y-222505200D03*
X121549200Y-224505200D03*
X122549200Y-222505200D03*
X123549200Y-224505200D03*
X124549200Y-222505200D03*
X125549200Y-224505200D03*
X126549200Y-222505200D03*
X127549200Y-224505200D03*
X128549200Y-222505200D03*
X129549200Y-224505200D03*
X130549200Y-222505200D03*
X131549200Y-224505200D03*
X132549200Y-222505200D03*
X133549200Y-224505200D03*
X134549200Y-222505200D03*
X135549200Y-224505200D03*
X136549200Y-222505200D03*
X137549200Y-224505200D03*
X138549200Y-222505200D03*
X139549200Y-224505200D03*
X140549200Y-222505200D03*
X141549200Y-224505200D03*
X142549200Y-222505200D03*
X143549200Y-224505200D03*
X144549200Y-222505200D03*
X145549200Y-224505200D03*
X146549200Y-222505200D03*
X147549200Y-224505200D03*
X148549200Y-222505200D03*
X149549200Y-224505200D03*
X150549200Y-222505200D03*
X151549200Y-224505200D03*
X152549200Y-222505200D03*
X153549200Y-224505200D03*
X154549200Y-222505200D03*
X155549200Y-224505200D03*
X156549200Y-222505200D03*
X157549200Y-224505200D03*
X158549200Y-222505200D03*
X159549200Y-224505200D03*
X160549200Y-222505200D03*
X161549200Y-224505200D03*
X162549200Y-222505200D03*
X163549200Y-224505200D03*
X164549200Y-222505200D03*
X165549200Y-224505200D03*
X166549200Y-222505200D03*
X83549200Y-227005200D03*
X84549200Y-229005200D03*
X85549200Y-227005200D03*
X86549200Y-229005200D03*
X87549200Y-227005200D03*
X88549200Y-229005200D03*
X89549200Y-227005200D03*
X90549200Y-229005200D03*
X91549200Y-227005200D03*
X92549200Y-229005200D03*
X93549200Y-227005200D03*
X96549200Y-229005200D03*
X97549200Y-227005200D03*
X98549200Y-229005200D03*
X99549200Y-227005200D03*
X100549200Y-229005200D03*
X101549200Y-227005200D03*
X102549200Y-229005200D03*
X103549200Y-227005200D03*
X104549200Y-229005200D03*
X105549200Y-227005200D03*
X106549200Y-229005200D03*
X107549200Y-227005200D03*
X108549200Y-229005200D03*
X109549200Y-227005200D03*
X110549200Y-229005200D03*
X111549200Y-227005200D03*
X112549200Y-229005200D03*
X113549200Y-227005200D03*
X114549200Y-229005200D03*
X115549200Y-227005200D03*
X116549200Y-229005200D03*
X117549200Y-227005200D03*
X118549200Y-229005200D03*
X119549200Y-227005200D03*
X120549200Y-229005200D03*
X121549200Y-227005200D03*
X122549200Y-229005200D03*
X123549200Y-227005200D03*
X124549200Y-229005200D03*
X125549200Y-227005200D03*
X126549200Y-229005200D03*
X127549200Y-227005200D03*
X128549200Y-229005200D03*
X129549200Y-227005200D03*
X130549200Y-229005200D03*
X131549200Y-227005200D03*
X132549200Y-229005200D03*
X133549200Y-227005200D03*
X134549200Y-229005200D03*
X135549200Y-227005200D03*
X136549200Y-229005200D03*
X137549200Y-227005200D03*
X138549200Y-229005200D03*
X139549200Y-227005200D03*
X140549200Y-229005200D03*
X141549200Y-227005200D03*
X142549200Y-229005200D03*
X143549200Y-227005200D03*
X144549200Y-229005200D03*
X145549200Y-227005200D03*
X146549200Y-229005200D03*
X147549200Y-227005200D03*
X148549200Y-229005200D03*
X149549200Y-227005200D03*
X150549200Y-229005200D03*
X151549200Y-227005200D03*
X152549200Y-229005200D03*
X153549200Y-227005200D03*
X154549200Y-229005200D03*
X155549200Y-227005200D03*
X156549200Y-229005200D03*
X157549200Y-227005200D03*
X158549200Y-229005200D03*
X159549200Y-227005200D03*
X160549200Y-229005200D03*
X161549200Y-227005200D03*
X162549200Y-229005200D03*
X163549200Y-227005200D03*
X164549200Y-229005200D03*
X165549200Y-227005200D03*
X166549200Y-229005200D03*
%TD*%
D17*
%TO.C,J8*%
X228660000Y-162520000D03*
X228660000Y-165060000D03*
X226120000Y-162520000D03*
X226120000Y-165060000D03*
X223580000Y-162520000D03*
X223580000Y-165060000D03*
X221040000Y-162520000D03*
X221040000Y-165060000D03*
X218500000Y-162520000D03*
X218500000Y-165060000D03*
X215960000Y-162520000D03*
X215960000Y-165060000D03*
X213420000Y-162520000D03*
X213420000Y-165060000D03*
X210880000Y-162520000D03*
X210880000Y-165060000D03*
X208340000Y-162520000D03*
X208340000Y-165060000D03*
X205800000Y-162520000D03*
X205800000Y-165060000D03*
X203260000Y-162520000D03*
X203260000Y-165060000D03*
X200720000Y-162520000D03*
X200720000Y-165060000D03*
X198180000Y-162520000D03*
X198180000Y-165060000D03*
X195640000Y-162520000D03*
X195640000Y-165060000D03*
X193100000Y-162520000D03*
X193100000Y-165060000D03*
X190560000Y-162520000D03*
X190560000Y-165060000D03*
X188020000Y-162520000D03*
X188020000Y-165060000D03*
X185480000Y-162520000D03*
D16*
X185480000Y-165060000D03*
%TD*%
%TO.C,J6*%
X81340000Y-165060000D03*
D17*
X81340000Y-162520000D03*
X83880000Y-165060000D03*
X83880000Y-162520000D03*
X86420000Y-165060000D03*
X86420000Y-162520000D03*
X88960000Y-165060000D03*
X88960000Y-162520000D03*
X91500000Y-165060000D03*
X91500000Y-162520000D03*
X94040000Y-165060000D03*
X94040000Y-162520000D03*
X96580000Y-165060000D03*
X96580000Y-162520000D03*
X99120000Y-165060000D03*
X99120000Y-162520000D03*
X101660000Y-165060000D03*
X101660000Y-162520000D03*
X104200000Y-165060000D03*
X104200000Y-162520000D03*
X106740000Y-165060000D03*
X106740000Y-162520000D03*
X109280000Y-165060000D03*
X109280000Y-162520000D03*
X111820000Y-165060000D03*
X111820000Y-162520000D03*
X114360000Y-165060000D03*
X114360000Y-162520000D03*
X116900000Y-165060000D03*
X116900000Y-162520000D03*
X119440000Y-165060000D03*
X119440000Y-162520000D03*
X121980000Y-165060000D03*
X121980000Y-162520000D03*
X124520000Y-165060000D03*
X124520000Y-162520000D03*
X127060000Y-165060000D03*
X127060000Y-162520000D03*
X129600000Y-165060000D03*
X129600000Y-162520000D03*
X132140000Y-165060000D03*
X132140000Y-162520000D03*
X134680000Y-165060000D03*
X134680000Y-162520000D03*
X137220000Y-165060000D03*
X137220000Y-162520000D03*
X139760000Y-165060000D03*
X139760000Y-162520000D03*
X142300000Y-165060000D03*
X142300000Y-162520000D03*
X144840000Y-165060000D03*
X144840000Y-162520000D03*
X147380000Y-165060000D03*
X147380000Y-162520000D03*
X149920000Y-165060000D03*
X149920000Y-162520000D03*
X152460000Y-165060000D03*
X152460000Y-162520000D03*
X155000000Y-165060000D03*
X155000000Y-162520000D03*
X157540000Y-165060000D03*
X157540000Y-162520000D03*
X160080000Y-165060000D03*
X160080000Y-162520000D03*
X162620000Y-165060000D03*
X162620000Y-162520000D03*
X165160000Y-165060000D03*
X165160000Y-162520000D03*
X167700000Y-165060000D03*
X167700000Y-162520000D03*
X170240000Y-165060000D03*
X170240000Y-162520000D03*
X172780000Y-165060000D03*
X172780000Y-162520000D03*
X175320000Y-165060000D03*
X175320000Y-162520000D03*
X177860000Y-165060000D03*
X177860000Y-162520000D03*
X180400000Y-165060000D03*
X180400000Y-162520000D03*
%TD*%
M02*
